<?xml version="1.0" encoding="utf-8"?>
<!-- Generator: Adobe Illustrator 25.0.0, SVG Export Plug-In . SVG Version: 6.00 Build 0)  -->
<svg version="1.1" id="behance_1_" xmlns="http://www.w3.org/2000/svg" xmlns:xlink="http://www.w3.org/1999/xlink" x="0px" y="0px"
	 viewBox="0 0 52 52" style="enable-background:new 0 0 52 52;" xml:space="preserve">
<style type="text/css">
	.st0{fill:#F4E5D5;}
</style>
<path id="bg-behance" class="st0" d="M41,39.6H14.4c-1.5,0-2.7-1.2-2.7-2.7V10.3c0-1.5,1.2-2.7,2.7-2.7H41c1.5,0,2.7,1.2,2.7,2.7
	v26.6C43.7,38.4,42.5,39.6,41,39.6z"/>
<g>
	<g>
		<path d="M17.9,17h6c2.6,0,3.8,1.2,3.8,2.9c0,1.3-0.9,2.1-1.7,2.4c1.1,0.3,2.2,1.1,2.2,2.7c0,2.2-1.7,3.3-4.3,3.3h-6
			C17.9,28.3,17.9,17,17.9,17z M23.3,21.5c1.4,0,1.9-0.5,1.9-1.3c0-1-0.8-1.4-1.8-1.4h-3.2v2.7C20.2,21.5,23.3,21.5,23.3,21.5z
			 M20.2,26.5h3.3c1.1,0,2.1-0.3,2.1-1.6c0-1-0.8-1.6-2.2-1.6h-3.2C20.2,23.3,20.2,26.5,20.2,26.5z"/>
		<path d="M31.7,24.8c0.1,1.2,0.9,2.1,2.3,2.1c1.1,0,1.6-0.4,2-1h2.3c-0.5,1.4-1.7,2.7-4.3,2.7c-3.2,0-4.5-2.2-4.5-4.3
			c0-2.4,1.6-4.3,4.5-4.3c3.2,0,4.4,2.2,4.4,4.3c0,0.2,0,0.3,0,0.6h-6.7V24.8z M36,23.3c-0.1-0.7-0.5-1.8-2.1-1.8
			c-1.5,0-2.1,0.8-2.2,1.8H36z"/>
	</g>
</g>
<path id="line-e" d="M37.1,19.3h-5.8c0,0-0.1,0-0.1-0.1v-0.4c0,0,0-0.1,0.1-0.1h5.8c0,0,0.1,0,0.1,0.1L37.1,19.3
	C37.2,19.3,37.2,19.3,37.1,19.3z"/>
</svg>
