<?xml version="1.0" encoding="utf-8"?>
<!-- Generator: Adobe Illustrator 24.3.0, SVG Export Plug-In . SVG Version: 6.00 Build 0)  -->
<svg version="1.1" id="Layer_1" xmlns="http://www.w3.org/2000/svg" xmlns:xlink="http://www.w3.org/1999/xlink" x="0px" y="0px"
	 viewBox="0 0 52 51" style="enable-background:new 0 0 52 51;" xml:space="preserve">
<g id="Layer_2_1_">
	<g id="Layer_1-2">
		<path d="M9.3,5.3c-2.2,0-4,1.8-4,4v36c0,2.2,1.8,4,4,4h36c2.2,0,4-1.8,4-4v-36c0-2.2-1.8-4-4-4H9.3z M32.3,19.3h5.1
			c0.6,0,1,0.4,1,1s-0.4,1-1,1h-5.1c-0.6,0-1-0.4-1-1S31.7,19.3,32.3,19.3z M15.1,20.1h5.6c3.3,0,5.2,1.6,5.2,4.2
			c0,1.8-1.3,3.3-3.1,3.6v0.2c2.2,0.1,3.9,1.8,3.9,4c0,3-2.2,4.9-5.9,4.9h-5.7c-1,0-1.8-0.8-1.8-1.8V21.9
			C13.3,20.9,14.1,20.1,15.1,20.1L15.1,20.1z M16.9,22.8v4.3h2.7c1.9,0,3-0.8,3-2.1s-1-2.2-2.7-2.2C19.9,22.8,16.9,22.8,16.9,22.8z
			 M35.2,23.8c3.8,0,6.1,2.4,6.1,6.5v1h-8.9v0.2c-0.1,1.6,1,3,2.6,3.1c0.1,0,0.3,0,0.4,0c1.1,0.1,2.1-0.4,2.6-1.3h3.2
			c-0.5,2.5-2.8,4-5.9,4c-4,0-6.3-2.5-6.3-6.7S31.4,23.8,35.2,23.8z M35.2,26.4c-1.5,0-2.8,1.2-2.8,2.7c0,0,0,0,0,0.1h5.5
			c0.1-1.4-1-2.7-2.4-2.8C35.4,26.4,35.3,26.4,35.2,26.4L35.2,26.4z M16.9,29.5v4.8h3.2c2,0,3.2-0.9,3.2-2.5s-1.1-2.4-3.2-2.4
			L16.9,29.5z"/>
	</g>
</g>
</svg>
