<?xml version="1.0" encoding="utf-8"?>
<!-- Generator: Adobe Illustrator 24.3.0, SVG Export Plug-In . SVG Version: 6.00 Build 0)  -->
<svg version="1.1" id="Layer_1" xmlns="http://www.w3.org/2000/svg" xmlns:xlink="http://www.w3.org/1999/xlink" x="0px" y="0px"
	 viewBox="0 0 52 52" style="enable-background:new 0 0 52 52;" xml:space="preserve">
<style type="text/css">
	.st0{fill:#FFFFFF;}
</style>
<rect id="bg" x="6.9" y="8.1" width="38.9" height="36"/>
<path id="be-icon" class="st0" d="M9.5,3.5c-2.2,0-4,1.8-4,4v36c0,2.2,1.8,4,4,4h36c2.2,0,4-1.8,4-4v-36c0-2.2-1.8-4-4-4
	C45.5,3.5,9.5,3.5,9.5,3.5z M32.5,17.5h5.1c0.6,0,1,0.4,1,1s-0.4,1-1,1h-5.1c-0.6,0-1-0.4-1-1S31.9,17.5,32.5,17.5z M15.3,18.3h5.6
	c3.3,0,5.2,1.6,5.2,4.2c0,1.8-1.3,3.3-3.1,3.6v0.2c2.2,0.1,3.9,1.8,3.9,4c0,3-2.2,4.9-5.9,4.9h-5.7c-1,0-1.8-0.8-1.8-1.8V20.1
	C13.5,19.1,14.3,18.3,15.3,18.3L15.3,18.3z M17.1,21v4.3h2.7c1.9,0,3-0.8,3-2.1s-1-2.2-2.7-2.2C20.1,21,17.1,21,17.1,21z M35.4,22
	c3.8,0,6.1,2.4,6.1,6.5v1h-8.9v0.2c-0.1,1.6,1,3,2.6,3.1c0.1,0,0.3,0,0.4,0c1.1,0.1,2.1-0.4,2.6-1.3h3.2c-0.5,2.5-2.8,4-5.9,4
	c-4,0-6.3-2.5-6.3-6.7S31.6,22,35.4,22z M35.4,24.6c-1.5,0-2.8,1.2-2.8,2.7c0,0,0,0,0,0.1h5.5c0.1-1.4-1-2.7-2.4-2.8
	C35.6,24.6,35.5,24.6,35.4,24.6L35.4,24.6z M17.1,27.7v4.8h3.2c2,0,3.2-0.9,3.2-2.5s-1.1-2.4-3.2-2.4L17.1,27.7z"/>
</svg>
