<?xml version="1.0" encoding="utf-8"?>
<!-- Generator: Adobe Illustrator 25.0.0, SVG Export Plug-In . SVG Version: 6.00 Build 0)  -->
<svg version="1.1" id="Layer_1" xmlns="http://www.w3.org/2000/svg" xmlns:xlink="http://www.w3.org/1999/xlink" x="0px" y="0px"
	 viewBox="0 0 44 44" style="enable-background:new 0 0 44 44;" xml:space="preserve">
<style type="text/css">
	.st0{display:none;fill:#FFFFFF;}
	.st1{fill:#F4E5D5;}
</style>
<rect id="bg" x="2.5" y="4" width="38.9" height="36"/>
<path id="be-icon" class="st0" d="M4,0C1.8,0,0,1.8,0,4v36c0,2.2,1.8,4,4,4h36c2.2,0,4-1.8,4-4V4c0-2.2-1.8-4-4-4H4z M27,14h5.1
	c0.6,0,1,0.4,1,1s-0.4,1-1,1H27c-0.6,0-1-0.4-1-1S26.4,14,27,14z M9.8,14.8h5.6c3.3,0,5.2,1.6,5.2,4.2c0,1.8-1.3,3.3-3.1,3.6v0.2
	c2.2,0.1,3.9,1.8,3.9,4c0,3-2.2,4.9-5.9,4.9H9.8c-1,0-1.8-0.8-1.8-1.8V16.6C8,15.6,8.8,14.8,9.8,14.8L9.8,14.8z M11.6,17.5v4.3h2.7
	c1.9,0,3-0.8,3-2.1s-1-2.2-2.7-2.2C14.6,17.5,11.6,17.5,11.6,17.5z M29.9,18.5c3.8,0,6.1,2.4,6.1,6.5v1h-8.9v0.2
	c-0.1,1.6,1,3,2.6,3.1c0.1,0,0.3,0,0.4,0c1.1,0.1,2.1-0.4,2.6-1.3h3.2c-0.5,2.5-2.8,4-5.9,4c-4,0-6.3-2.5-6.3-6.7
	S26.1,18.5,29.9,18.5z M29.9,21.1c-1.5,0-2.8,1.2-2.8,2.7c0,0,0,0,0,0.1h5.5c0.1-1.4-1-2.7-2.4-2.8C30.1,21.1,30,21.1,29.9,21.1
	L29.9,21.1z M11.6,24.2V29h3.2c2,0,3.2-0.9,3.2-2.5s-1.1-2.4-3.2-2.4L11.6,24.2z"/>
<path id="bg-behance" class="st1" d="M41,44.4H3.6c-2.1,0-3.8-1.7-3.8-3.8V3.3c0-2.1,1.7-3.8,3.8-3.8H41c2.1,0,3.8,1.7,3.8,3.8v37.4
	C44.8,42.7,43.1,44.4,41,44.4z"/>
<g>
	<g>
		<path d="M8.2,12.8h8.3c3.6,0,5.2,1.7,5.2,4c0,1.8-1.2,2.9-2.3,3.3c1.5,0.4,3,1.5,3,3.7c0,3-2.3,4.6-5.9,4.6H8.2
			C8.2,28.4,8.2,12.8,8.2,12.8z M15.7,19.1c1.9,0,2.6-0.7,2.6-1.8c0-1.4-1.1-1.9-2.5-1.9h-4.4v3.7C11.4,19.1,15.7,19.1,15.7,19.1z
			 M11.4,26h4.6c1.5,0,2.9-0.4,2.9-2.2c0-1.4-1.1-2.2-3-2.2h-4.4C11.4,21.5,11.4,26,11.4,26z"/>
		<path d="M27.2,23.6c0.1,1.7,1.2,2.9,3.2,2.9c1.5,0,2.2-0.6,2.8-1.4h3.2c-0.7,1.9-2.3,3.7-5.9,3.7c-4.4,0-6.2-3-6.2-5.9
			c0-3.3,2.2-5.9,6.2-5.9c4.4,0,6.1,3,6.1,5.9c0,0.3,0,0.4,0,0.8h-9.2V23.6z M33.2,21.5c-0.1-1-0.7-2.5-2.9-2.5
			c-2.1,0-2.9,1.1-3,2.5H33.2z"/>
	</g>
</g>
<path id="line-e" d="M34.7,15.6l-8-0.1c0,0-0.1,0-0.1-0.3v-1.3c0,0,0-0.3,0.1-0.3h8c0,0,0.1,0,0.1,0.3
	C34.8,13.9,34.8,15.6,34.7,15.6z"/>
</svg>
