<?xml version="1.0" encoding="utf-8"?>
<!-- Generator: Adobe Illustrator 25.1.0, SVG Export Plug-In . SVG Version: 6.00 Build 0)  -->
<svg version="1.1" id="Layer_1" xmlns="http://www.w3.org/2000/svg" xmlns:xlink="http://www.w3.org/1999/xlink" x="0px" y="0px"
	 viewBox="0 0 44 44" style="enable-background:new 0 0 44 44;" xml:space="preserve">
<style type="text/css">
	.st0{fill:url(#BG-fb_1_);}
	.st1{display:none;}
	.st2{display:none;fill:#FFFFFF;}
	.st3{display:none;fill:#F4E5D5;}
</style>
<linearGradient id="BG-fb_1_" gradientUnits="userSpaceOnUse" x1="22" y1="3101.9312" x2="22" y2="3145.9312" gradientTransform="matrix(1 0 0 1 0 -3102)">
	<stop  offset="0" style="stop-color:#7084FF"/>
	<stop  offset="1" style="stop-color:#16307B"/>
</linearGradient>
<path id="BG-fb" class="st0" d="M40,44H3.9C1.6,44,0,42.2,0,40.2V3.8C0,1.6,1.8,0,3.9,0h36.3C42.3,0,44,1.8,44,3.8v36.3
	C44,42.2,42.3,44,40,44z"/>
<rect id="bg" x="2.5" y="4" class="st1" width="38.9" height="36"/>
<path id="be-icon" class="st2" d="M4,0C1.8,0,0,1.8,0,4v36c0,2.2,1.8,4,4,4h36c2.2,0,4-1.8,4-4V4c0-2.2-1.8-4-4-4H4z M27,14h5.1
	c0.6,0,1,0.4,1,1s-0.4,1-1,1H27c-0.6,0-1-0.4-1-1S26.4,14,27,14z M9.8,14.8h5.6c3.3,0,5.2,1.6,5.2,4.2c0,1.8-1.3,3.3-3.1,3.6v0.2
	c2.2,0.1,3.9,1.8,3.9,4c0,3-2.2,4.9-5.9,4.9H9.8c-1,0-1.8-0.8-1.8-1.8V16.6C8,15.6,8.8,14.8,9.8,14.8L9.8,14.8z M11.6,17.5v4.3h2.7
	c1.9,0,3-0.8,3-2.1s-1-2.2-2.7-2.2C14.6,17.5,11.6,17.5,11.6,17.5z M29.9,18.5c3.8,0,6.1,2.4,6.1,6.5v1h-8.9v0.2
	c-0.1,1.6,1,3,2.6,3.1c0.1,0,0.3,0,0.4,0c1.1,0.1,2.1-0.4,2.6-1.3h3.2c-0.5,2.5-2.8,4-5.9,4c-4,0-6.3-2.5-6.3-6.7
	S26.1,18.5,29.9,18.5z M29.9,21.1c-1.5,0-2.8,1.2-2.8,2.7c0,0,0,0,0,0.1h5.5c0.1-1.4-1-2.7-2.4-2.8C30.1,21.1,30,21.1,29.9,21.1
	L29.9,21.1z M11.6,24.2V29h3.2c2,0,3.2-0.9,3.2-2.5s-1.1-2.4-3.2-2.4L11.6,24.2z"/>
<path id="bg-behance" class="st3" d="M41,44.4H3.6c-2.1,0-3.8-1.7-3.8-3.8V3.3c0-2.1,1.7-3.8,3.8-3.8H41c2.1,0,3.8,1.7,3.8,3.8v37.4
	C44.8,42.7,43.1,44.4,41,44.4z"/>
<g id="Be">
	<g>
		<g>
			<path d="M7.8,14h8.3c3.6,0,5.2,1.7,5.2,4c0,1.8-1.2,2.9-2.3,3.3c1.5,0.4,3,1.5,3,3.7c0,3-2.3,4.6-5.9,4.6H7.8V14z M15.3,20.3
				c1.9,0,2.6-0.7,2.6-1.8c0-1.4-1.1-1.9-2.5-1.9H11v3.7C11,20.3,15.3,20.3,15.3,20.3z M11,27.2h4.6c1.5,0,2.9-0.4,2.9-2.2
				c0-1.4-1.1-2.2-3-2.2h-4.4C11,22.7,11,27.2,11,27.2z"/>
			<path d="M26.8,24.8c0.1,1.7,1.2,2.9,3.2,2.9c1.5,0,2.2-0.6,2.8-1.4H36c-0.7,1.9-2.3,3.7-5.9,3.7c-4.4,0-6.2-3-6.2-5.9
				c0-3.3,2.2-5.9,6.2-5.9c4.4,0,6.1,3,6.1,5.9c0,0.3,0,0.4,0,0.8H27v-0.1H26.8z M32.8,22.7c-0.1-1-0.7-2.5-2.9-2.5
				c-2.1,0-2.9,1.1-3,2.5H32.8z"/>
		</g>
	</g>
	<path id="line-e" d="M34.3,16.8l-8-0.1c0,0-0.1,0-0.1-0.3v-1.3c0,0,0-0.3,0.1-0.3h8c0,0,0.1,0,0.1,0.3
		C34.4,15.1,34.4,16.8,34.3,16.8z"/>
</g>
</svg>
