<?xml version="1.0" encoding="utf-8"?>
<!-- Generator: Adobe Illustrator 24.3.0, SVG Export Plug-In . SVG Version: 6.00 Build 0)  -->
<svg version="1.1" id="Layer_1" xmlns="http://www.w3.org/2000/svg" xmlns:xlink="http://www.w3.org/1999/xlink" x="0px" y="0px"
	 viewBox="0 0 44 44" style="enable-background:new 0 0 44 44;" xml:space="preserve">
<style type="text/css">
	.st0{fill:#FFFFFF;}
</style>
<rect id="bg" x="2.5" y="4" width="38.9" height="36"/>
<path id="be-icon" class="st0" d="M4,0C1.8,0,0,1.8,0,4v36c0,2.2,1.8,4,4,4h36c2.2,0,4-1.8,4-4V4c0-2.2-1.8-4-4-4H4z M27,14h5.1
	c0.6,0,1,0.4,1,1s-0.4,1-1,1H27c-0.6,0-1-0.4-1-1S26.4,14,27,14z M9.8,14.8h5.6c3.3,0,5.2,1.6,5.2,4.2c0,1.8-1.3,3.3-3.1,3.6v0.2
	c2.2,0.1,3.9,1.8,3.9,4c0,3-2.2,4.9-5.9,4.9H9.8c-1,0-1.8-0.8-1.8-1.8V16.6C8,15.6,8.8,14.8,9.8,14.8L9.8,14.8z M11.6,17.5v4.3h2.7
	c1.9,0,3-0.8,3-2.1s-1-2.2-2.7-2.2C14.6,17.5,11.6,17.5,11.6,17.5z M29.9,18.5c3.8,0,6.1,2.4,6.1,6.5v1h-8.9v0.2
	c-0.1,1.6,1,3,2.6,3.1c0.1,0,0.3,0,0.4,0c1.1,0.1,2.1-0.4,2.6-1.3h3.2c-0.5,2.5-2.8,4-5.9,4c-4,0-6.3-2.5-6.3-6.7
	S26.1,18.5,29.9,18.5z M29.9,21.1c-1.5,0-2.8,1.2-2.8,2.7c0,0,0,0,0,0.1h5.5c0.1-1.4-1-2.7-2.4-2.8C30.1,21.1,30,21.1,29.9,21.1
	L29.9,21.1z M11.6,24.2V29h3.2c2,0,3.2-0.9,3.2-2.5s-1.1-2.4-3.2-2.4L11.6,24.2z"/>
</svg>
