<?xml version="1.0" encoding="utf-8"?>
<!-- Generator: Adobe Illustrator 24.3.0, SVG Export Plug-In . SVG Version: 6.00 Build 0)  -->
<svg version="1.1" id="fb" xmlns="http://www.w3.org/2000/svg" xmlns:xlink="http://www.w3.org/1999/xlink" x="0px" y="0px"
	 viewBox="0 0 44 44" style="enable-background:new 0 0 44 44;" xml:space="preserve">
<style type="text/css">
	.st0{fill:url(#BG-fb_1_);}
	.st1{enable-background:new    ;}
	.st2{fill:#FFFFFF;}
</style>
<g id="f-icon">
	
		<linearGradient id="BG-fb_1_" gradientUnits="userSpaceOnUse" x1="22" y1="711.9313" x2="22" y2="755.9313" gradientTransform="matrix(1 0 0 1 0 -712)">
		<stop  offset="0" style="stop-color:#7084FF"/>
		<stop  offset="1" style="stop-color:#16307B"/>
	</linearGradient>
	<path id="BG-fb" class="st0" d="M40,44H3.9C1.6,44,0,42.2,0,40.2V3.8C0,1.6,1.8,0,3.9,0h36.3C42.3,0,44,1.8,44,3.8v36.3
		C44,42.2,42.3,44,40,44z"/>
	<g id="f" class="st1">
		<path class="st2" d="M15.5,18l3.2-0.3h9.4v4.4H15.5V18z M18.7,15.3c0-4.9,2.2-8.4,7.3-8.4c1.7,0,3,0.4,4.1,0.8l-1,4.1
			c-0.8-0.4-1.7-0.5-2.5-0.5c-1.9,0-2.8,1.2-2.8,4v26.3h-5.2L18.7,15.3L18.7,15.3z"/>
	</g>
</g>
</svg>
