<?xml version="1.0" encoding="utf-8"?>
<!-- Generator: Adobe Illustrator 24.3.0, SVG Export Plug-In . SVG Version: 6.00 Build 0)  -->
<svg version="1.1" id="fb" xmlns="http://www.w3.org/2000/svg" xmlns:xlink="http://www.w3.org/1999/xlink" x="0px" y="0px"
	 viewBox="0 0 55 54" style="enable-background:new 0 0 55 54;" xml:space="preserve">
<style type="text/css">
	.st0{fill:url(#BG-fb_1_);}
	.st1{enable-background:new    ;}
	.st2{fill:#FFFFFF;}
</style>
<g id="f-icon">
	
		<linearGradient id="BG-fb_1_" gradientUnits="userSpaceOnUse" x1="28.7527" y1="42.85" x2="28.7527" y2="10.85" gradientTransform="matrix(1 0 0 -1 0 56)">
		<stop  offset="0" style="stop-color:#7084FF"/>
		<stop  offset="1" style="stop-color:#16307B"/>
	</linearGradient>
	<path id="BG-fb" class="st0" d="M41.9,45.2H15.6c-1.6,0-2.8-1.3-2.8-2.8V16c0-1.6,1.3-2.8,2.8-2.8h26.4c1.6,0,2.8,1.3,2.8,2.8v26.4
		C44.8,43.9,43.6,45.2,41.9,45.2z"/>
	<g id="f" class="st1">
		<path class="st2" d="M24.1,26.3l2.3-0.2h6.8v3.2h-9.1V26.3z M26.4,24.3c0-3.6,1.6-6.1,5.3-6.1c1.2,0,2.2,0.3,3,0.6l-0.7,3
			c-0.6-0.3-1.2-0.4-1.8-0.4c-1.4,0-2,0.9-2,2.9v19.1h-3.8L26.4,24.3L26.4,24.3z"/>
	</g>
</g>
</svg>
