<?xml version="1.0" encoding="utf-8"?>
<!-- Generator: Adobe Illustrator 25.1.0, SVG Export Plug-In . SVG Version: 6.00 Build 0)  -->
<svg version="1.1" id="fb" xmlns="http://www.w3.org/2000/svg" xmlns:xlink="http://www.w3.org/1999/xlink" x="0px" y="0px"
	 viewBox="0 0 44 44" style="enable-background:new 0 0 44 44;" xml:space="preserve">
<style type="text/css">
	.st0{fill:url(#BG-fb_1_);}
	.st1{fill:#FFFFFF;}
</style>
<g id="f-icon">
	
		<linearGradient id="BG-fb_1_" gradientUnits="userSpaceOnUse" x1="22" y1="3101.9312" x2="22" y2="3145.9312" gradientTransform="matrix(1 0 0 1 0 -3102)">
		<stop  offset="0" style="stop-color:#7084FF"/>
		<stop  offset="1" style="stop-color:#16307B"/>
	</linearGradient>
	<path id="BG-fb" class="st0" d="M40,44H3.9C1.6,44,0,42.2,0,40.2V3.8C0,1.6,1.8,0,3.9,0h36.3C42.3,0,44,1.8,44,3.8v36.3
		C44,42.2,42.3,44,40,44z"/>
	<g>
		<path class="st1" d="M7.5,9.8c0-1.9,1.4-3.2,3.5-3.2s3.5,1.2,3.5,3.3S13,13.2,11,13.2S7.5,12,7.5,9.8z M7.9,16.1h6.2v20.5H7.9
			V16.1z"/>
		<path class="st1" d="M19.2,16.1h5.1l0.5,2.6h0.2c1.7-1.6,3.7-3.1,6.4-3.1c4.3,0,6.2,3.2,6.2,8.2v12.6h-6.3V24.7
			c0-2.9-0.8-3.7-2.4-3.7c-1.4,0-2.3,0.7-3.5,1.8v13.7h-6.2C19.2,36.5,19.2,16.1,19.2,16.1z"/>
	</g>
</g>
</svg>
