<?xml version="1.0" encoding="utf-8"?>
<!-- Generator: Adobe Illustrator 25.0.0, SVG Export Plug-In . SVG Version: 6.00 Build 0)  -->
<svg version="1.1" id="lgo-text" xmlns="http://www.w3.org/2000/svg" xmlns:xlink="http://www.w3.org/1999/xlink" x="0px" y="0px"
	 viewBox="0 0 632.5 161.1" style="enable-background:new 0 0 632.5 161.1;" xml:space="preserve">
<style type="text/css">
	.st0{fill:#F5CA9B;}
	.st1{font-family:'Didot';}
	.st2{font-size:56.431px;}
	.st3{letter-spacing:-5;}
	.st4{font-size:56px;}
</style>
<g id="logo-text_1_" transform="translate(0 4.441)">
	<path id="line" class="st0" d="M631.3,78.2c-26.2,1-52.5,1.8-78.7,2.5H80C53.9,80,27.5,79.2,1.3,78.2c26.2-1,52.5-1.8,78.7-2.5
		h472.6C578.8,76.5,605.2,77.2,631.3,78.2"/>
	<text transform="matrix(1 0 0 1 166.3414 152.2195)" class="st0 st1 st2">Frida</text>
	<text transform="matrix(1 0 0 1 298.6136 152.2195)" class="st0 st1 st2 st3"> </text>
	<text transform="matrix(1 0 0 1 309.2226 152.2195)" class="st0 st1 st2 st3">W</text>
	<text transform="matrix(1 0 0 1 364.2423 152.2195)" class="st0 st1 st2">eber</text>
	<text transform="matrix(1 0 0 1 42.3414 37.6325)" class="st0 st1 st4">Design</text>
	<text transform="matrix(1 0 0 1 507.3414 37.6325)" class="st0 st1 st4">Art</text>
</g>
</svg>
