<svg xmlns="http://www.w3.org/2000/svg" xmlns:xlink="http://www.w3.org/1999/xlink" viewBox="0 0 249.13 194.65"><defs><style>.cls-1,.cls-13,.cls-15,.cls-2{fill:none;}.cls-1,.cls-11,.cls-12,.cls-13,.cls-14,.cls-15,.cls-2,.cls-3,.cls-4,.cls-5,.cls-8,.cls-9{stroke:#1a1a1a;stroke-width:0.45px;}.cls-1,.cls-14,.cls-4,.cls-5{stroke-linejoin:round;}.cls-11,.cls-15,.cls-2,.cls-3,.cls-9{stroke-miterlimit:10;}.cls-3,.cls-4,.cls-7,.cls-8{fill:#111;}.cls-10,.cls-5,.cls-9{fill:#fff;}.cls-6{fill:#1a1a1a;}.cls-12,.cls-13,.cls-8{stroke-linejoin:bevel;}.cls-11,.cls-12,.cls-14{fill:#757575;}.cls-15{stroke-linecap:round;}.cls-16{fill:url(#linear-gradient);}.cls-17{opacity:0.99;fill:url(#linear-gradient-2);}</style><linearGradient id="linear-gradient" x1="26.7" y1="18.4" x2="80.87" y2="18.4" gradientUnits="userSpaceOnUse"><stop offset="0.08" stop-color="#757575"/><stop offset="1"/></linearGradient><linearGradient id="linear-gradient-2" x1="0" y1="47.26" x2="24.42" y2="47.26" xlink:href="#linear-gradient"/></defs><g id="Layer_2" data-name="Layer 2"><g id="Layer_1-2" data-name="Layer 1"><g id="Ninja_Black" data-name="Ninja Black"><path class="cls-1" d="M104,38.91a23.24,23.24,0,0,0-4.12,13.26"/><path class="cls-2" d="M85.74,90a23.75,23.75,0,0,1-2.89,1.14"/><path class="cls-3" d="M119.41,68.77l-.85.21c-7.82,2.15-14.57,7.86-20.47,13.48a7.89,7.89,0,0,1-1.79,1.42,25.76,25.76,0,0,1-2.57.85c-.44-.85-.82-1.72-1.17-2.6A37.63,37.63,0,0,1,95.92,77c.29-.37.58-.73.89-1.08a17.32,17.32,0,0,1,2.29-2.32l.16-.14c.75-.62,1.55-1.16,2.31-1.75a40.49,40.49,0,0,1,4.43-3.5,7.94,7.94,0,0,1,1.57-.71c1.64-.51,3.1-.26,4.2-1.58A5.46,5.46,0,0,0,113,64.19a2.27,2.27,0,0,1,.34.19l1.15.77c1.28.88,2.5,1.82,3.69,2.82a4.45,4.45,0,0,0,.83.59Z"/><path class="cls-1" d="M114.43,48.65h0"/><path class="cls-1" d="M114.59,50.48h0"/><path class="cls-1" d="M114.31,51.75l0,0"/><path class="cls-4" d="M96.81,75.87c-.31.35-.6.71-.89,1.08a37.63,37.63,0,0,0-3.36,5.18,62.19,62.19,0,0,1-2.65-9.94,31.7,31.7,0,0,1-.9-6.91,26.62,26.62,0,0,1,1.08-6.48,2.14,2.14,0,0,0,.1.3.19.19,0,0,0,0,.07c.15.58.41,1.69.57,2.23l3,10.32A5.12,5.12,0,0,0,94.23,73,5.19,5.19,0,0,0,95,74Z"/><path class="cls-4" d="M99.1,73.55a17.32,17.32,0,0,0-2.29,2.32L95,74a5.19,5.19,0,0,1-.78-1,5.12,5.12,0,0,1-.48-1.27l-3-10.32c-.16-.54-.42-1.65-.57-2.23a17.43,17.43,0,0,0,2.22,4.37,23.17,23.17,0,0,1,3.22,7.21,12.63,12.63,0,0,1,2.28,1.72A13.24,13.24,0,0,0,99.1,73.55Z"/><path class="cls-4" d="M112.93,59.28c0,.22,0,.46,0,.69s0,.44,0,.65c0,.6,0,1.17.08,1.61a6.77,6.77,0,0,1-.06,2,5.46,5.46,0,0,1-1.18,1.68c-1.1,1.32-2.56,1.07-4.2,1.58a7.94,7.94,0,0,0-1.57.71,8.74,8.74,0,0,1-1.91-.82,17.54,17.54,0,0,1-3-2.35l-2.37-2.15a26.86,26.86,0,0,1-.06-3.11l.89,0c2.19-.4,4.47-.86,6.19-2.28a25.55,25.55,0,0,0,2.43-2.66,6.49,6.49,0,0,1,2.15-1.65h0a4.11,4.11,0,0,1,1,0,3.74,3.74,0,0,1,.89.22,3,3,0,0,0,.76.22,1.48,1.48,0,0,0,1-.35c-.21,1-.41,1.94-.56,2.92S113.12,58.26,112.93,59.28Z"/><path class="cls-5" d="M112.22,50.9a3.45,3.45,0,0,0-.42.51l.08.23a2.17,2.17,0,0,1,.59-.54,3.17,3.17,0,0,1,.45-.23,5.38,5.38,0,0,1,1.63-.38c-.08.44-.17.87-.27,1.3h0L114,53.29a1.48,1.48,0,0,1-1,.35,3,3,0,0,1-.76-.22,3.74,3.74,0,0,0-.89-.22,2.55,2.55,0,0,1-.13-.29,5.25,5.25,0,0,1,.14-2.81,11.53,11.53,0,0,1,2.2-1.29,1.22,1.22,0,0,1,.88-.17,1.83,1.83,0,0,1,.3.18l.15,0c-.07.42-.14.84-.22,1.25A3.46,3.46,0,0,0,112.22,50.9Z"/><path class="cls-6" d="M114.3,51.81a.58.58,0,0,1-.35.46.83.83,0,0,1-.56,0,4.85,4.85,0,0,1-.93-.35v0c.33,0,.66.06,1,0,.15,0,.27-.07.39-.08a2.15,2.15,0,0,0,.45-.06Z"/><path class="cls-4" d="M115.1,46.54l0,.35a25.35,25.35,0,0,1-13.67,1,30,30,0,0,1,2.51-4.51,27.24,27.24,0,0,1,1.9-2.52l.39-.18a13.93,13.93,0,0,1,2.43-.75c.83-.18,1.68-.29,2.49-.54.62-.19,1.21-.47,1.82-.68a8.62,8.62,0,0,1,1.38,2.39h0A13.16,13.16,0,0,1,115.1,46.54Z"/><path class="cls-1" d="M114.56,57.61a23,23,0,0,1-1.63,3"/><path class="cls-1" d="M89.41,50a11.49,11.49,0,0,0,.44,1.82,16.21,16.21,0,0,0,2.72,4.91A44,44,0,0,0,97.81,62l.9.82"/><path class="cls-5" d="M115.07,46.89c0,.65-.12,1.31-.22,2l-.15,0a1.83,1.83,0,0,0-.3-.18,1.91,1.91,0,0,0-1.2-.14,3.8,3.8,0,0,0-1.36.72l-.53.39c0,.22,0,0,0,.49a5.25,5.25,0,0,0-.14,2.81h0a3.86,3.86,0,0,0-.82.24h0a4.71,4.71,0,0,0-2.26.78,4.84,4.84,0,0,1-.88.56,3.23,3.23,0,0,1-.87.14c-.41,0-.82,0-1.23,0a10.82,10.82,0,0,1-3.27-.89L99.63,53l.21-.78a31.77,31.77,0,0,1,1.56-4.25A25.35,25.35,0,0,0,115.07,46.89Z"/><path class="cls-1" d="M115.08,46.88h0"/><path class="cls-6" d="M103.38,51.61a7,7,0,0,0,1.49-.46,5.55,5.55,0,0,1,1.59-.44,2.76,2.76,0,0,1,.9,0,2.54,2.54,0,0,1,.46.17,1.19,1.19,0,0,1,.3.23.64.64,0,0,1,.17.45,2.34,2.34,0,0,1-.27.92l-.18.38a1.77,1.77,0,0,1-.14.23l-.12.15,0,0a.37.37,0,0,1-.28.14,2.53,2.53,0,0,1-1-.29l-.83-.39-.83-.35a1.19,1.19,0,0,0-.85-.09,1.15,1.15,0,0,1,.92-.25,7.5,7.5,0,0,1,1,.14l.9.24a2,2,0,0,0,.73.14l-.31.18a4.56,4.56,0,0,0,.5-1.18s0,.07,0,.09.06,0,0,0a1,1,0,0,0-.28-.11,2,2,0,0,0-.65-.1,9,9,0,0,0-1.49.15A3.85,3.85,0,0,1,103.38,51.61Z"/><path class="cls-1" d="M108.2,50.57l-.26-.07,0,.06"/><path class="cls-4" d="M115.92,54.63a20.42,20.42,0,0,1-1.36,3c1.91-4.26,2.14-8.87,1.63-13.69a13.94,13.94,0,0,0-3-5.24,1.52,1.52,0,0,0-.2.06c-.61.21-1.2.49-1.82.68-.81.25-1.66.36-2.49.54a13.93,13.93,0,0,0-2.43.75l-.39.18a27.24,27.24,0,0,0-1.9,2.52,30,30,0,0,0-2.51,4.51,31.77,31.77,0,0,0-1.56,4.25l-.21.78a30.57,30.57,0,0,0-1,6.78h0a26.86,26.86,0,0,0,.06,3.11L101.08,65a17.54,17.54,0,0,0,3,2.35,8.74,8.74,0,0,0,1.91.82,40.49,40.49,0,0,0-4.43,3.5c-.76.59-1.56,1.13-2.31,1.75l-.16.14a13.24,13.24,0,0,1-1.17-1.08,12.63,12.63,0,0,0-2.28-1.72,23.17,23.17,0,0,0-3.22-7.21,17.43,17.43,0,0,1-2.22-4.37.19.19,0,0,1,0-.07c-.06-.2-.09-.32-.1-.3a15.38,15.38,0,0,0-1.61-2.24,6.13,6.13,0,0,1-.89-1.51,34.1,34.1,0,0,0-1.8-4.95c-.15-.25-.44-1.36-.74-2.31a25.58,25.58,0,0,1,5.17-12.86c2.43-1.58,5-3,7.29-4.72l1,0,9,.29c.64,0,1.29,0,1.93,0a39,39,0,0,1,4.06,4.65c.85,1.2,1.61,2.85,2.47,4.27l-.42-.39c.51.51,1,1.59,1.56,2A11.55,11.55,0,0,1,116,39.46l.49.46a2.72,2.72,0,0,1,.6.75,3.29,3.29,0,0,1,.17.67A27.2,27.2,0,0,1,115.92,54.63Z"/><path class="cls-4" d="M110.31,53.16a6.49,6.49,0,0,0-2.15,1.65,25.55,25.55,0,0,1-2.43,2.66c-1.72,1.42-4,1.88-6.19,2.28l-.89,0h0a30.57,30.57,0,0,1,1-6.78l2.17.84a10.82,10.82,0,0,0,3.27.89c.41,0,.82,0,1.23,0a3.23,3.23,0,0,0,.87-.14,4.84,4.84,0,0,0,.88-.56A4.71,4.71,0,0,1,110.31,53.16Z"/><path class="cls-4" d="M114.56,57.61A14.4,14.4,0,0,1,112.92,60c0-.23,0-.47,0-.69.19-1,.3-2.06.46-3.07s.35-2,.56-2.92l.33-1.49h0c.1-.43.19-.86.27-1.3,0-.13,0-.27.08-.4.08-.41.15-.83.22-1.25.1-.64.18-1.3.22-2l0-.35a13.16,13.16,0,0,0-.78-5.4h0a8.62,8.62,0,0,0-1.38-2.39,1.52,1.52,0,0,1,.2-.06,13.94,13.94,0,0,1,3,5.24C116.7,48.74,116.47,53.35,114.56,57.61Z"/><path class="cls-2" d="M79.63,65.59Q78.57,70.81,77.51,76c0,.15-.06.3-.08.46"/><path class="cls-2" d="M81.25,85.2l.15-1.68a5,5,0,0,0,0-1.34,6.86,6.86,0,0,0-.68-1.64,10.35,10.35,0,0,1-.91-6.15"/><path class="cls-3" d="M124.94,86.51c0,.58-.07,1.15-.12,1.73-.37,3.81-1.23,7.61-.63,11.38l.55,1.45a83.13,83.13,0,0,1-12.52,6.26,2.06,2.06,0,0,1,1.21,1.15,4.44,4.44,0,0,0-2.56-1.49c.08,0-3.58-1.91-5.25.73a7.69,7.69,0,0,0-.84,1.64l-3.24.3a11.68,11.68,0,0,1-2,.07,12.76,12.76,0,0,1-1.62-.28L95.85,109a10,10,0,0,1-1.35-.38,4.42,4.42,0,0,1-1.5-.94,2.61,2.61,0,0,1-.73.09,1.26,1.26,0,0,1-1.07-.53,3.16,3.16,0,0,0-.31-.54c-.31-.32-.85-.2-1.26-.36a2.55,2.55,0,0,1-.69-.49l0,0c.52-.25,1-.51,1.55-.79a45.14,45.14,0,0,0,5.17-.93,7.75,7.75,0,0,0,1.66-.49A10.09,10.09,0,0,0,99.49,102a40.11,40.11,0,0,1,3.84-2.76l5.52-3.63a46.42,46.42,0,0,0,10-4.06c.71-1.38,1-3,1.62-4.4a11.45,11.45,0,0,1,1.8-3l2.5-.17A21.92,21.92,0,0,1,124.94,86.51Z"/><path class="cls-3" d="M129.55,97.34a4,4,0,0,0-.15.6c-1.52,1.09-3.07,2.14-4.66,3.13l-.55-1.45c-.6-3.77.26-7.57.63-11.38.73,2,1.15,4.19,2.39,5.94A22.79,22.79,0,0,1,129.55,97.34Z"/><path class="cls-1" d="M108.07,50.24a.64.64,0,0,1-.13.26l-2.65-.76a4.62,4.62,0,0,0-1-.22,4.21,4.21,0,0,0-2.05.56,1,1,0,0,1-.34.17l.34-.17a5.32,5.32,0,0,1,1.6-.8,3.59,3.59,0,0,1,1.12.14,22.83,22.83,0,0,0,2.85.45.53.53,0,0,1,.18.05A.28.28,0,0,1,108.07,50.24Z"/><path class="cls-1" d="M114.85,48.84c-.07.42-.14.84-.22,1.25,0,.13,0,.27-.08.4-.08.44-.17.87-.27,1.3h0L114,53.29a1.48,1.48,0,0,1-1,.35,3,3,0,0,1-.76-.22,3.74,3.74,0,0,0-.89-.22,4.11,4.11,0,0,0-1,0,3.86,3.86,0,0,1,.82-.24h0a5.25,5.25,0,0,1,.14-2.81c0-.45,0-.27,0-.49l.53-.39a3.8,3.8,0,0,1,1.36-.72,1.91,1.91,0,0,1,1.2.14,1.83,1.83,0,0,1,.3.18Z"/><path class="cls-4" d="M108.07,50.24a.64.64,0,0,1-.13.26l-2.65-.76a4.62,4.62,0,0,0-1-.22,4.21,4.21,0,0,0-2.05.56,5.32,5.32,0,0,1,1.6-.8,3.59,3.59,0,0,1,1.12.14,22.83,22.83,0,0,0,2.85.45.53.53,0,0,1,.18.05A.28.28,0,0,1,108.07,50.24Z"/><path class="cls-4" d="M114.4,48.64a1.22,1.22,0,0,0-.88.17,11.53,11.53,0,0,0-2.2,1.29c0-.45,0-.27,0-.49l.53-.39a3.8,3.8,0,0,1,1.36-.72A1.91,1.91,0,0,1,114.4,48.64Z"/><path class="cls-7" d="M114.63,50.09c0,.13,0,.27-.08.4a5.38,5.38,0,0,0-1.63.38,3.17,3.17,0,0,0-.45.23,2.17,2.17,0,0,0-.59.54l-.08-.23a3,3,0,0,1,2.83-1.32Z"/><path class="cls-6" d="M114.63,50.09c0,.12,0,.26,0,.41s0,0,0,0h0a6.62,6.62,0,0,0-1.39.44,2.44,2.44,0,0,0-1.11.79.2.2,0,0,1-.29.06.17.17,0,0,1-.09-.11h0l-.08-.23v0a.19.19,0,0,1,0-.18,5.86,5.86,0,0,1,.59-.63,2.71,2.71,0,0,1,.76-.42A3.05,3.05,0,0,1,114.63,50.09Zm0,0a4.18,4.18,0,0,0-1.53.45,3.84,3.84,0,0,0-.63.42,5.63,5.63,0,0,0-.5.58l0-.2.09.22-.39-.06a2.68,2.68,0,0,1,1.33-.87,4.61,4.61,0,0,1,1.52-.2l0,0Z"/><path class="cls-6" d="M105.48,41.07a5.47,5.47,0,0,1,.77-1.24,8.94,8.94,0,0,1,1-1A17.73,17.73,0,0,1,109.52,37l0,0c-.71.63-1.36,1.32-2,2-.31.36-.6.74-.94,1.07s-.69.65-1.07,1Z"/><path class="cls-2" d="M100.41,98.89A49.61,49.61,0,0,1,109,95.56"/><path class="cls-2" d="M90.59,105a19.22,19.22,0,0,1-2.63.12c-2.61-.09-5.38-.77-7.72.39"/><path class="cls-3" d="M93.73,84.73l-.34.14a11,11,0,0,0-2.25,1.66A24.58,24.58,0,0,1,85.77,90H85.7A9.9,9.9,0,0,0,83.81,90a.16.16,0,0,1-.12-.06,21.78,21.78,0,0,1-2.44-4.69,21.48,21.48,0,0,1-.76-2.44c-.34-1.35-.61-2.85-1.68-3.73a5.26,5.26,0,0,1-1.2-1,2.17,2.17,0,0,1-.18-1.49,1.52,1.52,0,0,0-.4-.32A28.13,28.13,0,0,0,67,72.3c-1.4-.24-2.81-.39-4.18-.76a16.18,16.18,0,0,1-5.18-2.6l-.05,0c-1.41-.2-2.73-1.11-4.13-1.56-1.18-.38-2.43-.43-3.64-.71a23.65,23.65,0,0,1-3.55-1.32,54.71,54.71,0,0,0-14.6-3.88c-1-.12-2.92-.55-3.53-.06s-.19-.12-.12-.21a26.76,26.76,0,0,1,3-3.53,17.92,17.92,0,0,0,2.81-4.25l0-.07a18.09,18.09,0,0,0,1.89-4.94,8.77,8.77,0,0,0,.14-2,6.54,6.54,0,0,0-.42-2.1h0l.53.35c2.47,1.66,5.51,2.1,8.4,2.71,2.06.44,4.08,1,6.1,1.52L63,52.17c1.79.48,3.58,1,5.31,1.6h0A60,60,0,0,1,81.8,55.29a6.38,6.38,0,0,1,2.45,1,8.13,8.13,0,0,0,1.15.9,3.06,3.06,0,0,0,3-.52.13.13,0,0,1,.18,0,13.87,13.87,0,0,1,1.5,2.09.14.14,0,0,1,0,.11A27.09,27.09,0,0,0,89,65.28a31.7,31.7,0,0,0,.9,6.91,62.19,62.19,0,0,0,2.65,9.94C92.91,83,93.29,83.88,93.73,84.73Z"/><path class="cls-2" d="M33.83,43.92l-.06.23"/><path class="cls-6" d="M68.36,53.76a4.67,4.67,0,0,1,1.19.25c.38.13.73.32,1.09.48a6.18,6.18,0,0,0,2.28.57v0a5.61,5.61,0,0,1-2.4-.28,7.32,7.32,0,0,1-1.14-.4,6.46,6.46,0,0,1-1-.63Z"/><path class="cls-8" d="M35.86,46.34a6.18,6.18,0,0,1-1.1-1.07l-1-1.12L33.63,44l.2-.07a1.91,1.91,0,0,1,.92,0,2.17,2.17,0,0,1,.69.32A6.54,6.54,0,0,1,35.86,46.34Z"/><path class="cls-8" d="M33.79,53.4A17.92,17.92,0,0,1,31,57.65a25.65,25.65,0,0,0-3.15,3.75c-.71,0-1-2.32-1-3.56A15.1,15.1,0,0,1,29.39,50,34.19,34.19,0,0,0,33.79,53.4Z"/><path class="cls-6" d="M57.58,68.92c-.41-.26-.81-.54-1.21-.81s-.77-.6-1.17-.86a7.54,7.54,0,0,0-2.67-.92c-1.92-.6-3.42-1.91-5.35-2.26A6.83,6.83,0,0,1,50,64.8a20.06,20.06,0,0,0,2.65,1.1c.44.15.92.23,1.4.38A3.88,3.88,0,0,1,55.4,67C56.16,67.62,56.86,68.25,57.58,68.92Z"/><path class="cls-9" d="M24.44,40.63l0,0h0l-.31-.31L24,40.19A1.29,1.29,0,0,1,24.44,40.63Z"/><path class="cls-9" d="M23.18,39.33a.87.87,0,0,0-.05-.22A.59.59,0,0,1,23.18,39.33Z"/><path class="cls-6" d="M32.3,44.25c-.16-.37-.34-.72-.51-1.08a2.09,2.09,0,0,1-.24-.55,1.36,1.36,0,0,1,0-.63h0a2,2,0,0,1,.36.5,2.28,2.28,0,0,1,.15.57,8,8,0,0,1,.21,1.19Z"/><path class="cls-5" d="M23.18,39.33a.87.87,0,0,0-.05-.22A.59.59,0,0,1,23.18,39.33Z"/><path class="cls-5" d="M27.58,39.28c0,.45-.45,1.36-.91.91A.68.68,0,0,0,26.5,40c-.16-.2-.4-.49-.68-.8A7.71,7.71,0,0,0,24,37.48a3,3,0,0,0-.68-.19A23,23,0,0,0,19.83,37a3.14,3.14,0,0,1,1-1l1.32-.1h.79c.38,0,.76,0,1.06.05a.18.18,0,0,0,.1,0h.14a1,1,0,0,0,.24.07c.11,0,.21.11.35.18A11.12,11.12,0,0,1,27,38.38l.05.07,0,0A2,2,0,0,1,27.58,39.28Z"/><path class="cls-5" d="M24,36h-.21L23,36H22.9A5.83,5.83,0,0,1,24,36Z"/><path class="cls-3" d="M59.46,101.93s0,0,0,.07c-.89,3-2.2,5.86-2.77,8.94a26.68,26.68,0,0,1-1.34-4.51c-.33-1.64.3-4.72.66-6.27l.35.13a14.11,14.11,0,0,1,1.82.92Z"/><path class="cls-10" d="M59.79,92.82l-1.15-.08-1.23-.09-.62,0a8.51,8.51,0,0,1-2.07-.32,3.26,3.26,0,0,1-.94-.45,3.27,3.27,0,0,0,.47-.83,21.34,21.34,0,0,0,.31-3.68c.19-1.84,1.08-3.61.89-5.46a1.58,1.58,0,0,0-.34-.89.73.73,0,0,0-.82-.14,1,1,0,0,1,0-.14,6.25,6.25,0,0,0,.23-1.49,1.23,1.23,0,0,0-.35-1,.82.82,0,0,0-.89-.06,3.22,3.22,0,0,0-.67,1.22c0-.21.21-1,.07-1.15a.7.7,0,0,0-.93,0,2,2,0,0,0-.52.9q-1,2.79-1.91,5.62a1.49,1.49,0,0,1-.36.68.48.48,0,0,1-.69,0,.7.7,0,0,1,0-.6,29.11,29.11,0,0,1,2-5,1.53,1.53,0,0,0,0-.43c0-.41-.41-.85-.81-.73a.9.9,0,0,0-.43.37,11.74,11.74,0,0,0-1.33,2.59c-.71,1.74-1.43,3.48-2.12,5.23a4.65,4.65,0,0,0-.36,1.26,5.32,5.32,0,0,0,0,1c.2,1.71.39,3.42.59,5.12a2.67,2.67,0,0,0,.62,1.71,3.76,3.76,0,0,0,1.63.63c1.51.45,2.63,1.72,4,2.41a31.5,31.5,0,0,0,3.83,1.2l.35.13a14.11,14.11,0,0,1,1.82.92l1.29.72,0,0v-.11"/><path class="cls-6" d="M59.78,92.84l-3.07-.16a5.7,5.7,0,0,1-3-.75.11.11,0,0,1,0-.16h0A4.36,4.36,0,0,0,54.35,89a11.06,11.06,0,0,1,.29-3A23.86,23.86,0,0,0,55.25,83a4.78,4.78,0,0,0-.06-1.42.94.94,0,0,0-.3-.51.49.49,0,0,0-.49,0,.22.22,0,0,1-.3-.08.23.23,0,0,1,0-.16v0a7.25,7.25,0,0,0,.23-1.2,1.64,1.64,0,0,0-.15-1.08.55.55,0,0,0-.77-.09,3.57,3.57,0,0,0-.52,1v0a.22.22,0,0,1-.28.14.21.21,0,0,1-.15-.24,4.8,4.8,0,0,0,.11-1s0,0,0,0l-.06,0a.38.38,0,0,0-.15,0,.58.58,0,0,0-.36.1c-.44.31-.57,1.12-.82,1.74l-1.36,4-.34,1a1.28,1.28,0,0,1-.33.52.74.74,0,0,1-.67.17A.59.59,0,0,1,48,85.2a2.6,2.6,0,0,1,.12-.56l.33-1a28.68,28.68,0,0,1,1.63-3.88l0,0a2.54,2.54,0,0,0,0-.47.79.79,0,0,0-.21-.38c-.21-.22-.47-.16-.67.12a8.74,8.74,0,0,0-1,1.84l-1.64,4-.82,2a6.16,6.16,0,0,0-.33,1,5.16,5.16,0,0,0,0,1l.46,4.29a10.23,10.23,0,0,0,.34,2.1,1.43,1.43,0,0,0,.66.75,4.5,4.5,0,0,0,1,.32c1.46.34,2.53,1.42,3.73,2.18a15.11,15.11,0,0,0,4,1.43,11.7,11.7,0,0,1,2,.88c.65.32,1.26.7,1.89,1.05l0,0v-.11h0V102l0,0h0c-.64-.35-1.25-.72-1.9-1a11.09,11.09,0,0,0-2-.86,14.85,14.85,0,0,1-4.08-1.41c-1.22-.75-2.3-1.8-3.7-2.11a5.11,5.11,0,0,1-1-.33,1.62,1.62,0,0,1-.75-.84,10.76,10.76,0,0,1-.37-2.15L45.16,89a5.88,5.88,0,0,1,0-1.11,6.11,6.11,0,0,1,.33-1l.81-2,1.62-4A8.63,8.63,0,0,1,49,78.86a.89.89,0,0,1,.52-.37.7.7,0,0,1,.63.21,1.08,1.08,0,0,1,.31.55,3.08,3.08,0,0,1,0,.61,0,0,0,0,1,0,0v0a28,28,0,0,0-1.58,3.85l-.31,1c-.12.34-.15.64,0,.66.49.12.6-.83.85-1.43l1.33-4,.35-1a1.86,1.86,0,0,1,.64-1,1,1,0,0,1,.64-.17.79.79,0,0,1,.34.1.44.44,0,0,1,.15.12.45.45,0,0,1,.12.24,4.83,4.83,0,0,1-.12,1.09l-.44-.07a4,4,0,0,1,.62-1.22,1,1,0,0,1,1.47.12,2,2,0,0,1,.24,1.38,6.92,6.92,0,0,1-.26,1.28l-.31-.25a.93.93,0,0,1,.94.07,1.37,1.37,0,0,1,.46.76,4.9,4.9,0,0,1,0,1.57A23.76,23.76,0,0,1,55,86a11.61,11.61,0,0,0-.33,3,11.28,11.28,0,0,1-.13,1.53,2.8,2.8,0,0,1-.64,1.41l0-.17a5.78,5.78,0,0,0,2.88.79l3.07.27Z"/><path class="cls-3" d="M57.41,92.65a1.06,1.06,0,0,1,.41-1.07,2.05,2.05,0,0,1,1.36-.3,5.63,5.63,0,0,1,.61,1.54h0"/><path class="cls-4" d="M124.76,83.91v0l-2.5.17a11.45,11.45,0,0,0-1.8,3c-.6,1.45-.91,3-1.62,4.4a46.42,46.42,0,0,1-10,4.06l-5.52,3.63A40.11,40.11,0,0,0,99.49,102a10.09,10.09,0,0,1-2.19,1.62,7.75,7.75,0,0,1-1.66.49,45.14,45.14,0,0,1-5.17.93c-.51.28-1,.54-1.55.79l-.11,0A18.36,18.36,0,0,1,83,107.55a38.1,38.1,0,0,1-4.28.16c-7.63,0-15.55,3-21.84,4a2.53,2.53,0,0,1-.25-.75l2.44-7.86a.14.14,0,0,1,0-.06l.33-1s0,0,0-.07l0-.09a18.77,18.77,0,0,0,.78-4.07,13.5,13.5,0,0,0-.45-4.86s0,0,0,0a.07.07,0,0,0,0-.05,5.63,5.63,0,0,0-.61-1.54h.2c.62,0,1.24.2,1.77.26a22.73,22.73,0,0,0,3.61.83,17.33,17.33,0,0,0,4.31-.3L81,90.27A25.86,25.86,0,0,1,83.61,90a10.27,10.27,0,0,1,2,.07A24.16,24.16,0,0,0,91,86.53a10.72,10.72,0,0,1,2.25-1.66l.33-.14a25.76,25.76,0,0,0,2.57-.85A7.89,7.89,0,0,0,98,82.46c5.9-5.62,12.66-11.33,20.48-13.48a22.94,22.94,0,0,0,4.43,2.61c.26.14.43.29.42.59a1.28,1.28,0,0,1-.1.55,2.56,2.56,0,0,0-.21.73l-.07.36A63,63,0,0,1,124.76,83.91Z"/><path class="cls-1" d="M59.53,102l0,0"/><path class="cls-6" d="M52.9,78.8c0,.29-.13.52-.13.76s-.08.52-.13.77a14.93,14.93,0,0,1-.42,1.49c-.29,1-.6,2-.92,3h0c.19-1,.4-2,.61-3,.11-.51.19-1,.34-1.52.09-.24.16-.49.26-.73a5,5,0,0,1,.39-.69Z"/><path class="cls-6" d="M54.47,80.3a6.18,6.18,0,0,1-.18,1.36c-.09.44-.26.86-.39,1.28a8.78,8.78,0,0,0-.42,2.64h0a7.6,7.6,0,0,1,.11-2.73,9.88,9.88,0,0,1,.31-1.33,8.58,8.58,0,0,1,.56-1.24Z"/><path class="cls-6" d="M53.76,91.86a.49.49,0,0,1-.34,0,.4.4,0,0,1-.17-.23A1.48,1.48,0,0,1,53,91.1l0,0a4.85,4.85,0,0,0,.43.3c.08,0,.17.06.21.14a.61.61,0,0,1,.08.31Z"/><line class="cls-1" x1="57.05" y1="111.74" x2="57.03" y2="111.72"/><path class="cls-1" d="M60,91.37h0"/><path class="cls-6" d="M95.28,106.89a6.72,6.72,0,0,0-1.35.52,3.87,3.87,0,0,1-.65.31,2.12,2.12,0,0,1-.76.08l0,0a2.45,2.45,0,0,1,.61-.46,3.19,3.19,0,0,1,.7-.23,4.3,4.3,0,0,1,1.47-.22Z"/><path class="cls-2" d="M87.21,105.05v0"/><path class="cls-2" d="M104.12,114.4c0,.07-.16.16-.12.06"/><path class="cls-11" d="M104.67,109.7a9.76,9.76,0,0,0-.2,4.65v0h-.35a0,0,0,0,0,0,0c-.09-.08-.22,0-.33,0-3.38.79-6.86-.46-10.1-1.69a2.93,2.93,0,0,1-.21-1.23c0-.86.08-1.74-.55-2.25a1.85,1.85,0,0,1-.64-1.47,2.61,2.61,0,0,0,.73-.09,4.42,4.42,0,0,0,1.5.94,10,10,0,0,0,1.35.38l2.11.47a12.76,12.76,0,0,0,1.62.28,11.68,11.68,0,0,0,2-.07l3.24-.3C104.74,109.47,104.7,109.59,104.67,109.7Z"/><path class="cls-11" d="M111.18,112.83a4.08,4.08,0,0,1-1.33-.3,2.89,2.89,0,0,1-1.52-1.2,8.51,8.51,0,0,1,0-.88,4.62,4.62,0,0,1,.36-1.27,1.56,1.56,0,0,1,.57.1,3,3,0,0,1,1.49,1.92A7,7,0,0,1,111.18,112.83Z"/><path class="cls-2" d="M120.92,143.87c0-.21,0-.42,0-.62"/><path class="cls-2" d="M111.1,106.9c0,.06,0,.12,0,.18Z"/><path class="cls-12" d="M113.26,111.89a2,2,0,0,1-.76.66.84.84,0,0,1-.14.06,2.23,2.23,0,0,1-.68.2,2.75,2.75,0,0,1-.5,0,7,7,0,0,0-.39-1.63,3,3,0,0,0-1.49-1.92,1.56,1.56,0,0,0-.57-.1,8,8,0,0,1,2.14-2.19,4.44,4.44,0,0,1,2.56,1.49l0,0a1.34,1.34,0,0,1,.07.18,2.74,2.74,0,0,1,.11.57c0,.09,0,.18,0,.26A3.86,3.86,0,0,1,113.26,111.89Z"/><path class="cls-13" d="M113.63,109.27a2.74,2.74,0,0,0-.11-.57A2.21,2.21,0,0,1,113.63,109.27Z"/><path class="cls-14" d="M131.64,101.74l0,.29a19.28,19.28,0,0,1-5.5,4.82,55.76,55.76,0,0,1-13.69,6.31l-.06-.55a2.05,2.05,0,0,0,.9-.72,3.86,3.86,0,0,0,.39-2.36c0-.08,0-.17,0-.26a2.21,2.21,0,0,0-.11-.57,1.34,1.34,0,0,0-.07-.18l0,0a2.06,2.06,0,0,0-1.21-1.15,83.13,83.13,0,0,0,12.52-6.26c1.59-1,3.14-2,4.66-3.13a4.46,4.46,0,0,0-.05.63,3.56,3.56,0,0,0,.22,1.16A3.48,3.48,0,0,0,131.64,101.74Z"/><path class="cls-1" d="M113.63,109.27a2.74,2.74,0,0,0-.11-.57A2.21,2.21,0,0,1,113.63,109.27Z"/><path class="cls-11" d="M113.55,126.27a33.87,33.87,0,0,1-1.06,7.37c-.1.37-.2.74-.31,1.11s-.24.79-.37,1.18c-1.1,3.27-4.78,8.86-4.78,8.86l-2.87-2.52a21.1,21.1,0,0,0,3.68-6.24l0-.08.27-.77c.08-.25.16-.5.23-.76.19-.66.35-1.32.48-2a45.06,45.06,0,0,0,.4-10.65C110.69,123.26,112.18,124.72,113.55,126.27Z"/><path class="cls-2" d="M88.44,131.35c-.32.33-.64.65-1,1A8,8,0,0,1,88.44,131.35Z"/><path class="cls-3" d="M80.42,165.3c0,.1-.07.19-.1.29-.46.08-.93.14-1.38.26a17.76,17.76,0,0,0-2.38.93,35.36,35.36,0,0,1-7.18,1.91l-2.56.49a2.18,2.18,0,0,1-.88,0,1.15,1.15,0,0,1-.43-.21c.52-.17,1-1.47,1.42-2a21,21,0,0,1,9.66-7l.21-.06c.49.59,1.07,1.14,1.51,1.76a13,13,0,0,1,1,1.66C79.62,164,80,164.67,80.42,165.3Z"/><path class="cls-4" d="M108.85,132.43c-.13.67-.29,1.33-.48,2-.07.26-.15.51-.23.76l-.27.77a60.57,60.57,0,0,1-24.19,3.65,4.05,4.05,0,0,0-.12.5,8,8,0,0,0,.19,3c1.29,6.34,3.7,13,7.87,17.91a2.57,2.57,0,0,1-.6-.9,7.34,7.34,0,0,0-2.6-1.35c-3.52-1.06-8,0-11.62,1.23l-.21.06a21,21,0,0,0-9.66,7c-.39.52-.9,1.82-1.42,2-.19.06-.38,0-.57-.35-.58-1-.55-3-.77-4.18-.53-2.79-1.1-5.58-1.75-8.34A82.7,82.7,0,0,0,57,140.08c-.9-1.94-1.92-3.83-2.63-5.86a42.26,42.26,0,0,1-1.58-7c-.33-2-.48-4.44,1.16-5.58a6.93,6.93,0,0,1,2.17-.81,3.1,3.1,0,0,0,1.92-1.22c.39-.67-.5-1.93-.6-1.93-.35,0,9.13-1,13.49-2.6a40.29,40.29,0,0,1,5.88-2,27,27,0,0,1,5.76-.26l10.25.28a7.22,7.22,0,0,0,.26,1.52,18.82,18.82,0,0,1-4.68,16.7,8,8,0,0,0-1,1c.34-.3.66-.62,1-1A12.33,12.33,0,0,1,97.67,129c3.7.42,7.16,1.94,10.66,3.22Z"/><path class="cls-6" d="M85,139.62a9.61,9.61,0,0,1-1.78.08,12.86,12.86,0,0,1-1.75-.21q-1.76-.26-3.48-.66v0c1.17.13,2.34.25,3.51.34.58,0,1.17.05,1.75.13a15.17,15.17,0,0,1,1.74.32Z"/><path class="cls-2" d="M107.94,135.92l-.07,0"/><path class="cls-3" d="M91.92,161c.59.46-.31.74-.68.88a9.25,9.25,0,0,1-1.16.26,3,3,0,0,0-.45.18,16.61,16.61,0,0,1-1.21-3.56,7.34,7.34,0,0,1,2.6,1.35h0C91.18,160.19,91.76,160.82,91.92,161Z"/><path class="cls-2" d="M80.58,165.55a27.25,27.25,0,0,0,1.79,2.37l-.37,0"/><path class="cls-9" d="M95.24,173.87a5.21,5.21,0,0,1-3.65,2.32c-4.08.93-8.43,0-12.46,1.15-2.74.78-5.14,2.43-7.8,3.44s-5.94,1.25-8.1-.61c0-.83,1-1.16,1.81-1.39,2.36-.69,4.16-2.54,5.92-4.27a19.54,19.54,0,0,1,6.13-3.86,14.36,14.36,0,0,0,3.23-5.06,15.81,15.81,0,0,0-1-2.23,13,13,0,0,0-1-1.66c-.44-.62-1-1.17-1.51-1.76,3.59-1.24,8.1-2.29,11.62-1.23a16.61,16.61,0,0,0,1.21,3.56,16.42,16.42,0,0,0,2.2,3.51c1.25,1.53,2.79,2.9,3.48,4.76A4.19,4.19,0,0,1,95.24,173.87Z"/><path class="cls-2" d="M107.84,136l-.34.12"/><path class="cls-3" d="M119.3,135.45c-2.29-.51-4.57-1.11-6.81-1.81a33.87,33.87,0,0,0,1.06-7.37c.46.52.9,1,1.33,1.58a29.92,29.92,0,0,1,2.07,2.94,27.39,27.39,0,0,1,2.31,4.55A.49.49,0,0,0,119.3,135.45Z"/><path class="cls-3" d="M120.34,138.9c-2.84-1-5.69-2-8.53-3,.13-.39.26-.79.37-1.18s.21-.74.31-1.11c2.24.7,4.52,1.3,6.81,1.81A24.46,24.46,0,0,1,120.34,138.9Z"/><path class="cls-2" d="M173.59,161.45c4.59.79,8.06,4.39,11.94,7"/><path class="cls-2" d="M221,190l0,.15"/><path class="cls-3" d="M232.7,165.14l-1.88-.88a26.24,26.24,0,0,1-3.8-2.06h0a8,8,0,0,1,3-.78,2.36,2.36,0,0,1,1.31.48,2.87,2.87,0,0,1,.53.45A4.29,4.29,0,0,1,232.7,165.14Z"/><path class="cls-7" d="M116.25,39.73c-2.73-2.74-3.14-2.7-4.48-3.15"/><path class="cls-6" d="M116.23,39.75a8.66,8.66,0,0,1-1.13-.83c-.35-.29-.66-.64-1-1a6.55,6.55,0,0,0-1.09-.81,8.93,8.93,0,0,0-1.26-.56l0,0a8.52,8.52,0,0,1,1.34.4,5.9,5.9,0,0,1,1.21.73,7.23,7.23,0,0,1,1.08.91,6.23,6.23,0,0,1,.85,1.12Z"/><path class="cls-3" d="M230.26,175.24c-2.23,5.67-4.93,11.33-9.31,15.53A4.74,4.74,0,0,0,221,190h0a1.82,1.82,0,0,0,0-.87,35.12,35.12,0,0,0-1.64-5.2,19.32,19.32,0,0,1-.48-7.23,29.78,29.78,0,0,1,.59-3.88A103.15,103.15,0,0,1,230.26,175.24Z"/><path class="cls-2" d="M221,189.14a8.46,8.46,0,0,1,0,.87"/><path class="cls-9" d="M248.5,176.64c-.59,1.92-1.65,3.65-2.41,5.51-1.45,3.61-1.76,7.8-4.2,10.83-.7.87-1.75,1.67-2.83,1.39a2.42,2.42,0,0,1-1.58-1.75,8,8,0,0,1-.12-2.45,61.44,61.44,0,0,0-.73-12.93c-2.1-.74-4.23-1.4-6.37-2a103.15,103.15,0,0,0-10.83-2.41,19.63,19.63,0,0,1,1.58-4.55,12.81,12.81,0,0,1,6-6.08,26.24,26.24,0,0,0,3.8,2.06l1.88.88,2.3,1.08a23,23,0,0,0,4.05,1.58c1.56.4,3.18.45,4.75.78a6.83,6.83,0,0,1,4.14,2.29A6.56,6.56,0,0,1,248.5,176.64Z"/><path class="cls-2" d="M236.63,177.24c-.26-1.55-.57-3.08-.94-4.6"/><line class="cls-15" x1="231.35" y1="161.86" x2="231.34" y2="161.86"/><path class="cls-3" d="M108.85,132.43l-.52-.18c-3.5-1.28-7-2.8-10.66-3.22a12.33,12.33,0,0,0-9.23,2.32,18.82,18.82,0,0,0,4.68-16.7,7.22,7.22,0,0,1-.26-1.52,2.26,2.26,0,0,1,0-.45,2,2,0,0,1,.59-1.21,2.93,2.93,0,0,0,.21,1.23c3.24,1.23,6.72,2.48,10.1,1.69.11,0,.24-.09.33,0a0,0,0,0,1,0,0h.35a9.89,9.89,0,0,0,1,2.73,17.08,17.08,0,0,0,2.85,3.66l1,1A45.06,45.06,0,0,1,108.85,132.43Z"/><path class="cls-3" d="M231.34,161.86l0,0a2.36,2.36,0,0,0-1.31-.48,8,8,0,0,0-3,.78h0a12.81,12.81,0,0,0-6,6.08,19.63,19.63,0,0,0-1.58,4.55,29.78,29.78,0,0,0-.59,3.88,19.32,19.32,0,0,0,.48,7.23,35.12,35.12,0,0,1,1.64,5.2,5,5,0,0,0-1.73-2.16,89.91,89.91,0,0,0-22.74-13.38c-3.38-1.36-6.87-2.53-10-4.46-.33-.21-.66-.42-1-.65h0a83.69,83.69,0,0,1-21-7.45c-6.77-3.47-13.05-7.85-19.71-11.52a145.25,145.25,0,0,0-19.63-8.84l-1.35-4.5a69.05,69.05,0,0,0,9,1h0A19,19,0,0,1,143.62,139c3.71,1.66,7.09,4,10.69,5.9s7.56,3.41,11.62,3.2a22.58,22.58,0,0,1-5.88-3.67,41.08,41.08,0,0,1-5.31-5.56c-1.49-1.84-2.9-3.75-4.3-5.66s-2.94-4-4.4-6c-1.64-2.23-3.29-4.46-4.86-6.73q-3.17-4.56-6-9.33a12.22,12.22,0,0,1-1.52-4.26c-.42-2.72,2.77-3.43,2.77-3.43l.45.06c4.06.75,7,4.26,9.73,7.35a86.3,86.3,0,0,0,19.59,16.3c3.37,2,6.88,3.86,10.15,6.07,1.18.8,2.33,1.64,3.44,2.52h0l21.83,11.4a170.48,170.48,0,0,0,19.46,9.13,45.43,45.43,0,0,1,6.49,2.68A13.38,13.38,0,0,1,231.34,161.86Z"/><path class="cls-4" d="M165.93,148.1c-4.06.21-8-1.29-11.62-3.2s-7-4.24-10.69-5.9a19,19,0,0,0-10.81-1.81h0a67.12,67.12,0,0,1-9-.87,18.86,18.86,0,0,0-.87-2.38,31.57,31.57,0,0,0-2.36-4.16,2.77,2.77,0,0,1-.21-.31c-1-2.31-4.41-5.88-5.41-7l-.09-.1c-.56-.62-1.11-1.25-1.65-1.88l-.15-1.3q-.34-3-.7-6l.24-.08a55.73,55.73,0,0,0,13.45-6.23,19.28,19.28,0,0,0,5.5-4.82c.06-.08,1.33.76,2.31,1a19.74,19.74,0,0,0,2.54.4s-3.19.71-2.77,3.43a12.22,12.22,0,0,0,1.52,4.26q2.81,4.77,6,9.33c1.57,2.27,3.22,4.5,4.86,6.73,1.46,2,2.93,4,4.4,6s2.81,3.82,4.3,5.66a41.08,41.08,0,0,0,5.31,5.56A22.58,22.58,0,0,0,165.93,148.1Z"/><path class="cls-11" d="M125.24,147.51a23.12,23.12,0,0,0-1,3.52c-1.59-.49-3.41-1.93-5.06-1.22,3.68-6.24.79-15.76-4.29-22-3.28-4.59-9.11-7.71-10.42-13.5-1.1-4.91,2.12-10,6.41-7.36-8.37,6.53,5.83,15.21,9.55,22.48C123.45,135.36,125.76,141.31,125.24,147.51Z"/><path class="cls-2" d="M131.61,102v.15"/><path class="cls-14" d="M113.27,120.46a31.51,31.51,0,0,1-3.46-4.69,9.61,9.61,0,0,1-1.48-4.44,2.89,2.89,0,0,0,1.52,1.2,4.08,4.08,0,0,0,1.33.3,2.75,2.75,0,0,0,.5,0,2.23,2.23,0,0,0,.68-.2.84.84,0,0,0,.14-.06l.16.53-.24.08q.36,3,.7,6Z"/><path class="cls-2" d="M193.34,147.38c-2.33-2-5.34-3.76-7.67-5.8-2.14-1.87-3.59-4.05-5.82-5.8"/><path class="cls-9" d="M22.88,39.93a1,1,0,0,1-.41.18,2.55,2.55,0,0,1-1-.08h-.07c-.35-.07.07,0,.07,0a9.61,9.61,0,0,0-2.87.6l-.54.36a.76.76,0,0,1,0-.21,1.73,1.73,0,0,1,0-.32,4.87,4.87,0,0,1,.52-1.25c.18-.34.85-.74.85-.77a14.23,14.23,0,0,1,1.71,0l.16,0,.15,0c.31,0,.61.11.92.19a1.13,1.13,0,0,1,.71.38s0,0,0,0a.87.87,0,0,1,.05.22h0a.22.22,0,0,1,0,.08h0A1.09,1.09,0,0,1,22.88,39.93Z"/><g id="Stick"><path id="Stick-2" data-name="Stick" class="cls-16" d="M80.87,1c0,.83-28.9,20.54-51.5,35.83a6.65,6.65,0,0,1-.84-.92,2.14,2.14,0,0,0-.62-.65,2.19,2.19,0,0,0-1-.18l-.25,0C49.75,19.72,79.52.07,79.52.07S80.87-.38,80.87,1Z"/><path class="cls-17" d="M18.61,40.63c.94-.19,1.94-.45,2.87-.6a2.55,2.55,0,0,0,1,.08,5.45,5.45,0,0,0,.85-.6c.4,0,.32.51.61.66l0,0,.16.15.31.31c-1.56,1.05-3.18,2.12-4.8,3.2-8.36,5.51-17.35,11-17.35,11C-.42,55.73,0,53,0,53s8-5.34,18-12Z"/></g><path class="cls-9" d="M24.42,40.65h0l.41.4a1.58,1.58,0,0,0,.68.47.85.85,0,0,0,.93-.36.86.86,0,0,0-.08-1l.15-.17.17.19c.44.45.89-.45.89-.9a2.11,2.11,0,0,0-.49-.82.44.44,0,0,0,.51-.26.61.61,0,0,0,0-.24.79.79,0,0,0-.13-.41,2.19,2.19,0,0,0-.49-.47l-1.56-1.22-.32-.26a13.22,13.22,0,0,0-2-.38,1.45,1.45,0,0,1-.33-1.56A8.21,8.21,0,0,0,26.7,35l.25,0a2.19,2.19,0,0,1,1,.18,2.14,2.14,0,0,1,.62.65,6.65,6.65,0,0,0,.84.92,4.7,4.7,0,0,0,.65.53,3,3,0,0,1,.66.56,2.54,2.54,0,0,1,.38,1c.26,1.12.53,2.25.79,3.39A10.4,10.4,0,0,1,33.63,44l.14.16,1,1.12a6.18,6.18,0,0,0,1.1,1.07,8.77,8.77,0,0,1-.14,2,18.09,18.09,0,0,1-1.89,4.94l0,.07A34.19,34.19,0,0,1,29.39,50c-.36-.32-.71-.65-1.05-1a2.27,2.27,0,0,1-.58-.76c-.07-.14-.11-.32-.17-.47a5.79,5.79,0,0,1-2.44-.31,11.88,11.88,0,0,1-1.64-.81l-2.23-1.25a3.34,3.34,0,0,1-1-.7c-.09-.12-.48-.53-.81-1"/><path class="cls-2" d="M23.2,39.41a0,0,0,0,1,0,0"/><path class="cls-9" d="M27.63,38a2.13,2.13,0,0,1,0,.25.47.47,0,0,1-.51.26l0,0L27,38.38a11.12,11.12,0,0,0-2.23-2.08c-.14-.07-.24-.14-.35-.18a1,1,0,0,1-.24-.07h-.14a.18.18,0,0,1-.1,0c-.3,0-.68-.05-1.06-.05h-.79c-.68,0-1.23,0-1.22,0-.07-.35.32-.7.67-.72s1-.07,1.53-.05a13,13,0,0,1,2,.38c.13.09.23.18.33.26.53.4,1.05.82,1.55,1.22a1.83,1.83,0,0,1,.49.47A.72.72,0,0,1,27.63,38Z"/><path class="cls-5" d="M26.45,41.16a.91.91,0,0,1-.94.36,1.71,1.71,0,0,1-.68-.47,5,5,0,0,1-.4-.4s-.49-.46-.49-.48c-.26-.24-.5-.49-.75-.73a.32.32,0,0,0,0-.09h0a.48.48,0,0,0-.05-.23s0,0,0,0a1,1,0,0,0-.71-.39c-.3-.08-.61-.14-.9-.19a.47.47,0,0,0-.16,0h-.16a8.34,8.34,0,0,0-1.67-.09A2,2,0,0,1,19.83,37a23,23,0,0,1,3.48.26,3,3,0,0,1,.68.19,7.71,7.71,0,0,1,1.83,1.72c.28.31.52.6.68.8A2.78,2.78,0,0,1,26.45,41.16Z"/><path class="cls-6" d="M123,73.09a10.81,10.81,0,0,0-.22,2c0,.69-.07,1.38-.17,2.08a14.92,14.92,0,0,0-.33,2,4.3,4.3,0,0,0,.44,2l0,0a4.24,4.24,0,0,1-.66-2,14.15,14.15,0,0,1,.17-2.09c0-.68.08-1.38.19-2.07a5.38,5.38,0,0,1,.58-2Z"/></g></g></g></svg>