<svg xmlns="http://www.w3.org/2000/svg" viewBox="0 0 105.5 137.5"><defs><style>.cls-1{fill:#1a1a1a;}.cls-2,.cls-3,.cls-4,.cls-5{fill:#111;}.cls-10,.cls-11,.cls-13,.cls-16,.cls-2,.cls-3,.cls-4,.cls-6,.cls-7,.cls-8{stroke:#1a1a1a;}.cls-11,.cls-12,.cls-13,.cls-14,.cls-15,.cls-16,.cls-2,.cls-7{stroke-linejoin:round;}.cls-10,.cls-11,.cls-12,.cls-13,.cls-14,.cls-15,.cls-16,.cls-2,.cls-3,.cls-6,.cls-7,.cls-8{stroke-width:0.5px;}.cls-10,.cls-3,.cls-4,.cls-6,.cls-8{stroke-miterlimit:10;}.cls-4{stroke-width:0.5px;}.cls-11,.cls-15,.cls-6{fill:none;}.cls-13,.cls-14,.cls-8,.cls-9{fill:#fff;}.cls-10,.cls-12,.cls-16{fill:#b7b6b6;}.cls-12,.cls-14,.cls-15{stroke:#231f20;}</style></defs><g id="Layer_2" data-name="Layer 2"><g id="Layer_1-2" data-name="Layer 1"><g id="NInja_2" data-name="NInja 2"><path class="cls-1" d="M87.38,45.6a1.38,1.38,0,0,1,.47.49,4.25,4.25,0,0,1,.31.6A5.07,5.07,0,0,1,88.47,48v0a.28.28,0,0,1,0,.16,7.62,7.62,0,0,1-1.07,1,7.29,7.29,0,0,1,.7-1.26l0,.18-.29-1.23A6,6,0,0,0,87.38,45.6Z"/><path class="cls-2" d="M105.25,49.35s-.74.7-1.79,1.63l-.4.36c-.1,1.85-.41,4.7-1.42,5.16a54,54,0,0,1-5.37,1.71l-.31.47-.13.21a28.4,28.4,0,0,1-7.38,1.6l-.51,0c.6-.77,1.54-2.06,2.59-3.69.5-.74,1-1.57,1.51-2.44l.26-.44a9.84,9.84,0,0,0,1.11-4.2,2.81,2.81,0,0,0,0-.29,25,25,0,0,0-.59-6.26,10.56,10.56,0,0,1,2.16.12c3.63.58,6,1.06,6.68,1.19l.17,0,3,3,.28.28Z"/><path class="cls-1" d="M103.06,51.34a16.18,16.18,0,0,1-2.35,2.33,14.27,14.27,0,0,1-1.34,1,6,6,0,0,1-1.5.74c.87-.69,1.68-1.41,2.53-2.1A25.88,25.88,0,0,1,103.06,51.34Z"/><path class="cls-3" d="M95.83,58.89A4.93,4.93,0,0,0,95,60.64c0,.06-.24.18-.7.33-1.13.36-3.48.92-6,1.4-1.1.2-2.21.4-3.28.55-.35-1.41-.87-3.53-1-4.18l.13-.05h0a7.09,7.09,0,0,0,3.75,1.78,4.12,4.12,0,0,0,.51,0A28.4,28.4,0,0,0,95.83,58.89Z"/><path class="cls-3" d="M90.53,56.77c-1,1.63-2,2.92-2.59,3.69a7.09,7.09,0,0,1-3.75-1.78h0C85.84,58.09,88.92,57.22,90.53,56.77Z"/><path class="cls-4" d="M92,54.33c-.5.87-1,1.7-1.51,2.44-1.61.45-4.69,1.32-6.35,1.9l-.24-.22a14.8,14.8,0,0,1-.48-2.39c.09-.21.25-1.69.32-2.22,0-.07,0-.13,0-.16a17.35,17.35,0,0,0,.38-2.39.22.22,0,0,1,0-.1h0l.13-.1a.69.69,0,0,1,0-.13l.23-.5.19-.38h0c.26-.46.57-1,.91-1.53a1.34,1.34,0,0,0,.44.36c.61.29.8-.11,1.25.23h0a1.53,1.53,0,0,1,.16.13c.58.57,1.2,2.7,1.57,3A12.51,12.51,0,0,0,92,54.33Z"/><path class="cls-3" d="M84.63,50.31l-.3.64a.06.06,0,0,1,0,0h0C84.4,50.73,84.5,50.54,84.63,50.31Z"/><path class="cls-5" d="M91.43,58.55a17.08,17.08,0,0,0,4.52.13"/><path class="cls-1" d="M91.43,58.55l2.25,0a12.46,12.46,0,0,1,2.27.17,7.61,7.61,0,0,1-2.27.33A5,5,0,0,1,91.43,58.55Z"/><path class="cls-6" d="M84.32,50.91a1.15,1.15,0,0,0-.1.27"/><path class="cls-5" d="M85,55.58a9.4,9.4,0,0,1-.35-1.79c-.11-.86-.21-1.85-.27-2.71"/><path class="cls-1" d="M85,55.58a3.62,3.62,0,0,1-.44-1.08,7.23,7.23,0,0,1-.2-1.13,9.24,9.24,0,0,1,0-2.29,9.24,9.24,0,0,1,.47,2.23c0,.38.08.75.09,1.13S84.94,55.19,85,55.58Z"/><path class="cls-5" d="M81.9,59.86a19.47,19.47,0,0,0,.17-2"/><path class="cls-1" d="M81.88,59.85a8.8,8.8,0,0,1-.09-1,1.2,1.2,0,0,1,0-.5,1.27,1.27,0,0,1,.27-.49h0a1.16,1.16,0,0,1,.18.51,1.32,1.32,0,0,1-.1.51c-.07.33-.15.66-.25,1Z"/><path class="cls-2" d="M104.88,47.46a1.93,1.93,0,0,0-.09-1.48,7.79,7.79,0,0,1-.36-1.17l0-.11c-1.46-1.18-5.78-4.62-7.08-5-1.58-.42-9.61,3.7-9.61,3.7V44.5"/><path class="cls-7" d="M87,46.3a1.4,1.4,0,0,1-.1.31l-1,1.64Z"/><path class="cls-7" d="M88.08,44.35,87,46.3c.08-.36.15-.88.15-.88l.6-.91.05-.07h.12Z"/><path class="cls-1" d="M101.66,44.45a9.27,9.27,0,0,1-2.24-.89,8.34,8.34,0,0,1-1-.63,3.09,3.09,0,0,1-.89-.84c.35.2.72.33,1.08.51s.72.34,1.07.52A12.06,12.06,0,0,1,101.66,44.45Z"/><path class="cls-6" d="M84.18,58.67l-.17.06"/><path class="cls-6" d="M82,57.82l-.15.13"/><path class="cls-5" d="M89.66,48.8s2.19.83,2.4.93a4.19,4.19,0,0,1,.68.94"/><path class="cls-1" d="M89.66,48.8a6.36,6.36,0,0,1,1.84.45l.44.18.21.1a.58.58,0,0,1,.22.23,2.77,2.77,0,0,1,.37.91c-.25-.22-.45-.46-.66-.66,0,0-.12-.09-.13-.08l-.22-.07-.44-.16A6.53,6.53,0,0,1,89.66,48.8Z"/><path class="cls-5" d="M89.29,50a2.49,2.49,0,0,1,2.14,1"/><path class="cls-1" d="M89.29,50a.9.9,0,0,1,.69-.28,1.18,1.18,0,0,1,.65.28,2,2,0,0,1,.83,1.05l-.06,0a2.36,2.36,0,0,0-1-.54,1.85,1.85,0,0,1-.54-.1,2,2,0,0,1-.55-.38Z"/><path class="cls-5" d="M89,50.2a12.37,12.37,0,0,0,1.77,1.56"/><path class="cls-1" d="M89,50.2a3.4,3.4,0,0,1,1,.64,4.62,4.62,0,0,1,.75.92,1.38,1.38,0,0,1-.6-.2,2.43,2.43,0,0,1-.49-.35A2.48,2.48,0,0,1,89,50.2Z"/><path class="cls-3" d="M87.81,48.36l-.34-.43a2.61,2.61,0,0,0-.19-.89,1.39,1.39,0,0,0-.42-.43"/><line class="cls-6" x1="87.58" y1="48.02" x2="86.71" y2="47.59"/><path class="cls-3" d="M94.5,64.5A32.07,32.07,0,0,1,82,68.21c-7.35.69-19.94-3.63-23.65-5,.29-1.48.61-3,.92-4.35,1.58.88,6.66,2.25,12.1,3.23,2.2.4,4.45.73,6.56.94.69.07,1.35.13,2,.17l1,.05A25.65,25.65,0,0,0,85,62.92c1.07-.15,2.18-.35,3.28-.55,2.49-.48,4.84-1,6-1.4A9,9,0,0,0,94.5,64.5Z"/><path class="cls-3" d="M93.39,73c-1.19,2.37-5.68,5.83-5.59,6.47.07.44-3.63-1.38-6-2.56l0,0c-.87-.44-1.54-.79-1.74-.91h0c-1.57.24-3.26.54-4.47.76-1,.17-1.64.3-1.71.3a7.22,7.22,0,0,1-.76-.19l-2.44-.68h0l-1.17.55h0c-1.66.79-3.21,1.58-3.46,1.65-1,.27-7.14-.82-8-1.19a1.06,1.06,0,0,0-.52,0,2.17,2.17,0,0,0,.4-1.21,4.13,4.13,0,0,0-.66-1.6,1.35,1.35,0,0,1-.14-.58,27.49,27.49,0,0,1,.13-3.88,64.74,64.74,0,0,1,1-6.69C62,64.58,74.6,68.9,82,68.21A32.07,32.07,0,0,0,94.5,64.5a2.55,2.55,0,0,0,.35.7C95.86,66.57,94.58,70.67,93.39,73Z"/><path class="cls-6" d="M80,76,80,76"/><path class="cls-6" d="M94.31,60.82s0,0,0,.15"/><path class="cls-6" d="M78.68,80.11l-.05,0"/><path class="cls-6" d="M81.83,77l-.15.15"/><path class="cls-6" d="M78.05,80.54c-.12.13-.24.24-.33.36"/><path class="cls-3" d="M73.93,81.64c-1.3,0-4.55-.73-4.79-1.12a15.39,15.39,0,0,1,.35-3.75h0l1.17-.55h0l2.44.68c-.12.12-.52.19-.52.57a7.69,7.69,0,0,0,.27,1.12c0,.25-.17.46-.2.93a1.93,1.93,0,0,0,.87,1.4C73.94,81.23,74,81.15,73.93,81.64Z"/><path class="cls-3" d="M85,62.92a25.65,25.65,0,0,1-4.17.35l-1-.05A10.55,10.55,0,0,0,80.14,61c0-.34,0-.62,0-.81,0-.54,1.3-1.81,1.76-2.23a3.08,3.08,0,0,1,.06-.77,17.12,17.12,0,0,0,0-2.72c0-.39.92-.55,1.79-.62-.07.53-.23,2-.32,2.22a14.8,14.8,0,0,0,.48,2.39c0,.1,0,.19.07.28h0C84.17,59.39,84.69,61.51,85,62.92Z"/><path class="cls-5" d="M71,76.25c-.33-.09-.2-.09-.55-.19,1.39.22-4.62-1.29-5.45-1.48"/><path class="cls-1" d="M71,76.25a5.3,5.3,0,0,1-.59,0l.07-.29h.15s0,0,0,0l0,0a.18.18,0,0,0-.06.14c0,.07,0,.08,0,.08s0,0,0,0h0l-.09,0-.36-.08-.74-.17c-.49-.12-1-.24-1.47-.38a25,25,0,0,1-2.88-1,20,20,0,0,1,3,.5q.75.18,1.47.39c.24.08.49.15.73.24l.36.14.1,0,0,0a.17.17,0,0,1,.08.06.17.17,0,0,1,0,.09.15.15,0,0,1-.06.14s0,0-.06,0h-.05c-.11,0-.15,0-.22,0l.06-.29A3,3,0,0,1,71,76.25Z"/><path class="cls-5" d="M89.6,69.5c-.37,0-5.32,6.25-5.32,6.25a14.7,14.7,0,0,0-4.23.26"/><path class="cls-1" d="M89.6,69.5a13.29,13.29,0,0,0-1.31,1.57L87,72.69c-.84,1.08-1.7,2.14-2.57,3.2l-.1.12L84.2,76a3.6,3.6,0,0,0-1-.09c-.35,0-.7,0-1,0L80.05,76a19,19,0,0,1,2.1-.41c.35,0,.71-.1,1.07-.12a3.37,3.37,0,0,1,1.13,0l-.25.07c.83-1.09,1.69-2.16,2.59-3.19.44-.53.91-1,1.38-1.53a10.18,10.18,0,0,1,.73-.74A3.52,3.52,0,0,1,89.6,69.5Z"/><path class="cls-8" d="M79.57,82c0,.25-1.76,2.07-2.31,1.94A3.51,3.51,0,0,1,76,83a4.12,4.12,0,0,0,2.17-1c.74-.66.22-1-.19-1.1l0-.07a.62.62,0,0,1,0-.09h.1a2.9,2.9,0,0,1,.34-.47.19.19,0,0,1,.06-.07l.09-.1s0,0,.05,0l0,0c.12-.09.23-.15.33-.12s.1,1.28.29,1.38S79.57,81.76,79.57,82Z"/><path class="cls-3" d="M81.79,76.92l-.11.2c-.83.8-2.64,2.37-3.63,3.42a2.38,2.38,0,0,0-.15-1.09s-.05,0-.11,0v-.08s.11-1.07-.22-1.19c0,0,.38,0,.41-.15s-.19-1-.19-1a5,5,0,0,0-1.34,0,2.35,2.35,0,0,1-.89-.23c1.21-.22,2.9-.52,4.47-.76h0C80.25,76.13,80.92,76.48,81.79,76.92Z"/><path class="cls-8" d="M78.2,82.05A4.12,4.12,0,0,1,76,83a4,4,0,0,1-2.15-.13c-.19-.19,0-.64.05-1.18v0c0-.49,0-.41-.41-.74a1.93,1.93,0,0,1-.87-1.4c0-.47.23-.68.2-.93a7.69,7.69,0,0,1-.27-1.12c0-.38.4-.45.52-.57a7.22,7.22,0,0,0,.76.19c.07,0,.73-.13,1.71-.3a2.35,2.35,0,0,0,.89.23,5,5,0,0,1,1.34,0c0,.07.21.92.19,1s-.41.15-.41.15c.33.12.22,1.19.22,1.19v.08c.06,0,.09,0,.11,0a2.38,2.38,0,0,1,.15,1.09,1,1,0,0,1,0,.25.62.62,0,0,0,0,.09L78,81C78.42,81.06,78.94,81.39,78.2,82.05Z"/><path class="cls-9" d="M78,81a1.15,1.15,0,0,0-.36,0c-.23,0-1.6.61-1.79.57s-.78-.19-.78-.19"/><path class="cls-1" d="M78,81a2.82,2.82,0,0,1-.34.1,2.84,2.84,0,0,1-.31.18,2.93,2.93,0,0,1-.73.21,2.25,2.25,0,0,1-.82.12l-.72-.28v0l.76.08a2.59,2.59,0,0,0,.64-.24,3.3,3.3,0,0,1,.69-.31,2.55,2.55,0,0,1,.42,0,1,1,0,0,1,.41.19Z"/><path class="cls-9" d="M77.79,79.4c-.32,0-1.27.51-1.71.57a2.48,2.48,0,0,1-1.22-.18"/><path class="cls-1" d="M77.79,79.42a6.38,6.38,0,0,1-.63.43,2.57,2.57,0,0,1-.74.24,1.94,1.94,0,0,1-.83,0,2.46,2.46,0,0,1-.74-.28l0,0a2,2,0,0,0,.73.08,1.5,1.5,0,0,0,.68-.13,3.26,3.26,0,0,1,.68-.32,1.38,1.38,0,0,1,.83,0Z"/><path class="cls-5" d="M77.58,78.13l0,0a7.22,7.22,0,0,0-1.32.21A1.78,1.78,0,0,1,75,78.14"/><path class="cls-1" d="M77.57,78.14a6.19,6.19,0,0,1-.58.28,2.06,2.06,0,0,1-.66.08A1.91,1.91,0,0,1,75,78.16l0,0a2,2,0,0,0,1.22,0,3.45,3.45,0,0,1,.63-.17.92.92,0,0,1,.71.18Z"/><path class="cls-10" d="M57.94,76a2.17,2.17,0,0,1-.4,1.21h0a6.56,6.56,0,0,1-1.38,1.57,6,6,0,0,1-2.39,1.31h0l-.42.08c-3.45.46-8.13.44-12.3.88a32.43,32.43,0,0,0-3.83.59,14.29,14.29,0,0,0-2.94,1A26.73,26.73,0,0,0,28,87.38l-2.17-2.23s4.42-4.55,8.31-6a15.12,15.12,0,0,1,2.84-.7c.9-.16,1.88-.27,2.88-.36,4.4-.4,9.27-.3,11-.66,1-.22,1.73-.27,2.4-.49,1-.32,1.94-1,3.89-3.18a1.35,1.35,0,0,0,.14.58A4.13,4.13,0,0,1,57.94,76Z"/><path class="cls-3" d="M53.76,80.08a3.45,3.45,0,0,1-.59,1.52c-1.23,1.69-6.06,4.91-8,6.09a4.4,4.4,0,0,0-.39.26c-1-1.41-2.82-5-3.78-6.91,4.17-.44,8.85-.42,12.3-.88Z"/><path class="cls-10" d="M55.28,83.24A15.34,15.34,0,0,1,52.21,86h0c-1.76,1.29-3.82,2.57-5.76,4.11a21.75,21.75,0,0,0-3.34,3.17A24.37,24.37,0,0,0,39.41,100l-1.15-.54-1.12-.53a8.27,8.27,0,0,1,1.1-3.47A23.48,23.48,0,0,1,44,88.58l.42-.32.44-.31a4.4,4.4,0,0,1,.39-.26c1.9-1.18,6.73-4.4,8-6.09a3.11,3.11,0,0,0,.59-1.42v-.1a6,6,0,0,0,2.39-1.31A4.8,4.8,0,0,1,55.28,83.24Z"/><path class="cls-6" d="M39.88,78.13a.76.76,0,0,1,0,.15"/><path class="cls-2" d="M51.87,92.45c0,.63-.08,1.35-.22,1.34a4.67,4.67,0,0,0-.78,1.59c-.39,1.09-.79,2.48-1,3.39.09-.7.18-1.67.18-1.67a9.88,9.88,0,0,0-1.3-1.81c-.77-.84-1.29-3.93-1.55-4.38a3.79,3.79,0,0,0-.73-.76c1.94-1.54,4-2.82,5.76-4.11A20.28,20.28,0,0,0,51.87,92.45Z"/><path class="cls-11" d="M49.84,98.77s0,0,0,0a0,0,0,0,0,0,0"/><path class="cls-11" d="M50.89,95.28s0,.06,0,.1"/><path class="cls-2" d="M51.23,107.1c0-.73-1-8.59-.36-11.72-.39,1.09-.79,2.48-1,3.39.09-.7.18-1.67.18-1.67a9.88,9.88,0,0,0-1.3-1.81c-.77-.84-1.29-3.93-1.55-4.38a3.79,3.79,0,0,0-.73-.76,21.75,21.75,0,0,0-3.34,3.17A24.37,24.37,0,0,0,39.41,100l-1.15-.54c-.27,3.1-1,9.69-1.46,10.82-.58,1.39.24,7.31-.33,7.64a5.55,5.55,0,0,0-.9,2.47,22.67,22.67,0,0,1,6.7-.17,5.4,5.4,0,0,1,.74.12,28.74,28.74,0,0,1,6.68,2.92c.57.32.92.54.92.54s-.11-.39-.28-1.13.34-1,.56-2.71.17-1.64.23-1.87a3.7,3.7,0,0,0,0-1.41,9.76,9.76,0,0,1,.39-2.94C51.81,112.3,51.23,107.83,51.23,107.1ZM49.7,99.42a2.81,2.81,0,0,1,.13-.6A2.66,2.66,0,0,1,49.7,99.42Z"/><path class="cls-12" d="M43.6,124.31a61.11,61.11,0,0,1-8.12-3.61l0,0c0-.09,0-.19.07-.29a22.67,22.67,0,0,1,6.7-.17,5.4,5.4,0,0,1,.74.12A28.81,28.81,0,0,1,43.6,124.31Z"/><path class="cls-2" d="M39.68,85.53c.21,1.32-.7,4-1.38,5.68"/><path class="cls-2" d="M44.82,88l-.44.31-.42.32a21.66,21.66,0,0,0-5.69,6.57c-.24-2.28-.65-2.31-.65-2.31s.3-.67.68-1.62h0c-.28-2.25-.86-7.1-1.09-9.58A32.43,32.43,0,0,1,41,81C42,82.93,43.83,86.54,44.82,88Z"/><path class="cls-2" d="M40.21,62.59s-.66-1-1.58-2.44"/><path class="cls-13" d="M16.86,8.43a24.85,24.85,0,0,0-4,4.94c-.69-2.08-2.26-6.28-2.65-6.43s-1.86-.45-3.1-.81a9.4,9.4,0,0,0-2.49-.56c-.72,0-3.67,0-4.26-.8a.6.6,0,0,1,.21-.91c.16,0,.54,0,.6-.11.26-.35-.57-1,.39-1.17.43-.08.49-.14.55-.35s-.29-.71.59-.68c.68,0-.42-.93,1.19-.72.08,0,.38.05.33-.18-.1-.44,0-.47.64-.33A41,41,0,0,1,8.76,1.75c.65.27,1.92.44,2.76.7a5.51,5.51,0,0,1,.94.41,7.45,7.45,0,0,1,2,2.3C14.65,5.47,16,7.33,16.86,8.43Z"/><path class="cls-2" d="M53.83,59.29a11.49,11.49,0,0,0-2.26,1.79c-.71.92-4,5.38-5,6.4s-6.73,7.67-7.25,7.37l-.51-.31a11,11,0,0,1,1,3.59c-1,.09-2,.2-2.88.36h0c-.19-2.72-.69-12.54,1.63-18.33-1.89-3-4.89-8-5.38-10.43-.71-3.54-2.89-5.91-4.16-8.17A27.61,27.61,0,0,0,25.87,38a34.7,34.7,0,0,1-3.41-5c-1-1.42-3.12-4.11-4-5.67-.7-1.27-6.32-5.88-9.31-7.68l0-.11c.87-1.55,2.19-3.94,3.68-6.2a24.85,24.85,0,0,1,4-4.94,7.78,7.78,0,0,1,.86-.65L18,7.55c1.43,2.26,3.95,6.38,4.65,7.08,1,1,8.67,9.76,9.94,11.46,1,1.37,6,8.46,8.34,11.44,1.07.54,1.95,1,2.15,1.12s2,1.85,3.28,3c.15.35.28.63.33.77A8.85,8.85,0,0,1,47,46C46.74,47.12,51.61,56.49,53.83,59.29Z"/><path class="cls-1" d="M40.88,37.53a8.55,8.55,0,0,1-2.29-1,6.63,6.63,0,0,1-1-.71,3.94,3.94,0,0,1-.84-.94c.71.43,1.41.81,2.11,1.22A14.41,14.41,0,0,1,40.88,37.53Z"/><path class="cls-5" d="M26.32,37.17a40.27,40.27,0,0,1-2.11-7.85"/><path class="cls-1" d="M26.3,37.18a13.09,13.09,0,0,1-.87-1.86,16.93,16.93,0,0,1-.55-2,20.35,20.35,0,0,1-.69-4h0a27.87,27.87,0,0,0,1,3.92c.22.64.47,1.27.65,1.93a18.52,18.52,0,0,1,.44,2Z"/><path class="cls-1" d="M50.33,122.64a3.44,3.44,0,0,1-.55-1.1,6.08,6.08,0,0,1-.24-1.2,6.24,6.24,0,0,1,0-1.22,4.83,4.83,0,0,1,.28-1.18c.1.81.12,1.59.19,2.36S50.19,121.84,50.33,122.64Z"/><path class="cls-14" d="M61.15,136.58c-.15.3-1.8.6-2.77.67s-4.49-1.71-6.13-2.08A20.83,20.83,0,0,0,47,135c-.76.07-3.38.07-3.52-1.46-.06-.57.23-4.12.18-7.75,0-.51,0-1-.07-1.5a28.81,28.81,0,0,0-.59-4,28.74,28.74,0,0,1,6.68,2.92c.06,1.81.32,3.85.48,5a16.25,16.25,0,0,0,2.52,2.37,13,13,0,0,1,3.07,2.4c.6.82,3.44,2,4.42,2.35S61.3,136.28,61.15,136.58Z"/><path class="cls-15" d="M50.17,128.23c-1.49-1.57-2.37-2.64-2.3-3.17"/><path class="cls-2" d="M56.67,51.53c-.54,1.62-1.44,4.42-2.19,7.36l-.65.4C51.61,56.49,46.74,47.12,47,46a8.85,8.85,0,0,0-.31-3.56c0-.14-.18-.42-.33-.77-.52-1.15-1.46-3-1.46-3a7.74,7.74,0,0,0,.24-1.48c0-.55,8.57,12.41,8.69,13.15s1.49,0,1.86.24A9.87,9.87,0,0,1,56.67,51.53Z"/><path class="cls-11" d="M72.35,51.43l-2.91-.06"/><path class="cls-3" d="M53.25,77c-.67.22-1.36.27-2.4.49-1.7.36-6.57.26-11,.66a11,11,0,0,0-1-3.59l.51.31c.52.3,6.32-6.35,7.25-7.37s4.26-5.48,5-6.4a11.49,11.49,0,0,1,2.26-1.79,6.06,6.06,0,0,0,.42.49,41.23,41.23,0,0,0-1.08,6A47.7,47.7,0,0,0,53.25,77Z"/><path class="cls-10" d="M60.56,53.05c-.23,1.05-.76,3.25-1.34,5.83-.31,1.38-.63,2.87-.92,4.35a64.74,64.74,0,0,0-1,6.69,27.49,27.49,0,0,0-.13,3.88c-2,2.16-2.9,2.86-3.89,3.18a47.7,47.7,0,0,1-.08-11.21,41.23,41.23,0,0,1,1.08-6c.07-.3.15-.59.23-.89.75-2.94,1.65-5.74,2.19-7.36l.17-.52v0a8,8,0,0,0,2.2,1.63c.59,0,1.44.08,1.61-.2C60.7,52.33,60.66,52.57,60.56,53.05Z"/><path class="cls-2" d="M84.21,51.19a.22.22,0,0,0,0,.1,17.35,17.35,0,0,1-.38,2.39s0,.09,0,.16c-.87.07-1.79.23-1.79.62a17.12,17.12,0,0,1,0,2.72,3.08,3.08,0,0,0-.06.77c-.46.42-1.8,1.69-1.76,2.23,0,.19,0,.47,0,.81a29.53,29.53,0,0,0-2.26,2.06c-2.11-.21-4.36-.54-6.56-.94a42.65,42.65,0,0,1,5.83-5.43C79.89,54.42,82.78,52.25,84.21,51.19Z"/><path class="cls-2" d="M80.14,61a10.55,10.55,0,0,1-.26,2.23c-.65,0-1.31-.1-2-.17A29.53,29.53,0,0,1,80.14,61Z"/><path class="cls-13" d="M44.47,17.47,43,16.84a3.21,3.21,0,0,1-1,.45"/><line class="cls-11" x1="50.23" y1="23.1" x2="49.27" y2="23.32"/><path class="cls-13" d="M42,15.32a13.52,13.52,0,0,1-1.11,1.19,5.58,5.58,0,0,1-.63-.72.66.66,0,0,1-.06-.12c-.1-.32,1.17-.76,1.17-.76Z"/><path class="cls-9" d="M41.1,18.42h0c-.07.41-.23,1.08-.53,1.14-.09,0-.27-.13-.47-.33s-.62-.61-.86-.79a4.17,4.17,0,0,1-.84-.88c-.17-.21-.24-.4-.15-.49a6.35,6.35,0,0,1,1-.56,2.3,2.3,0,0,0,1,1.29c.11.08.42.27.73.49Z"/><path class="cls-1" d="M41.12,18.4v0h0a3.71,3.71,0,0,1-.12.65,1.69,1.69,0,0,1-.13.31.51.51,0,0,1-.28.26h0c-.36-.07-.47-.29-.68-.43l-.56-.48c-.17-.16-.4-.31-.58-.49a3.3,3.3,0,0,1-.53-.58l0,0a1.09,1.09,0,0,1-.19-.27.47.47,0,0,1-.06-.2.34.34,0,0,1,.09-.3h0a5.32,5.32,0,0,1,1-.63.26.26,0,0,1,.34.11l0,0h0a2.33,2.33,0,0,0,.61,1c.15.14.34.29.51.43S41,18.22,41.12,18.4Zm0,0-.62-.29a4.76,4.76,0,0,1-.61-.35,2.32,2.32,0,0,1-.86-1.2l.36.16a9.5,9.5,0,0,0-1,.49h0a.16.16,0,0,0,0-.05s0,0,0,.07a.62.62,0,0,0,.11.19h0A4.42,4.42,0,0,0,39,18c.16.18.35.31.53.5l.53.53a2.06,2.06,0,0,0,.5.44h0c.15,0,.27-.25.34-.44a3.38,3.38,0,0,0,.18-.62h0Z"/><path class="cls-13" d="M40.1,19.24a1.45,1.45,0,0,1-.74.69c-.24.07-.42-.36-.71-.64s-.74-.39-1-.63a.7.7,0,0,1-.14-.17c-.13-.24.56-.7.91-.92a4.17,4.17,0,0,0,.84.88C39.48,18.63,39.82,19,40.1,19.24Z"/><path class="cls-2" d="M77.15,56.68a42.65,42.65,0,0,0-5.83,5.43c-5.44-1-10.52-2.35-12.1-3.23.58-2.58,1.11-4.78,1.34-5.83A23.39,23.39,0,0,1,63,52.47c.37,0,2.1-1.17,2.35-1.17h1.29l2.82.07h0c.92.83,5.08,2.37,5.08,2.37Z"/><path class="cls-5" d="M77,56.84,74.37,54c-.53-.2-4.19-1.58-5.09-2.39h0a.65.65,0,0,1-.24-.38h-.2a5,5,0,0,0-.6.05c-.31,0-.66.06-1,.06a2.74,2.74,0,0,1-2.29-.92,21.1,21.1,0,0,0-5-4.14h0c-.33,0-.7-.4-2-2-1-1.21-2.42-2.85-3.1-3.13s-1.35-1.39-2.27-2.81c-1.06-1.66-2.39-3.72-3.49-4a7.53,7.53,0,0,1-2.67-2.16c-.75-.79-1.6-1.69-2-1.69l-.32.05-.18-.46a16.5,16.5,0,0,0,3.58-2.8,11.06,11.06,0,0,0,2.36-3.51c.09-.24.18-.49.26-.75l.08-.11.19-.12,1.07-.15.22.07c3.79,3.94,11.29,11.56,12.54,12.21a9.2,9.2,0,0,1,2,1.75,8.43,8.43,0,0,0,3,2.3,7.74,7.74,0,0,0,2.45.51,1.6,1.6,0,0,0,.42,0l.25,0s4.63,4.13,6.47,5a4.16,4.16,0,0,0,.61.23v0l.19-.09c.13,0,.13,0,1.13.76l2,1.51.08.1,1,2.36,1.1.53.11.34-.12.24-.29.63-.11.21,0,.09c-1.32,1-4.3,3.21-7.09,5.52Z"/><path class="cls-1" d="M51.37,22.9s11,11.41,12.6,12.26,2.93,3.3,5.11,4.06a8,8,0,0,0,2.53.52,1.86,1.86,0,0,0,.5-.05s4.64,4.15,6.54,5a2.6,2.6,0,0,0,.82.27c.16,0,0-.13.09-.13a6.62,6.62,0,0,1,1,.71l2,1.51,1,2.45,1.18.57-.12.24-.3.64-.1.2v0h0c-1.42,1.06-4.32,3.23-7.06,5.49l-2.63-2.94s-4.16-1.54-5.08-2.37h0a.43.43,0,0,1-.16-.24c0-.17-.19-.22-.45-.22s-1,.11-1.63.11a2.53,2.53,0,0,1-2.09-.82C63.8,48.61,60.4,46,59.86,46h0c-.51,0-3.71-4.55-5-5.08S51.1,34.57,49,34.11c-1.4-.32-3.7-3.86-4.73-3.86h-.06l-.31,0a16.74,16.74,0,0,0,3.63-2.84A11.27,11.27,0,0,0,50,23.88c.1-.25.19-.51.27-.77l.07-.06,1.07-.15m-.07-.5-1.07.15-.26.12-.07.06-.15.23c-.08.26-.17.51-.26.73a10.81,10.81,0,0,1-2.3,3.43,16.54,16.54,0,0,1-3.52,2.75l.35.93.13,0,.17,0c.28,0,1.23,1,1.79,1.61,1,1,1.94,2,2.8,2.23s2.29,2.24,3.33,3.85,1.72,2.63,2.39,2.91a16.1,16.1,0,0,1,3,3.06c1.44,1.69,1.78,2.06,2.2,2.06h0a21.83,21.83,0,0,1,4.88,4,3,3,0,0,0,2.48,1c.38,0,.74,0,1.06-.06a4.4,4.4,0,0,1,.57-.05h0a1.11,1.11,0,0,0,.25.33h0c.92.81,4.34,2.12,5.12,2.41L76.78,57l.69.05c2.79-2.3,5.77-4.52,7-5.47l0-.05.13-.21.09-.16.3-.65.12-.23L85,49.61l-1-.48-1-2.28-.16-.2-2-1.51c-1.07-.81-1.07-.81-1.28-.81l-.22.1-.49-.2c-1.8-.81-6.36-4.88-6.41-4.92l-.49-.1h0a1.44,1.44,0,0,1-.34,0,7.53,7.53,0,0,1-2.37-.5,8.15,8.15,0,0,1-2.93-2.24,9.31,9.31,0,0,0-2.11-1.79c-1.13-.59-8.08-7.6-12.47-12.16l-.43-.15Z"/><path class="cls-13" d="M50,23.88a11.27,11.27,0,0,1-2.41,3.59c-.79-.57-1.76-1.25-2-1.47-.79-.63-1.83-1.39-2.15-1.67a4.9,4.9,0,0,1-.87-1,9,9,0,0,1-2.57-1.12,17,17,0,0,1-2.42-3c-.05-.12,0-.36.14-.54.28.24.83.44,1,.63s.47.71.71.64a1.45,1.45,0,0,0,.74-.69c.2.2.38.34.47.33.3-.06.46-.73.53-1.14h0l-.17-.12,0,0s.09,0,.15.06a2.21,2.21,0,0,1,.55.56c.15.21.75-.76.42-1.59A1.51,1.51,0,0,1,40.45,17l.46-.46A13.52,13.52,0,0,0,42,15.32a2.33,2.33,0,0,0,.19-.28c.16-.29,3.3.84,3.27,1.38,0,.73.42,3.82.42,4a33.88,33.88,0,0,0,3.37,2.86Z"/><path class="cls-13" d="M41.66,18.88a2.21,2.21,0,0,0-.55-.56c-.06-.05-.1,0-.15-.06l0,0c-.31-.22-.62-.41-.73-.49a2.3,2.3,0,0,1-1-1.29.49.49,0,0,1-.06-.17c-.07-.29.62-.47,1.1-.56a5.58,5.58,0,0,0,.63.72l-.46.46a1.51,1.51,0,0,0,1.63.32C42.41,18.12,41.81,19.09,41.66,18.88Z"/><path class="cls-16" d="M47.55,27.47a16.74,16.74,0,0,1-3.63,2.84,0,0,0,0,1,0,0c-.81.13-1.26.21-1.46-.06s1.74-3.15,3-4.26C45.79,26.22,46.76,26.9,47.55,27.47Z"/><path class="cls-13" d="M42.43,19.36s.86,2,1.65,2.29"/><path class="cls-13" d="M93.45,49.42a2.81,2.81,0,0,1,0,.29,9.84,9.84,0,0,1-1.11,4.2l-.26.44a12.51,12.51,0,0,1-2.95-2.1c-.37-.26-1-2.39-1.57-3a1.53,1.53,0,0,0-.16-.13h0c-.45-.34-.64.06-1.25-.23a1.34,1.34,0,0,1-.44-.36c0-.08.09-.16.14-.23l0-.06,1-1.64a1.4,1.4,0,0,0,.1-.31l1.12-2A2.76,2.76,0,0,0,88.92,46c.79.67,1.63,1,2,1.28s.5,1.17,1.55,1.69A7.63,7.63,0,0,0,93.45,49.42Z"/><path class="cls-2" d="M93.42,49.4a7.63,7.63,0,0,1-1-.43c-1.05-.52-1.2-1.37-1.55-1.69s-1.2-.61-2-1.28a2.76,2.76,0,0,1-.81-1.65,13.19,13.19,0,0,1,4.75-1.21A25,25,0,0,1,93.42,49.4Z"/></g><path class="cls-13" d="M42,17.3l1-.69c0,.15.43.49.56.44"/><g id="Face"><path class="cls-1" d="M87.38,45.6a1.38,1.38,0,0,1,.47.49,4.25,4.25,0,0,1,.31.6A5.07,5.07,0,0,1,88.47,48v0a.28.28,0,0,1,0,.16,7.62,7.62,0,0,1-1.07,1,7.29,7.29,0,0,1,.7-1.26l0,.18-.29-1.23A6,6,0,0,0,87.38,45.6Z"/><path class="cls-5" d="M89.66,48.8s2.19.83,2.4.93"/><path class="cls-1" d="M89.66,48.8A3.3,3.3,0,0,1,91,49a3.22,3.22,0,0,1,1.1.7,3.21,3.21,0,0,1-1.3-.24A3.13,3.13,0,0,1,89.66,48.8Z"/><path class="cls-5" d="M89.29,50a2.49,2.49,0,0,1,2.14,1"/><path class="cls-1" d="M89.29,50a.9.9,0,0,1,.69-.28,1.18,1.18,0,0,1,.65.28,2,2,0,0,1,.83,1.05l-.06,0a2.36,2.36,0,0,0-1-.54,1.85,1.85,0,0,1-.54-.1,2,2,0,0,1-.55-.38Z"/><path class="cls-5" d="M89,50.2a12.37,12.37,0,0,0,1.77,1.56"/><path class="cls-1" d="M89,50.2a3.4,3.4,0,0,1,1,.64,4.62,4.62,0,0,1,.75.92,1.38,1.38,0,0,1-.6-.2,2.43,2.43,0,0,1-.49-.35A2.48,2.48,0,0,1,89,50.2Z"/><path class="cls-5" d="M88,48.21s-.55-1.31-.8-1.39"/><path class="cls-1" d="M88,48.22a.91.91,0,0,1-.37-.27,1,1,0,0,1-.13-.38l-.12-.38a.94.94,0,0,0-.16-.35v0a.8.8,0,0,1,.36.26,3,3,0,0,1,.27.33.77.77,0,0,1,.22.35.75.75,0,0,1,0,.46Z"/><path class="cls-1" d="M88.08,48.24c-.11.15-.34.11-.47.07a1.07,1.07,0,0,1-.39-.22,1.15,1.15,0,0,1-.4-.75,1.79,1.79,0,0,1,.73.37,3.31,3.31,0,0,1,.26.27C87.9,48.07,87.93,48.18,88.08,48.24Z"/></g></g></g></svg>