<svg xmlns="http://www.w3.org/2000/svg" viewBox="0 0 318.4 200.53"><defs><style>.cls-1{opacity:0.33;}.cls-2{fill:#383838;}.cls-10,.cls-11,.cls-13,.cls-14,.cls-15,.cls-2,.cls-3,.cls-4,.cls-5,.cls-8{stroke:#1a1a1a;}.cls-10,.cls-12,.cls-2,.cls-3,.cls-4,.cls-5{stroke-linejoin:bevel;}.cls-10,.cls-11,.cls-12,.cls-13,.cls-14,.cls-15,.cls-2,.cls-3,.cls-4,.cls-5,.cls-8{stroke-width:0.64px;}.cls-11,.cls-15,.cls-3,.cls-6,.cls-8{fill:#111;}.cls-14,.cls-4{fill:none;}.cls-12,.cls-13,.cls-5,.cls-9{fill:#fff;}.cls-7{fill:#1a1a1a;}.cls-14,.cls-8{stroke-miterlimit:10;}.cls-10{fill:#011111;}.cls-11,.cls-13,.cls-15{stroke-linejoin:round;}.cls-12{stroke:#000;}.cls-13,.cls-15{stroke-linecap:round;}</style></defs><g id="Layer_2" data-name="Layer 2"><g id="Layer_1-2" data-name="Layer 1"><g id="Ninja_3" data-name="Ninja 3"><g id="Ninja_3-2" data-name="Ninja 3" class="cls-1"><g id="Sleeve_right" data-name="Sleeve right"><path class="cls-2" d="M221.24,63.62l-3.52,11.29h0a2.29,2.29,0,0,1-.26-.52C216.76,72.35,221.24,63.62,221.24,63.62Z"/><path class="cls-2" d="M140.92,105.15a31,31,0,0,1-4.2-2.63C134.78,101,133,99.14,132.54,97a67.88,67.88,0,0,0-2-8.17s1.5-.56,2.9-1.16h0a22.24,22.24,0,0,1,1.2,4.91,5.82,5.82,0,0,0,.15,1A19.6,19.6,0,0,0,136,97.08c.19.42.39.85.6,1.27s.44.88.67,1.31.45.82.68,1.22l.08.11A42.84,42.84,0,0,0,140.92,105.15Z"/><path class="cls-2" d="M141,105.17l0,0a42.84,42.84,0,0,1-2.87-4.16Z"/><path class="cls-2" d="M141,105.17l0,0a42.84,42.84,0,0,1-2.87-4.16Z"/><path class="cls-3" d="M193.67,85.64c-2.81.68-13.37,4.61-15.49,5.14s-3.63,0-7.29,1.59c-2.82,1.22-15.2,6-21.85,9a29.43,29.43,0,0,0-4,2,6.29,6.29,0,0,0-2.67,3.41L141,105.18s0,0,0,0l0,0L138.05,101l-.08-.11c-.23-.4-.46-.81-.68-1.22s-.45-.86-.67-1.31-.41-.85-.6-1.27a19.6,19.6,0,0,1-1.23-3.55,5.82,5.82,0,0,1-.15-1,22.24,22.24,0,0,0-1.2-4.91h0c0-.05-.32-1-.67-1.91h0c0-.15-.1-.29-.16-.44l-.08-.2h0c0-.07-.05-.13-.08-.19-.62-1.65-1.24-3.16-1.66-4.14l-.12-.29-.06-.14h0c-.21-.48-.34-.76-.34-.76,2.33-1.59,8.23-.72,13.51-3.26s4.86-1.61,8.07-2.53a120.94,120.94,0,0,0,13.39-5.31c2.17-1.13,6.71-1.77,9.31-2.06l-6.78,4.79c2.75-1,6-4,6.81-4.79h0l.07-.07.1-.1c.86-.9,4-2.45,7.07-3.86a7.61,7.61,0,0,0,.43.86c.54.9,6.66,6.13,8.11,7.8l7.53,13.38.23,0s0,0,0,0"/><path class="cls-2" d="M174.54,66.41h0c-.79.76-4.06,3.8-6.81,4.79Z"/><path class="cls-2" d="M134.63,92.59a22.24,22.24,0,0,0-1.2-4.91h0"/><path class="cls-4" d="M133.43,87.65l-.06-.19c-.05-.13-.1-.27-.14-.41s-.19-.53-.3-.84c-.06-.16-.12-.31-.17-.47s-.11-.29-.16-.44a1.8,1.8,0,0,1-.08-.21"/><path class="cls-4" d="M130.66,80.47a.53.53,0,0,1-.06-.14"/></g><g id="foot_2" data-name="foot 2"><path class="cls-5" d="M196.47,178.55v0a11,11,0,0,1-1.48,4l-.2-.07-4.07-1.23h0c-3.62-1.08-8.16-2.37-8.66-2.23-.83.23-4-2-4.72-2.19s-6.35-1.91-7.91-2-8.39-2.3-10.16-2.83a16.54,16.54,0,0,1-3.74-.17c-1.13-.31-2.09-2.29-3.58-2.71a15.73,15.73,0,0,1-2.69-1.59c-.36-.17-.57-1.52-.84-1.66s-2.37-1-3-2.62-1.82-5.45-1.66-6.26c.06-.35,3.74-1.21,5.24-.65,1.34.5,2.7.85,3.33,1.16s3.48-.13,4.57.38a27.06,27.06,0,0,1,4.2,2.29c3.13,3,11.15,2.85,13,3s4.9-2.91,8.14-2.48c4.71.63,6.21,5.91,6.54,8.35l2.38.11h0a21.33,21.33,0,0,0,2.34,0,10.66,10.66,0,0,1,2.59.91c.36.15.69.31.94.42a45.11,45.11,0,0,1-.19,5.7A23.5,23.5,0,0,1,196.47,178.55Z"/></g><path class="cls-3" d="M280.76,48.48s-.28.43-.78,1.14h0c-1.76,2.54-6.12,8.71-9.08,11.62A7.36,7.36,0,0,1,269,62.71a7.2,7.2,0,0,1-1.65.46,58.89,58.89,0,0,1-16.45-.05l-.19,0s0,0,0,0A38.49,38.49,0,0,0,269,51.59a41.52,41.52,0,0,0,7-11.07h0c.33-.76.65-1.53.95-2.34,0,0,.89,3.46,1.89,6.39C279.55,46.45,280.24,48.11,280.76,48.48Z"/><path class="cls-2" d="M250.74,63.15l-.13,0,.13,0S250.73,63.14,250.74,63.15Z"/><path class="cls-3" d="M250.36,41.61l-11,5.57h0c-1-1.86-1.64-3.21-1.64-3.21s-1.63-.81-1.88-1.54c-.07-.2.83-2.29,1.51-4.29.09-.26.17-.52.25-.77l2.77,0h0c3,1,2.38,1.5,4.8,1.48a34.84,34.84,0,0,0,4.68-.62Z"/><path class="cls-5" d="M248,25c-7.12-1.5-12.67,4-12.67,4s2.07,4.37,2.63,5.67a4.83,4.83,0,0,1-.3,2.51,5.48,5.48,0,0,1,2.69.23h0l9.35-.09ZM247.41,33c-.4.41-3.69,3.46-4.44,3.24s-1.61-2.07-1.91-2.68a3.57,3.57,0,0,1,2.52-1,9.58,9.58,0,0,0,3.27-.41"/><path class="cls-6" d="M248.38,29.14l-5-.15-3.75,2.88L243,28.51A34.06,34.06,0,0,1,248.38,29.14Z"/><path class="cls-7" d="M248.38,29.14a17.76,17.76,0,0,0-2.27.17,23.5,23.5,0,0,1-2.7.19l.32-.1c-1.19,1-2.43,2-3.67,3a.65.65,0,0,1-.9-.12.63.63,0,0,1,.06-.84c1.11-1.11,2.24-2.21,3.41-3.27l.05,0A.4.4,0,0,1,243,28c.92.09,1.82.21,2.72.38A12.84,12.84,0,0,1,248.38,29.14Zm0,0c-.9-.09-1.8-.1-2.71-.11H243l.38-.16c-1,1.18-2.13,2.32-3.24,3.45l-.84-.95c1.26-1,2.53-1.89,3.83-2.78l0,0a.45.45,0,0,1,.28-.07,22,22,0,0,1,2.26.33A18.87,18.87,0,0,0,248.38,29.14Z"/><path class="cls-2" d="M240.39,37.34l-2.77,0a2.58,2.58,0,0,1,.08-.26A5.48,5.48,0,0,1,240.39,37.34Z"/><path class="cls-2" d="M255,37.21c-.25,0-2.63.57-5.06,1a34.84,34.84,0,0,1-4.68.62c-2.42,0-1.76-.5-4.8-1.48l9.35-.09Z"/><path class="cls-3" d="M254.76,74c-2.28,1.85-4.56,3.64-6.8,5.37-1.16-2.67-6.69-16-5.57-26.88,1.41,2.3,2.86,4.31,3.87,4.88a5.82,5.82,0,0,0,3.09,0,47.6,47.6,0,0,0,1.39,5.76l-.13,0,.13,0A99.17,99.17,0,0,0,254.76,74Z"/><path class="cls-3" d="M269,51.59a38.49,38.49,0,0,1-18.3,11.55,47.6,47.6,0,0,1-1.39-5.76c.92-.14,2-.36,3.12-.64C258.21,55.36,266.11,52.62,269,51.59Z"/><path class="cls-2" d="M276.07,40.52c-.43-1.78-1.2-5.15-1.71-7.88Z"/><path class="cls-3" d="M277,26.8c-.74.75-1.69,3.09-2.62,5.84-1.77,5.18-5.17,18-5.21,18.29L269,30.51c1.48-1.81,3.23-14.94,3.23-14.94a12.93,12.93,0,0,0,.65,2.11C274.17,21.21,277,26.8,277,26.8Z"/><path class="cls-3" d="M245.65,7.9l-6.41,5.7,1-3.61a30.6,30.6,0,0,1,5.34-2.5Z"/><path class="cls-3" d="M240.26,10c-.19.2-.37.41-.54.62a20.52,20.52,0,0,0-3.27,5.47h0l-4.28,3.81a35.25,35.25,0,0,1,2.85-5A16.42,16.42,0,0,1,240.26,10Z"/><path class="cls-3" d="M240.26,10l-1,3.61-2.79,2.48a20.52,20.52,0,0,1,3.27-5.47C239.89,10.4,240.07,10.19,240.26,10Z"/><path class="cls-2" d="M246.49,7.16l-.84.74-.05-.41Z"/><path class="cls-2" d="M232.16,19.9c-1,2.26-.57,2.77-.55,2.9"/><g id="Hand"><path class="cls-2" d="M260.17,126.53l-2.15-.16A12.7,12.7,0,0,1,260.17,126.53Z"/><path class="cls-2" d="M261.67,129.64l-2.86.14A8.32,8.32,0,0,1,261.67,129.64Z"/><path class="cls-2" d="M260.17,126.53l-2.15-.16A12.7,12.7,0,0,1,260.17,126.53Z"/><path class="cls-2" d="M261.67,129.64l-2.86.14A8.32,8.32,0,0,1,261.67,129.64Z"/><path class="cls-2" d="M265.07,122.23l-4.15.11a9.25,9.25,0,0,0,3.05-1A4.82,4.82,0,0,0,265.07,122.23Z"/><path class="cls-2" d="M265.07,122.23l-4.15.11a9.25,9.25,0,0,0,3.05-1A4.82,4.82,0,0,0,265.07,122.23Z"/></g><path class="cls-2" d="M237.37,38.14a7.52,7.52,0,0,1-.56-.76c-2.54-4-5.24-14.61-5.24-14.61"/><path class="cls-3" d="M255.61,39l-5.25,2.66-.47-3.4c2.43-.43,4.81-1,5.06-1l0,0a0,0,0,0,1,0,0C255.21,37.82,255.43,38.4,255.61,39Z"/><path class="cls-3" d="M255,37.19l0,0-5.19,0L248,25c.47.1.94.23,1.42.38C249.46,25.35,253,32.19,255,37.19Z"/><path class="cls-2" d="M255,37.21c-.25,0-2.63.57-5.06,1l-.13-1Z"/><path class="cls-3" d="M248,25c-7.12-1.5-12.67,4-12.67,4l-.43-.13.31-1.11,4-14.09,6.41-5.7Z"/><path class="cls-3" d="M255.61,39c-.18-.55-.4-1.13-.63-1.75a0,0,0,0,0,0,0c-1.94-5-5.51-11.84-5.51-11.84-.48-.15-1-.28-1.42-.38L245.65,7.9l.84-.74-.89.33c2.13-2.1,7.1-4.32,7.1-4.32a3.7,3.7,0,0,1,1.07.9c1.14,1.42,1.6,4,2.35,8.64.94,5.91-.4,14.29-.4,14.29C256.53,29,256.28,33.75,255.61,39Z"/><path class="cls-2" d="M246.49,7.16l-.84.74-.05-.41Z"/><path class="cls-3" d="M276.07,40.52h0a41.52,41.52,0,0,1-7,11.07c-2.93,1-10.83,3.77-16.57,5.15.76-3.57,2.29-11.08,3.14-17.79.67-5.2.92-9.92.11-12,0,0,1.34-8.38.4-14.29-.75-4.66-1.21-7.22-2.35-8.64a20.31,20.31,0,0,1,2.78-.62s3.34.83,5.8,1.62,6,5.23,6.21,5.46A9,9,0,0,0,271,11.69c.61.12,2.9,3.11,2.62,3.31a10,10,0,0,0-.78,2.68,12.93,12.93,0,0,1-.65-2.11S270.45,28.7,269,30.51L269,51.59c0-.25,3.55-13.77,5.32-19C274.87,35.37,275.64,38.74,276.07,40.52Z"/><path class="cls-3" d="M252.47,56.74l-2.11-15.13L255.61,39C254.76,45.66,253.23,53.17,252.47,56.74Z"/><path class="cls-2" d="M240.39,37.34l-2.77,0h-.81a1.73,1.73,0,0,1,.24-.1,4.35,4.35,0,0,1,.65-.17A5.48,5.48,0,0,1,240.39,37.34Z"/><path class="cls-3" d="M255,37.21c-.25,0-2.63.57-5.06,1a34.84,34.84,0,0,1-4.68.62c-2.42,0-1.76-.5-4.8-1.48l9.35-.09Z"/><path class="cls-4" d="M221.39,107.68l.06-.05"/><path class="cls-3" d="M219.5,106.09c-.66-.4-1.22-.67-1.42-.77a.29.29,0,0,0-.12,0h-.05l-.09,0h-.18v0h0c-.25,0-.52,0-.52,0s-3.1-4.68-4.77-7.33h0l-.48-.93c.56-.92.89-1.59.89-1.59A3,3,0,0,1,215,93.56a9.13,9.13,0,0,1,.24,1.74,10.07,10.07,0,0,0,.86,4l-.09.05,2.28,5.7Z"/><path class="cls-2" d="M217.65,105.26v0h-.55s-2.22-2.82-3.85-5.42c-.27-.4-.61-1-1-1.84a1.49,1.49,0,0,0-.13-.25l-.31-.61h0l.11-.16.48.93h0c1.67,2.65,4.77,7.33,4.77,7.33s.27,0,.52,0Z"/><path class="cls-3" d="M252.47,56.74c-1.15.28-2.2.5-3.12.64a5.82,5.82,0,0,1-3.09,0c-1-.57-2.46-2.58-3.87-4.88-1.1-1.77-2.17-3.72-3-5.3l11-5.57Z"/><path class="cls-3" d="M248,79.36c-17.5,13.52-33,23.11-30.86,21.15a2.45,2.45,0,0,1-1-1.19,10.07,10.07,0,0,1-.86-4,9.13,9.13,0,0,0-.24-1.74c-.66-2.66-2.36-3.08-2.58-3.12.33.06,3.89.7,4.3-.13s.33-3.18.35-5.46,3-2.27,4.9-3.12l.25-.13,0,0,.06,0a2.86,2.86,0,0,0,.3-.22h0a9.57,9.57,0,0,0,2.49-2.9l-2.51,2.84c-.94-2.33-4.33-5.81-4.87-6.34l3.52-11.29s-4.48,8.73-3.78,10.76a2.29,2.29,0,0,0,.26.52h0l.12.18c-1.23,1.48-3.64,4.32-4.53,4.85-.57.34-4.43,1.5-8.6,2.69-1.68-3.49-3.21-6.56-4.12-8.15-2.71-4.67-8-8.21-10.92-12.24a8.76,8.76,0,0,1-1.33-2.69l.62-.26s18.62-8.89,21.35-8.62,15.23-2.93,19.5-4.15c3.16-.9,7.52.08,9.57.66h0c.83,1.58,1.9,3.53,3,5.3C241.27,63.32,246.8,76.69,248,79.36Z"/><path class="cls-2" d="M221.24,63.62l-3.52,11.29h0c-.12-.18-.33-.35-.26-.52C218.12,72.8,221.24,63.62,221.24,63.62Z"/><path class="cls-2" d="M225.1,78.41a9.57,9.57,0,0,1-2.49,2.9l0-.06Z"/><path class="cls-4" d="M217.72,74.9l-.07-.06"/><path class="cls-4" d="M212.44,90.44h0"/><path class="cls-2" d="M225.1,78.41a9.57,9.57,0,0,1-2.49,2.9l-.29.23.27-.29Z"/><path class="cls-2" d="M174.66,66.33a.57.57,0,0,0-.09.08c-.79.76-4.06,3.8-6.81,4.79l6.78-4.79Z"/><path class="cls-3" d="M234.14,29.57l-2.55-6.76h0l.55-2.91,4.28-3.81A35.48,35.48,0,0,0,234.14,29.57Z"/><path class="cls-3" d="M239.24,13.6l-4,14.09-.31,1.11-.47,1.64-.33-.87a35.48,35.48,0,0,1,2.3-13.48h0Z"/><path class="cls-3" d="M237.7,37.11a4.35,4.35,0,0,0-.65.17l-2.58-6.83h0l.47-1.64.43.13s2.07,4.37,2.63,5.67A4.83,4.83,0,0,1,237.7,37.11Z"/><path class="cls-2" d="M234.47,30.44h0l-.28,1c0-.59,0-1.21-.05-1.86Z"/><path class="cls-3" d="M240.26,10l-1,3.61-2.79,2.48a20.52,20.52,0,0,1,3.27-5.47C239.89,10.4,240.07,10.19,240.26,10Z"/><path class="cls-8" d="M256.35,14.76c-2.53-2.1-7.76-5-16.63-4.15l-.47,0"/><path class="cls-9" d="M247.41,33c-.4.41-3.69,3.46-4.44,3.24s-1.61-2.07-1.91-2.68a3.57,3.57,0,0,1,2.52-1,9.58,9.58,0,0,0,3.27-.41"/><path class="cls-7" d="M247.46,33.08c-.51.56-1,1.09-1.56,1.61a15.38,15.38,0,0,1-1.72,1.48,3.68,3.68,0,0,1-.51.32,1.92,1.92,0,0,1-.32.14,1,1,0,0,1-.49,0,1.62,1.62,0,0,1-.65-.42,5.65,5.65,0,0,1-.41-.46,19.54,19.54,0,0,1-1.28-1.93l.15-.72a4,4,0,0,1,1.45-1,3,3,0,0,1,.9-.2,4,4,0,0,1,.85.07,21.89,21.89,0,0,0,3,.09l0,.12a6.29,6.29,0,0,1-3.05.95,4,4,0,0,0-.67,0,3.08,3.08,0,0,0-.57.17,4.46,4.46,0,0,0-1.13.61l.14-.71a13.69,13.69,0,0,0,1,1.91,2.4,2.4,0,0,0,.53.64c-.07,0,.12,0,.25-.08a2.47,2.47,0,0,0,.46-.23A27.25,27.25,0,0,0,247.36,33Z"/><path class="cls-2" d="M305.9,68.78l-.59,1A1.79,1.79,0,0,1,305.9,68.78Z"/><path class="cls-3" d="M267.38,63.17C263.32,66.88,259,70.52,254.76,74a99.17,99.17,0,0,1-4-10.84l.19,0A58.89,58.89,0,0,0,267.38,63.17Z"/><path class="cls-3" d="M282.09,57.6a35.4,35.4,0,0,1-4,7.85c-2.29,2.87-54.5,40.67-56.6,42.18a8.18,8.18,0,0,0-1.94-1.54h0l-1.19-1L216,99.37l.09-.05a2.45,2.45,0,0,0,1,1.19c-2.17,2,13.36-7.63,30.86-21.15,2.24-1.73,4.52-3.52,6.8-5.37,4.28-3.47,8.56-7.11,12.62-10.82a7.2,7.2,0,0,0,1.65-.46,7.36,7.36,0,0,0,1.87-1.46A63.9,63.9,0,0,0,282.09,57.6Z"/><path class="cls-3" d="M282.1,57.6h0a63.9,63.9,0,0,1-11.19,3.65c3-2.91,7.32-9.08,9.08-11.62.52,1,1.39,2.58,2.23,3.92a14.15,14.15,0,0,0,1.51,2.12C284.23,56.22,283.52,56.89,282.1,57.6Z"/><path class="cls-3" d="M292.72,129.28l-.19,0c-.42-2.16-5.35-7.6-8-8.89"/><path class="cls-3" d="M286.39,119.85c3.65-.18,6.33,9.43,6.33,9.43"/><path class="cls-3" d="M284.27,120.44c1.28-.34,2.12-.59,2.12-.59"/><path class="cls-10" d="M287,107.11l2.35-5.4a4.34,4.34,0,0,0,1.33,1.87C292.19,104.67,287.8,106.47,287,107.11Z"/><path class="cls-10" d="M285.5,114.37c-1.32,1.31-2.62,3.64-3.94,5.21l5.18-11.89C286.51,109.14,287,112.87,285.5,114.37Z"/><path class="cls-10" d="M290.9,98.13l-1.56,3.58a12.15,12.15,0,0,1-.73-2.54A10.75,10.75,0,0,0,290.9,98.13Z"/><path class="cls-3" d="M261.12,122.34v0l-.13,0h-.08a9.25,9.25,0,0,0,3.05-1,4.82,4.82,0,0,0,1.1.94Z"/><path class="cls-3" d="M315.82,110.14a.78.78,0,0,1-.69.41c-2,0-6.34.19-7.58,1.4a.66.66,0,0,0-.19.39l-.43,2.26a.92.92,0,0,0,0,.16,28.65,28.65,0,0,0,.63,5.7,10.18,10.18,0,0,0,.6,1.84.84.84,0,0,1-.45,1.09c-1.3.53-3.66,1.61-3.95,2.54-.4,1.29-2.4,9.29-1.09,11.72.42.78-.84,1.06-2.9.84a1,1,0,0,1-.3-.09l-.74-.4-.08,0-.06,0-.15-.09-.31-.18c-.56-.34-1.18-.74-1.78-1.19-.3-.23-.6-.47-.88-.73a2.09,2.09,0,0,1-.22-.2c-.66-.62-.76-1.86-1.51-2-12.2-2.46-8-13.45-9.25-13.11h0l-.17-.07a14.44,14.44,0,0,0-1.36-.5.82.82,0,0,1-.42-1.27,40.13,40.13,0,0,1,3.18-4.23c1.47-1.46,1-5,1.22-6.57l0-.11a.49.49,0,0,1,0-.11l.11-.25a.84.84,0,0,1,.3-.37c1.17-.73,4.89-2.37,3.47-3.37a4,4,0,0,1-1.16-1.51.82.82,0,0,1,0-.7l1.41-3.24a1.71,1.71,0,0,0,.37-.32.49.49,0,0,0,.16-.52.82.82,0,0,1,.06-.51l5.4-12.43c-.58,1.25-3.7,8-4.93,10.29a3.66,3.66,0,0,0-.64,2.2.77.77,0,0,1-.06.45l-.26.61a.89.89,0,0,1-.31.36,10.68,10.68,0,0,1-1.43.67.81.81,0,0,0-.5.94,11.49,11.49,0,0,0,.45,1.52.81.81,0,0,1,0,.63l-2.21,5.08-.05,0a.88.88,0,0,0-.2.54l-5.18,11.89h0a3.51,3.51,0,0,0-1.24,0,.9.9,0,0,0-.39.25,4.33,4.33,0,0,0-1,2v0a52.33,52.33,0,0,1-5.42,1.12l-.31,0h-.18a.83.83,0,0,1-.59-.2l-6.51-5.75a.51.51,0,0,0-.43,0h0c-1.56.27-6.25,3.29-6.68,3.28s.69,1.9,1.46,2l.33,0H261l.13,0v0l-.28.47h-.19l-2.88-.23a.44.44,0,0,0-.23,0,.61.61,0,0,0-.28.11l-.88.58a.37.37,0,0,0-.16.28,4.39,4.39,0,0,0,.38,2.4.78.78,0,0,0,.68.37l.69,0h.26l-.65.64a.36.36,0,0,0-.09.33,8.54,8.54,0,0,0,.61,2.36.56.56,0,0,0,.44.1h0a.38.38,0,0,0,.15,0h.11l.19,0h0c-.06.24,10.63-2,10.85-1.78,2.1,2.29,1.53,2.57-8.22,6.34l9.84-4.3c-2.32,1-16.59,7.14-18.35,8.18-.3.17-.33.69-2.14.2l-21.63-17.73c-2.26-3.42-6.38-9.4-6.42-9.49-.41-.76-1.34-.83-1.59-1.52L222,109l.27-.45a1.61,1.61,0,0,0-.15-.36.81.81,0,0,1,.23-1c6.37-4.61,53.78-39,55.95-41.7a35.69,35.69,0,0,0,4-7.86h0c1.42-.71,2.13-1.39,1.62-1.94a14.51,14.51,0,0,1-1.51-2.11h0s7.19,5,12.72,6.29a.63.63,0,0,1,.36.19,11.07,11.07,0,0,0,2.58,1.91c1.13.45.75-.5,2,.87a20,20,0,0,1,2.46,2.72c.48.82,2.68.19,3.7.79s1.17,1,.81,1.68c-.22.39-.61.49-.95.79a1.75,1.75,0,0,0-.6,1l.6-1c.09,1.08.47,4.61,1.8,6.15,1.58,1.82,2.9,3.37,3.12,5.58s5.41,22.79,5.94,23.38l.55.59a.8.8,0,0,1,.22.45,9.8,9.8,0,0,0,.32,1.66C318.21,106.85,316.61,108.7,315.82,110.14Z"/><path class="cls-2" d="M286.94,107.15l.05,0-.25.58A.88.88,0,0,1,286.94,107.15Z"/><path class="cls-2" d="M281.56,119.58l5.18-11.89c-.23,1.45.27,5.18-1.24,6.68C284.18,115.68,282.88,118,281.56,119.58Z"/><path class="cls-2" d="M288.61,99.17a10.75,10.75,0,0,0,2.29-1l-1.56,3.58A12.15,12.15,0,0,1,288.61,99.17Z"/><path class="cls-2" d="M290.9,98.13l.46-1.06c.08.29.18.45-.09.75A1.68,1.68,0,0,1,290.9,98.13Z"/><path class="cls-2" d="M287,107.11l2.35-5.4a4.34,4.34,0,0,0,1.33,1.87C292.19,104.67,287.8,106.47,287,107.11Z"/><path class="cls-2" d="M296.89,84.36l-5.53,12.71c-.1-.38-.17-1,.59-2.42C293.19,92.33,296.31,85.6,296.89,84.36Z"/><path class="cls-2" d="M305.9,68.78l-.59,1A1.79,1.79,0,0,1,305.9,68.78Z"/><path class="cls-4" d="M305.9,68.78c0-.2,0-.32,0-.32"/><path class="cls-3" d="M315.19,111.41a10.38,10.38,0,0,0-1.95,7,28.52,28.52,0,0,0-5.9,2.11,29.68,29.68,0,0,1-.64-5.78l.49-2.56c1.09-1.49,6.51-1.57,8.21-1.57A1.88,1.88,0,0,0,315.19,111.41Z"/><path class="cls-2" d="M299.46,138.4c-4.3-.5-11.82-3.06-14.79-7.83"/><path class="cls-2" d="M284.57,130.6l4.21-.68h0l3.74-.45a20.74,20.74,0,0,0,1,4.08,6.14,6.14,0,0,0,1.51,2,2.09,2.09,0,0,0,.22.2,8.64,8.64,0,0,0,.88.72,19.9,19.9,0,0,0,1.78,1.2l.6.34"/><path class="cls-2" d="M284.27,120.44c-1.44.4-3.42.92-5.37,1.39a4.76,4.76,0,0,1,1.19-2.21,2.8,2.8,0,0,1,1.47,0h0A12.54,12.54,0,0,1,284.27,120.44Z"/><path class="cls-2" d="M286.94,107.15l.05,0-.25.58A.88.88,0,0,1,286.94,107.15Z"/><path class="cls-2" d="M281.56,119.58l5.18-11.89c-.23,1.45.27,5.18-1.24,6.68C284.18,115.68,282.88,118,281.56,119.58Z"/><path class="cls-2" d="M290.9,98.13l-1.56,3.58a12.15,12.15,0,0,1-.73-2.54A10.75,10.75,0,0,0,290.9,98.13Z"/><path class="cls-2" d="M291.27,97.82a1.68,1.68,0,0,1-.37.31l.46-1.06C291.44,97.36,291.54,97.52,291.27,97.82Z"/><path class="cls-2" d="M287,107.11l2.35-5.4a4.34,4.34,0,0,0,1.33,1.87C292.19,104.67,287.8,106.47,287,107.11Z"/><path class="cls-2" d="M296.89,84.36l-5.53,12.71c-.1-.38-.17-1,.59-2.42C293.19,92.33,296.31,85.6,296.89,84.36Z"/><path class="cls-3" d="M211,109.4c-4.5.35-11.39-2.9-16.65-3.92a91.6,91.6,0,0,0-21.69-1.25,4.2,4.2,0,0,0-1-.8c-.68-.2-.39-1.9-.9-4,0,0,0,0,0-.08a8.58,8.58,0,0,0-2.34-4.11s12.1,3.35,14.15,3.48,10.22-3.26,14.33-.91A7.51,7.51,0,0,0,201,99h.27a9.65,9.65,0,0,1,3.59,1.76,3,3,0,0,0,1.22.6.2.2,0,0,0,0,.08h0l.09.17a.93.93,0,0,1,0,.1,73.21,73.21,0,0,0,3.9,6.4C210.43,108.58,210.69,109,211,109.4Z"/><path class="cls-2" d="M210.16,108.15a73.21,73.21,0,0,1-3.9-6.4.93.93,0,0,0,0-.1l-.09-.17h0a.2.2,0,0,1,0-.08,3,3,0,0,1-1.22-.6A9.65,9.65,0,0,0,201.28,99l.23,0h0a6.5,6.5,0,0,1,3.32,1.66,3.08,3.08,0,0,0,1.22.6l.26,0h.08l0,0h0a0,0,0,0,1,0,0s0,.09.07.14C207.65,103.86,208.86,106.07,210.16,108.15Z"/><path class="cls-3" d="M245.59,146.17a.74.74,0,0,1-.2.59c-.41.38-1.28.31-1.71.61-.6.4-3.2,3.17-3.51,4.8,0,.1,0,.2-.08.3h0c-.45,1.42-2.1,2-3.12,2.88s-4.32,3.6-4.69,6.27c0,0-2.92-11.38-7.55-14.35S205,138.94,202.78,139c.1.18-11.71-5-17.9-17.19-.5-1-4-8.15-7.12-11.92,5.43,0,11.9.48,15.46,1.45,4.38,1.18,14.68,3.78,14.29,3.81a14.2,14.2,0,0,0,7.58-.19c10.17,12.45,26,24.54,32,29A5.87,5.87,0,0,0,245.59,146.17Z"/><path class="cls-4" d="M263,190a0,0,0,0,1,0,0s0,0,0,0-.12.22-.22.43l0,0-.23.43-.06.12a.67.67,0,0,0-.06.12.09.09,0,0,0,0,0l0,.07a.05.05,0,0,0,0,.05.11.11,0,0,0,0,.06"/><path class="cls-3" d="M246.47,159.27c-2.17-2.35-4.62-5-6.38-6.8h0c0-.1.06-.2.08-.3.31-1.63,2.91-4.4,3.51-4.8.43-.3,1.3-.23,1.71-.61A85.13,85.13,0,0,1,246.47,159.27Z"/><path class="cls-11" d="M263.18,189.6l-.2.37h0a25.52,25.52,0,0,0-5.08,7.8s-18.72,1.61-19.26,2.41-37.28-13.39-48.92-7.7a.85.85,0,0,1-.24.08,10.29,10.29,0,0,1,1.8-3.94,36.62,36.62,0,0,0,3.51-6.13l.2.07a11,11,0,0,0,1.48-4v0a5.44,5.44,0,0,0,.18-.6,9.22,9.22,0,0,0,.17-1.8,45.11,45.11,0,0,0,.19-5.7c-.25-.11-.58-.27-.94-.42a6.91,6.91,0,0,0-.9-2.07c3.75.84,12.55,2.78,13.31,2.65l.21-.05c-3.36-3-11.26-10.47-13.1-15.9,0,0-2.33-5.17-3.55-8.88-12.55-3.56-33.66-9.82-42.75-14-8.78.17-24.64.59-26.74,1.64a11.24,11.24,0,0,1-6.52.93,28,28,0,0,0-6.79,1.51c-1.51.64-11.5,1.07-13.15.75s-9,0-11.63.11-13.06.08-14.35,1.3c.66-1.37-3-12.56-1.43-15.33a8.85,8.85,0,0,0,.76-3.1,76.31,76.31,0,0,0-.2-11.92,20.79,20.79,0,0,0-.88-3.76,8.13,8.13,0,0,1-.52-1.92l.1,0a7.87,7.87,0,0,0,3.74.14,20.73,20.73,0,0,1,8.5-.49c3.21.61,37.77.35,38.91-.14s6.75-.46,9.08-.73,6.17,2.59,7.3,2.11a7.78,7.78,0,0,1,1.24-.34h0a31,31,0,0,0,4.2,2.63s0,0,0,0l1.39,1.59a6.29,6.29,0,0,1,2.67-3.41,29.43,29.43,0,0,1,4-2,38.2,38.2,0,0,0,5.7.61c2.3-.09,9.14-1.07,11.09-2.11,1-.56,3.19-.55,4.92-.42.51,2.09.22,3.79.9,4a4.2,4.2,0,0,1,1,.8,91.6,91.6,0,0,1,21.69,1.25c5.26,1,12.15,4.27,16.65,3.92-.27-.41-.53-.82-.8-1.25.3.44.58.88.87,1.31a6.17,6.17,0,0,0,1.32-.22,8.74,8.74,0,0,0,1.11-.44,7.27,7.27,0,0,1-1.13.46,6.17,6.17,0,0,1-1.32.22c-4.51.35-11.39-2.9-16.66-3.93a92.09,92.09,0,0,0-21.69-1.25c-4.36.24-7.19.66-7.19.67l2.91,6.46c0-1,4.22-1.48,9.38-1.5,3.16,3.77,6.62,10.95,7.12,11.92,6.19,12.19,18,17.37,17.9,17.19,2.23-.1,17.32,5.26,21.95,8.23s7.55,14.35,7.55,14.35c.37-2.67,3.6-5.31,4.69-6.27s2.67-1.46,3.12-2.88c1.76,1.85,4.21,4.45,6.38,6.8a50.16,50.16,0,0,1,4.87,5.7c.31,1.09,2.87,1.19,3.78,3.18a61.06,61.06,0,0,0,3.71,6.26C259.44,175.31,265.18,185.85,263.18,189.6Z"/><path class="cls-4" d="M263,190c-.08.16-.16.3-.22.43l0,0c-.09.17-.16.32-.23.43l-.06.12a.67.67,0,0,0-.06.12.09.09,0,0,0,0,0l0,.07s0,0,0,.05a.15.15,0,0,0,0,.06h0v0"/><path class="cls-2" d="M194.79,182.49a36.62,36.62,0,0,1-3.51,6.13,10.29,10.29,0,0,0-1.8,3.94c-.15,0-.27-.07-.41-.43a40.77,40.77,0,0,1-2-11.3c0-.32.07-.32.07-.32s1.62.3,3.59.75h0Z"/><path class="cls-4" d="M194.86,182.33c0,.06-.05.11-.07.16l-4.07-1.23C192.08,181.57,193.59,182,194.86,182.33Z"/><path class="cls-2" d="M196.07,170a10.66,10.66,0,0,0-2.59-.91,21.33,21.33,0,0,1-2.34,0c.8-1.08,2.11-2.41,3.35-1.79a1.82,1.82,0,0,1,.68.63A6.91,6.91,0,0,1,196.07,170Z"/><path class="cls-4" d="M196.07,170a22.84,22.84,0,0,1,.75,6.12"/><path class="cls-4" d="M196.47,178.57a34.71,34.71,0,0,1-1.61,3.76"/><path class="cls-4" d="M191.14,169.12h0"/><path class="cls-4" d="M249.66,177.27s-16.93-2.2-19.34-3.43-.21-4.31-4.26-3.55-17.16-.54-17.16-.54.46.6-.21.81"/><path class="cls-2" d="M69.27,120.22a4.11,4.11,0,0,1-.53,2.14c-1.54,2.77,2.18,14.09,1.52,15.46h0a.26.26,0,0,0-.08.11S59,127,57.56,117.91"/><path class="cls-2" d="M68.36,103.87l-9.1.73c5.26-3.84,8.31-2.8,8.68-2.65v0l-.1,0A8.13,8.13,0,0,0,68.36,103.87Z"/><path class="cls-4" d="M68,102h0"/><path class="cls-4" d="M149.29,131.74a18.59,18.59,0,0,1-3.58-2"/><path class="cls-4" d="M201.93,148.53s-4-1.08-9.89-2.75"/><g id="Belt"><path class="cls-2" d="M221.75,109h0l-.4.65h0A16.43,16.43,0,0,1,218.9,113a11.41,11.41,0,0,1-3.81,2c-1.18-1.45-2.28-2.89-3.28-4.34-.27-.39-.54-.78-.8-1.18a6.17,6.17,0,0,0,1.32-.22,7.27,7.27,0,0,0,1.13-.46c.12,0,.25-.12.38-.19l0,0,.4-.21.44-.27a6.73,6.73,0,0,0,.63-.4,8,8,0,0,0,2.06-1.89.64.64,0,0,0,.08-.14,1,1,0,0,0,.16-.4h.18l.09,0H218a.29.29,0,0,1,.12,0c.2.1.76.37,1.42.77h0l1.88,1.59A8,8,0,0,0,221.75,109Z"/><path class="cls-2" d="M217.64,105.28a1,1,0,0,1-.16.4,1.8,1.8,0,0,0,.15-.4Z"/><path class="cls-2" d="M222,108.57l-.27.44a8,8,0,0,1-.36-1.33l-1.88-1.59a8.18,8.18,0,0,1,1.94,1.54A2.73,2.73,0,0,1,222,108.57Z"/><path class="cls-4" d="M217.63,105.28a.49.49,0,0,0,0-.12"/><path class="cls-2" d="M215.09,115a14.2,14.2,0,0,1-7.58.19c.39,0-9.91-2.63-14.29-3.81-3.56-1-10-1.47-15.46-1.45-5.16,0-9.4.5-9.38,1.5L165.47,105s2.83-.43,7.19-.67a92.09,92.09,0,0,1,21.69,1.25c5.27,1,12.15,4.28,16.66,3.93.26.4.53.79.8,1.18C212.81,112.11,213.91,113.55,215.09,115Z"/><path class="cls-2" d="M249.59,145.76s-.91-.64-2.47-1.79c-6.05-4.43-21.86-16.52-32-29a11.41,11.41,0,0,0,3.81-2,16.43,16.43,0,0,0,2.45-3.33l1.45,1.67c6.21,11.36,29.33,28.23,29.34,27.53,0-.08.1-.19.29-.33a8.74,8.74,0,0,0,.85.25S249.39,144.72,249.59,145.76Z"/><path class="cls-3" d="M206.37,101.32a.93.93,0,0,1,0,.1h0v0h0l-.21,0-.13,0a3,3,0,0,1-1.22-.6,6.1,6.1,0,0,0-2.54-1.49,7.74,7.74,0,0,0,2.52-.48"/><path class="cls-4" d="M206.91,101.71c-.11-.07-.48-.28-.48-.29"/><polygon class="cls-2" points="182.12 62.24 182.07 62.27 182.07 62.26 182.12 62.24"/><path class="cls-2" d="M217.65,105.26v0a1,1,0,0,1-.16.4.64.64,0,0,1-.08.14,8,8,0,0,1-2.06,1.89,6.73,6.73,0,0,1-.63.4l-.44.27-.4.21,0,0-.38.19a8.74,8.74,0,0,1-1.11.44,6.17,6.17,0,0,1-1.32.22c-.29-.43-.57-.87-.87-1.31a73.21,73.21,0,0,1-3.9-6.4.93.93,0,0,0,0-.1l-.08-.17h0l-1.34-2.79c-.35-.71-.69-1.43-1-2.14l0,0c-1.94-4.16-3.76-8.32-5.61-12.05h0A60.11,60.11,0,0,0,192.72,75c-1.28-1.54-8.64-9.27-10.19-11.87a8,8,0,0,1-.46-.89l.05,0-.05,0h0l-.24.1,0,0c-1.36-3-3.14-9.62-2.24-10.62L187.77,54a12.75,12.75,0,0,0,.3,5.57.06.06,0,0,1,0,0l.26-.1-.25.1a8.27,8.27,0,0,0,1.32,2.66c3,4,8.2,7.57,10.91,12.23.89,1.55,2.36,4.5,4,7.88l.13.27c2.24,4.63,5.49,10.58,7.42,14.3l-.11.16h0l.31.61.12-.07.15.23c1.67,2.65,4.77,7.33,4.77,7.33s.27,0,.52,0Z"/><path class="cls-2" d="M206.21,101.65l-.09-.17h0Z"/><polygon class="cls-2" points="182.12 62.24 182.07 62.27 182.07 62.26 182.12 62.24"/><path class="cls-2" d="M212.35,97.92h0l-.15-.23-.12.07-.31-.61h0l.11-.16Z"/></g><path class="cls-2" d="M69.47,119.26l-.25,1.31"/></g><g id="Ninja_3-3" data-name="Ninja 3" class="cls-1"><g id="Sleeve_right-2" data-name="Sleeve right"><path class="cls-2" d="M213.12,62.08l-3.51,11.28a0,0,0,0,0,0,0,2.8,2.8,0,0,1-.26-.52C208.65,70.81,213.12,62.08,213.12,62.08Z"/><path class="cls-2" d="M132.8,103.6a31.18,31.18,0,0,1-4.2-2.63c-1.93-1.48-3.76-3.38-4.18-5.52a69.43,69.43,0,0,0-2-8.17s1.49-.56,2.89-1.16h0a23.44,23.44,0,0,1,1.2,4.91,6.82,6.82,0,0,0,.14,1,20.52,20.52,0,0,0,1.24,3.55c.18.42.38.85.59,1.27s.44.89.67,1.31.45.82.69,1.22l.07.11A42.84,42.84,0,0,0,132.8,103.6Z"/><path class="cls-2" d="M132.84,103.62l0,0a42.84,42.84,0,0,1-2.87-4.16Z"/><path class="cls-2" d="M132.84,103.62l0,0a42.84,42.84,0,0,1-2.87-4.16Z"/><path class="cls-3" d="M185.56,84.09c-2.82.68-13.38,4.61-15.5,5.14s-3.62,0-7.29,1.59c-2.82,1.23-15.2,6-21.85,9a31.4,31.4,0,0,0-4,2,6.29,6.29,0,0,0-2.66,3.41l-1.4-1.59,0,0,0,0-2.91-4.18-.07-.11c-.24-.4-.47-.81-.69-1.22s-.45-.86-.67-1.31-.41-.85-.59-1.27A20.52,20.52,0,0,1,126.67,92a6.82,6.82,0,0,1-.14-1,23.44,23.44,0,0,0-1.2-4.91h0s-.33-1-.67-1.9h0c-.06-.15-.11-.29-.16-.43l-.08-.21h0a1.46,1.46,0,0,0-.07-.19c-.63-1.65-1.25-3.16-1.67-4.14l-.12-.29-.05-.14h0c-.2-.48-.33-.76-.33-.76,2.32-1.59,8.22-.72,13.51-3.26s4.86-1.61,8.06-2.53a120.37,120.37,0,0,0,13.4-5.31c2.16-1.13,6.71-1.77,9.3-2.06l-6.78,4.79c2.76-1,6-4,6.82-4.79,0,0,0,0,0,0a.46.46,0,0,0,.07-.07l.1-.1c.87-.9,4-2.45,7.07-3.86.15.34.3.63.43.86.55.9,6.67,6.13,8.11,7.8l7.54,13.38.22,0a0,0,0,0,0,0,0"/><path class="cls-2" d="M166.42,64.86s0,0,0,0c-.8.76-4.06,3.8-6.82,4.79Z"/><path class="cls-2" d="M126.52,91a23.58,23.58,0,0,0-1.2-4.91h0"/><path class="cls-4" d="M125.32,86.1a.87.87,0,0,1-.07-.19c0-.13-.09-.27-.14-.4s-.18-.54-.29-.85c-.06-.16-.12-.31-.17-.46s-.11-.3-.16-.44-.06-.14-.09-.21"/><path class="cls-4" d="M122.54,78.92l-.06-.14"/></g><g id="foot_2-2" data-name="foot 2"><path class="cls-5" d="M188.36,177v0a11,11,0,0,1-1.49,4l-.2-.06c-.75-.23-2.3-.71-4.06-1.23h0c-3.63-1.08-8.17-2.37-8.66-2.23-.84.24-4-2-4.72-2.19s-6.36-1.91-7.92-2-8.38-2.29-10.16-2.83a16.55,16.55,0,0,1-3.74-.17c-1.13-.31-2.09-2.29-3.57-2.71a14.74,14.74,0,0,1-2.69-1.59c-.36-.17-.57-1.51-.84-1.66s-2.38-1-3-2.62-1.82-5.45-1.67-6.26c.07-.35,3.74-1.21,5.24-.65,1.34.5,2.71.85,3.33,1.16s3.49-.12,4.57.38a28.59,28.59,0,0,1,4.21,2.29c3.13,3,11.14,2.85,13,3s4.9-2.91,8.14-2.48c4.72.63,6.22,5.91,6.55,8.35l2.37.11h0a21.14,21.14,0,0,0,2.33,0,10.55,10.55,0,0,1,2.6.91l.94.42a45.06,45.06,0,0,1-.19,5.7C188.63,175.41,188.51,176.23,188.36,177Z"/></g><path class="cls-3" d="M272.65,46.93s-.29.43-.79,1.14h0c-1.76,2.55-6.12,8.71-9.07,11.62a7.63,7.63,0,0,1-1.87,1.47,7.77,7.77,0,0,1-1.66.45,58.82,58.82,0,0,1-16.44,0l-.2,0h0A38.49,38.49,0,0,0,260.92,50,41.46,41.46,0,0,0,268,39h0c.33-.76.64-1.53.94-2.34,0,0,.89,3.46,1.89,6.39C271.43,44.91,272.13,46.56,272.65,46.93Z"/><path class="cls-2" d="M242.62,61.6l-.13,0,.13,0Z"/><path class="cls-3" d="M242.25,40.06l-11,5.57h0c-1-1.86-1.65-3.21-1.65-3.21s-1.62-.8-1.88-1.54c-.07-.2.83-2.28,1.52-4.28.08-.27.17-.52.24-.78l2.77,0h0c3,1,2.38,1.5,4.8,1.48a36,36,0,0,0,4.68-.61Z"/><path class="cls-5" d="M239.92,23.42c-7.12-1.5-12.66,4-12.66,4s2.06,4.37,2.63,5.67a4.87,4.87,0,0,1-.31,2.51,5.47,5.47,0,0,1,2.69.23h0l9.35-.09Zm-.63,8.07c-.4.4-3.68,3.45-4.44,3.23s-1.6-2.06-1.91-2.67a3.53,3.53,0,0,1,2.53-1,9.28,9.28,0,0,0,3.26-.41"/><path class="cls-6" d="M240.27,27.59l-5-.15-3.76,2.88L234.88,27A34.27,34.27,0,0,1,240.27,27.59Z"/><path class="cls-7" d="M240.27,27.59a16.13,16.13,0,0,0-2.27.18c-.86.1-1.8.17-2.71.19l.33-.11c-1.2,1-2.43,2-3.68,3a.64.64,0,0,1-.84-1c1.12-1.11,2.25-2.21,3.42-3.27l0,0a.45.45,0,0,1,.35-.11c.91.09,1.81.21,2.71.38A12.76,12.76,0,0,1,240.27,27.59Zm0,0c-.91-.09-1.81-.1-2.71-.11h-2.7l.39-.16c-1.05,1.18-2.14,2.32-3.24,3.45l-.84-.95c1.25-.95,2.52-1.89,3.82-2.78l0,0a.49.49,0,0,1,.28-.07,19.36,19.36,0,0,1,2.26.34A20.68,20.68,0,0,0,240.27,27.59Z"/><path class="cls-2" d="M232.27,35.79l-2.77,0a2.58,2.58,0,0,0,.08-.26A5.47,5.47,0,0,1,232.27,35.79Z"/><path class="cls-2" d="M246.83,35.66c-.25.05-2.63.57-5.06,1a36,36,0,0,1-4.68.61c-2.42,0-1.76-.5-4.8-1.48l9.35-.09Z"/><path class="cls-3" d="M246.64,72.44c-2.27,1.85-4.55,3.64-6.79,5.37-1.17-2.67-6.7-16-5.57-26.88,1.41,2.3,2.85,4.31,3.87,4.88a5.78,5.78,0,0,0,3.08,0,49.55,49.55,0,0,0,1.39,5.76l-.13,0,.13,0A101.36,101.36,0,0,0,246.64,72.44Z"/><path class="cls-3" d="M260.92,50a38.49,38.49,0,0,1-18.3,11.55,49.55,49.55,0,0,1-1.39-5.76c.92-.14,2-.36,3.13-.64C250.1,53.81,258,51.07,260.92,50Z"/><path class="cls-2" d="M268,39c-.43-1.78-1.21-5.15-1.72-7.88Z"/><path class="cls-3" d="M268.86,25.25c-.73.75-1.69,3.09-2.62,5.84-1.77,5.18-5.16,18.05-5.21,18.3L260.85,29c1.49-1.81,3.24-14.94,3.24-14.94a12.71,12.71,0,0,0,.64,2.11C266.05,19.66,268.86,25.25,268.86,25.25Z"/><path class="cls-3" d="M237.54,6.35l-6.42,5.7,1-3.6a30.63,30.63,0,0,1,5.34-2.51Z"/><path class="cls-3" d="M232.14,8.45c-.18.19-.36.4-.53.61a20.61,20.61,0,0,0-3.28,5.48h0l-4.28,3.81a34.94,34.94,0,0,1,2.84-5A16.38,16.38,0,0,1,232.14,8.45Z"/><path class="cls-3" d="M232.14,8.45l-1,3.6-2.79,2.49a20.61,20.61,0,0,1,3.28-5.48C231.78,8.85,232,8.64,232.14,8.45Z"/><path class="cls-2" d="M238.37,5.61l-.83.74-.06-.41Z"/><path class="cls-2" d="M224.05,18.35c-1,2.26-.57,2.78-.55,2.91"/><g id="Hand-2" data-name="Hand"><path class="cls-2" d="M252.05,125l-2.14-.16A12.56,12.56,0,0,1,252.05,125Z"/><path class="cls-2" d="M253.56,128.09l-2.86.15A8.09,8.09,0,0,1,253.56,128.09Z"/><path class="cls-5" d="M250.12,124.83h0a10.18,10.18,0,0,1,1.93.15Zm.78,3.39h-.19a8.28,8.28,0,0,1,2.85-.14Z"/><path class="cls-2" d="M252.05,125l-2.14-.16A12.56,12.56,0,0,1,252.05,125Z"/><path class="cls-2" d="M253.56,128.09l-2.86.15A8.09,8.09,0,0,1,253.56,128.09Z"/><path class="cls-2" d="M257,120.68l-4.15.11a9.25,9.25,0,0,0,3.05-1A4.87,4.87,0,0,0,257,120.68Z"/><path class="cls-2" d="M257,120.68l-4.15.11a9.25,9.25,0,0,0,3.05-1A4.87,4.87,0,0,0,257,120.68Z"/></g><path class="cls-2" d="M229.26,36.6a7.33,7.33,0,0,1-.56-.77c-2.54-4-5.24-14.61-5.24-14.61"/><path class="cls-3" d="M247.5,37.4l-5.25,2.66-.48-3.39c2.43-.44,4.81-1,5.06-1l0,0s0,0,0,0C247.1,36.27,247.32,36.85,247.5,37.4Z"/><path class="cls-3" d="M246.86,35.64l0,0-5.19.05-1.72-12.29a13.92,13.92,0,0,1,1.43.39S244.92,30.64,246.86,35.64Z"/><path class="cls-2" d="M246.83,35.66c-.25.05-2.63.57-5.06,1l-.13-1Z"/><path class="cls-3" d="M239.92,23.42c-7.12-1.5-12.66,4-12.66,4l-.44-.13.31-1.1,4-14.1,6.42-5.7Z"/><path class="cls-3" d="M247.5,37.4c-.18-.55-.4-1.13-.64-1.75,0,0,0,0,0,0-1.94-5-5.51-11.83-5.51-11.83a13.92,13.92,0,0,0-1.43-.39L237.54,6.35l.83-.74-.89.33c2.13-2.1,7.1-4.32,7.1-4.32a3.57,3.57,0,0,1,1.07.9c1.14,1.42,1.6,4,2.35,8.64.95,5.91-.39,14.29-.39,14.29C248.42,27.48,248.16,32.2,247.5,37.4Z"/><path class="cls-2" d="M238.37,5.61l-.83.74-.06-.41Z"/><path class="cls-3" d="M268,39h0a41.46,41.46,0,0,1-7,11.06c-2.93,1-10.82,3.77-16.56,5.15.75-3.57,2.28-11.08,3.14-17.79.66-5.2.92-9.92.11-11.95,0,0,1.34-8.38.39-14.29-.75-4.66-1.21-7.22-2.35-8.64a20.26,20.26,0,0,1,2.79-.62s3.33.83,5.79,1.62,6,5.23,6.21,5.46a9.33,9.33,0,0,0,2.45,1.17c.62.11,2.91,3.1,2.62,3.3a10.93,10.93,0,0,0-.78,2.68,12.71,12.71,0,0,1-.64-2.11S262.34,27.15,260.85,29L260.92,50c.05-.25,3.55-13.77,5.32-18.95C266.75,33.82,267.53,37.19,268,39Z"/><path class="cls-3" d="M244.36,55.19l-2.11-15.13,5.25-2.66C246.64,44.11,245.11,51.62,244.36,55.19Z"/><path class="cls-2" d="M232.27,35.79l-2.77,0h-.8a.92.92,0,0,1,.23-.09,5.06,5.06,0,0,1,.65-.18A5.47,5.47,0,0,1,232.27,35.79Z"/><path class="cls-3" d="M246.83,35.66c-.25.05-2.63.57-5.06,1a36,36,0,0,1-4.68.61c-2.42,0-1.76-.5-4.8-1.48l9.35-.09Z"/><path class="cls-4" d="M213.27,106.13l.07,0"/><path class="cls-3" d="M211.39,104.54c-.66-.4-1.22-.67-1.43-.77l-.11,0s0,0-.06,0l-.09,0h-.17v0H209s-3.09-4.68-4.76-7.33h0l-.48-.93a16.86,16.86,0,0,0,.89-1.59A3,3,0,0,1,206.91,92a10.08,10.08,0,0,1,.23,1.74,9.82,9.82,0,0,0,.87,4l-.09,0,2.27,5.7Z"/><path class="cls-2" d="M209.53,103.71v0H209s-2.22-2.82-3.86-5.41c-.26-.41-.61-1-1-1.85l-.13-.25-.31-.61h0l.1-.17.48.93h0c1.67,2.65,4.76,7.33,4.76,7.33h.54Z"/><path class="cls-3" d="M244.36,55.19c-1.15.28-2.21.5-3.13.64a5.78,5.78,0,0,1-3.08,0c-1-.57-2.46-2.58-3.87-4.88-1.1-1.77-2.17-3.72-3-5.3l11-5.57Z"/><path class="cls-2" d="M213.12,62.08l-3.51,11.28a0,0,0,0,0,0,0c-.11-.18-.33-.35-.26-.52C210,71.25,213.12,62.08,213.12,62.08Z"/><path class="cls-2" d="M217,76.86a9.71,9.71,0,0,1-2.49,2.9l0-.06Z"/><path class="cls-4" d="M209.6,73.35l-.06-.06"/><path class="cls-4" d="M204.32,88.89h0"/><path class="cls-2" d="M217,76.86a9.71,9.71,0,0,1-2.49,2.9c-.13.11-.24.18-.3.24l.27-.3Z"/><path class="cls-2" d="M166.54,64.78a.59.59,0,0,0-.08.08c-.8.76-4.06,3.8-6.82,4.79l6.78-4.79Z"/><path class="cls-3" d="M226,28l-2.54-6.75h0l.55-2.91,4.28-3.81A35.7,35.7,0,0,0,226,28Z"/><path class="cls-3" d="M231.12,12.05l-4,14.1-.31,1.1-.47,1.64L226,28a35.7,35.7,0,0,1,2.31-13.48h0Z"/><path class="cls-3" d="M229.58,35.56a5.06,5.06,0,0,0-.65.18l-2.58-6.84h0l.47-1.64.44.13s2.06,4.37,2.63,5.67A4.87,4.87,0,0,1,229.58,35.56Z"/><path class="cls-2" d="M226.35,28.89h0l-.28,1c0-.58,0-1.21,0-1.86Z"/><path class="cls-3" d="M232.14,8.45l-1,3.6-2.79,2.49a20.61,20.61,0,0,1,3.28-5.48C231.78,8.85,232,8.64,232.14,8.45Z"/><path class="cls-8" d="M248.24,13.21c-2.54-2.1-7.76-5-16.63-4.15l-.48,0"/><path class="cls-9" d="M239.29,31.49c-.4.4-3.68,3.45-4.44,3.23s-1.6-2.06-1.91-2.67a3.53,3.53,0,0,1,2.53-1,9.28,9.28,0,0,0,3.26-.41"/><path class="cls-7" d="M239.34,31.53c-.5.56-1,1.09-1.56,1.61a14.53,14.53,0,0,1-1.72,1.48,3.17,3.17,0,0,1-.51.32,1.61,1.61,0,0,1-.32.14.9.9,0,0,1-.49,0,1.57,1.57,0,0,1-.64-.42,5.84,5.84,0,0,1-.42-.46,18.33,18.33,0,0,1-1.27-1.93l.14-.71a4.13,4.13,0,0,1,1.45-1,3.08,3.08,0,0,1,.91-.2,4,4,0,0,1,.85.07,21.69,21.69,0,0,0,3,.09l0,.12a6.26,6.26,0,0,1-3,1,3,3,0,0,0-.67,0,3,3,0,0,0-.57.16,4.26,4.26,0,0,0-1.14.62l.14-.72a13.15,13.15,0,0,0,1,1.91,2.86,2.86,0,0,0,.53.64c-.06,0,.12,0,.26-.08a3.71,3.71,0,0,0,.45-.22,27.69,27.69,0,0,0,3.57-2.59Z"/><path class="cls-2" d="M297.79,67.24l-.59,1A1.74,1.74,0,0,1,297.79,67.24Z"/><path class="cls-3" d="M259.26,61.62c-4,3.71-8.33,7.35-12.62,10.82a101.36,101.36,0,0,1-4-10.84l.2,0A58.82,58.82,0,0,0,259.26,61.62Z"/><path class="cls-3" d="M274,56.05a36.12,36.12,0,0,1-4,7.86c-2.29,2.86-54.51,40.66-56.6,42.17a8,8,0,0,0-2-1.54h0l-1.2-1-2.27-5.7.09,0A2.41,2.41,0,0,0,209,99c-2.17,2,13.36-7.63,30.87-21.15,2.24-1.73,4.52-3.52,6.79-5.37,4.29-3.47,8.57-7.11,12.62-10.82a7.77,7.77,0,0,0,1.66-.45,7.63,7.63,0,0,0,1.87-1.47A64.18,64.18,0,0,0,274,56.05Z"/><path class="cls-3" d="M274,56.06h0a64.18,64.18,0,0,1-11.19,3.65c2.95-2.91,7.31-9.07,9.07-11.62.53,1,1.4,2.58,2.24,3.92a15,15,0,0,0,1.5,2.12C276.12,54.67,275.41,55.35,274,56.06Z"/><path class="cls-3" d="M284.6,127.73l-.18,0c-.43-2.16-5.35-7.59-8.06-8.89"/><path class="cls-3" d="M278.28,118.3c3.64-.18,6.32,9.43,6.32,9.43"/><path class="cls-3" d="M276.16,118.89c1.28-.34,2.12-.59,2.12-.59"/><path class="cls-10" d="M278.87,105.56l2.35-5.39a4.49,4.49,0,0,0,1.33,1.87C284.08,103.12,279.69,104.92,278.87,105.56Z"/><path class="cls-10" d="M277.39,112.82c-1.33,1.31-2.62,3.65-3.94,5.21l5.17-11.89C278.39,107.59,278.89,111.32,277.39,112.82Z"/><path class="cls-10" d="M282.78,96.59l-1.56,3.58a11.94,11.94,0,0,1-.72-2.55A11.08,11.08,0,0,0,282.78,96.59Z"/><path class="cls-3" d="M253,120.79h-.2a9.25,9.25,0,0,0,3.05-1,4.87,4.87,0,0,0,1.1.93Z"/><path class="cls-3" d="M307.7,108.59a.77.77,0,0,1-.69.41c-2,0-6.33.19-7.58,1.4a.79.79,0,0,0-.19.39l-.43,2.27a.81.81,0,0,0,0,.16,29.76,29.76,0,0,0,.64,5.69,11.47,11.47,0,0,0,.59,1.85.82.82,0,0,1-.45,1.08c-1.29.53-3.65,1.61-3.94,2.54-.41,1.29-2.41,9.29-1.1,11.72.42.78-.84,1.06-2.9.84a1,1,0,0,1-.29-.09l-.75-.39-.08,0a.1.1,0,0,0,0,0l-.16-.09-.3-.18a20.53,20.53,0,0,1-1.79-1.19c-.3-.23-.6-.47-.88-.73a1.94,1.94,0,0,1-.21-.2,6.25,6.25,0,0,1-1.52-2,21,21,0,0,1-.95-4.09s0-.09,0-.15-7-9.21-8.26-8.87h0l-.17-.07c-.48-.2-.93-.37-1.35-.5a.81.81,0,0,1-.42-1.26,36.83,36.83,0,0,1,3.18-4.24c1.47-1.45,1-5,1.22-6.57a.45.45,0,0,1,0-.11.25.25,0,0,1,0-.11l.1-.25a.78.78,0,0,1,.31-.36c1.17-.74,4.88-2.38,3.46-3.38a4,4,0,0,1-1.15-1.51.86.86,0,0,1,0-.7L283,96.57a1.81,1.81,0,0,0,.38-.31.52.52,0,0,0,.15-.53.89.89,0,0,1,.06-.51L289,82.8c-.58,1.24-3.71,8-4.94,10.28a3.64,3.64,0,0,0-.63,2.2.77.77,0,0,1-.07.45l-.26.61a.87.87,0,0,1-.3.36,9.22,9.22,0,0,1-1.44.67.82.82,0,0,0-.5.94,13.51,13.51,0,0,0,.46,1.52.81.81,0,0,1,0,.63l-2.22,5.08,0,0a1,1,0,0,0-.21.54L273.66,118h0a3.45,3.45,0,0,0-1.23,0,.8.8,0,0,0-.39.25,4.43,4.43,0,0,0-1,2v0a52.23,52.23,0,0,1-5.41,1.12l-.32,0h-.18a.79.79,0,0,1-.59-.2L258,115.5a.52.52,0,0,0-.43,0h0c-1.56.27-6.25,3.29-6.68,3.28s.69,1.9,1.46,2.05l.33,0H253l-.29.47h-.19l-2.88-.23a.46.46,0,0,0-.23,0,.61.61,0,0,0-.28.11l-.88.58a.4.4,0,0,0-.16.28,4.32,4.32,0,0,0,.39,2.4.76.76,0,0,0,.67.37l.69,0h.27l-.66.64a.39.39,0,0,0-.09.33,8.54,8.54,0,0,0,.61,2.36.57.57,0,0,0,.44.1h0l.14,0h.09s0,0,0,0h.19a1,1,0,0,0,.12.78c.62,1,.73,1.67.94,1.87a1.59,1.59,0,0,0,.55.13.92.92,0,0,1,.25.09.45.45,0,0,1,.19.15.74.74,0,0,1,.23.52c0,.34,1.07-.1,1.14.06s-7.54,3.8-9.3,4.84c-.31.17-.33.69-2.15.21l-21.62-17.74c-2.26-3.41-6.38-9.4-6.42-9.49-.41-.76-1.35-.83-1.59-1.52l.6-.67c.18-.27.28-.45.28-.45a1.89,1.89,0,0,0-.16-.36.82.82,0,0,1,.23-1c6.38-4.61,53.78-39,56-41.7a36.28,36.28,0,0,0,4-7.85h0c1.42-.71,2.13-1.39,1.61-1.93a16.26,16.26,0,0,1-1.5-2.12h0s7.2,5,12.73,6.29a.67.67,0,0,1,.36.19A10.86,10.86,0,0,0,290,60.37c1.12.45.74-.5,2,.87A20,20,0,0,1,294.44,64c.49.82,2.69.19,3.7.79s1.17,1,.81,1.68c-.22.39-.6.5-.95.79a1.79,1.79,0,0,0-.59,1l.59-1c.09,1.08.47,4.61,1.81,6.15,1.58,1.83,2.89,3.37,3.11,5.59s5.42,22.78,5.95,23.37c.25.28.44.47.55.59a.78.78,0,0,1,.21.45A8.83,8.83,0,0,0,310,105C310.09,105.3,308.49,107.16,307.7,108.59Z"/><path class="cls-2" d="M278.83,105.6l0,0-.25.58A1,1,0,0,1,278.83,105.6Z"/><path class="cls-2" d="M273.45,118l5.17-11.89c-.23,1.45.27,5.18-1.23,6.68C276.06,114.13,274.77,116.47,273.45,118Z"/><path class="cls-2" d="M280.5,97.62a11.08,11.08,0,0,0,2.28-1l-1.56,3.58A11.94,11.94,0,0,1,280.5,97.62Z"/><path class="cls-2" d="M282.78,96.59l.47-1.07c.08.29.18.45-.09.75A2.07,2.07,0,0,1,282.78,96.59Z"/><path class="cls-2" d="M278.87,105.56l2.35-5.39a4.49,4.49,0,0,0,1.33,1.87C284.08,103.12,279.69,104.92,278.87,105.56Z"/><path class="cls-2" d="M288.78,82.81l-5.53,12.71c-.11-.38-.18-1,.59-2.42C285.07,90.78,288.2,84.05,288.78,82.81Z"/><path class="cls-2" d="M297.79,67.24l-.59,1A1.74,1.74,0,0,1,297.79,67.24Z"/><path class="cls-4" d="M297.79,67.24c0-.21,0-.33,0-.33"/><path class="cls-3" d="M307.08,109.86a10.36,10.36,0,0,0-2,7,28.3,28.3,0,0,0-5.89,2.11,28.76,28.76,0,0,1-.64-5.77l.48-2.57c1.09-1.49,6.52-1.57,8.22-1.57A1.8,1.8,0,0,0,307.08,109.86Z"/><path class="cls-2" d="M291.35,136.85c-4.31-.5-11.83-3.06-14.79-7.83"/><path class="cls-2" d="M276.45,129.05l4.21-.68h0l3.75-.45a21,21,0,0,0,.95,4.09,6.25,6.25,0,0,0,1.52,2l.21.2c.28.26.58.5.88.73a20.53,20.53,0,0,0,1.79,1.19l.59.34"/><path class="cls-2" d="M276.15,118.89c-1.43.4-3.41.92-5.37,1.39a4.74,4.74,0,0,1,1.2-2.21,2.86,2.86,0,0,1,1.46,0h0A12.65,12.65,0,0,1,276.15,118.89Z"/><path class="cls-2" d="M278.83,105.6l0,0-.25.58A1,1,0,0,1,278.83,105.6Z"/><path class="cls-2" d="M273.45,118l5.17-11.89c-.23,1.45.27,5.18-1.23,6.68C276.06,114.13,274.77,116.47,273.45,118Z"/><path class="cls-2" d="M282.78,96.59l-1.56,3.58a11.94,11.94,0,0,1-.72-2.55A11.08,11.08,0,0,0,282.78,96.59Z"/><path class="cls-2" d="M283.16,96.27a2.07,2.07,0,0,1-.38.32l.47-1.07C283.33,95.81,283.43,96,283.16,96.27Z"/><path class="cls-2" d="M278.87,105.56l2.35-5.39a4.49,4.49,0,0,0,1.33,1.87C284.08,103.12,279.69,104.92,278.87,105.56Z"/><path class="cls-2" d="M288.78,82.81l-5.53,12.71c-.11-.38-.18-1,.59-2.42C285.07,90.78,288.2,84.05,288.78,82.81Z"/><path class="cls-3" d="M202.85,107.86c-4.51.34-11.39-2.91-16.66-3.93a91.55,91.55,0,0,0-21.69-1.25,4,4,0,0,0-1-.8c-.68-.2-.4-1.89-.91-4,0,0,0,0,0-.08a8.65,8.65,0,0,0-2.35-4.11s12.1,3.35,14.15,3.48,10.23-3.26,14.33-.91a7.51,7.51,0,0,0,4.14,1.2h.27a9.66,9.66,0,0,1,3.6,1.76,3,3,0,0,0,1.21.6l0,.08h0a.56.56,0,0,0,.09.17,1,1,0,0,0,0,.1c1.16,2.22,2.56,4.36,3.9,6.4Z"/><path class="cls-2" d="M202,106.6c-1.34-2-2.74-4.18-3.9-6.4a1,1,0,0,1,0-.1.56.56,0,0,1-.09-.17h0l0-.08a3,3,0,0,1-1.21-.6,9.66,9.66,0,0,0-3.6-1.76l.23,0h0a6.52,6.52,0,0,1,3.31,1.66,3.11,3.11,0,0,0,1.23.6l.25,0h.09s0,0,0,0h0a0,0,0,0,0,0,0l.07.14C199.54,102.31,200.75,104.52,202,106.6Z"/><path class="cls-3" d="M237.47,144.62a.68.68,0,0,1-.2.59c-.4.38-1.27.31-1.71.61-.6.41-3.2,3.17-3.51,4.81a2.46,2.46,0,0,1-.07.29h0c-.46,1.42-2.1,2-3.13,2.88s-4.31,3.61-4.69,6.27c0,0-2.91-11.38-7.54-14.35s-19.73-8.33-22-8.23c.11.18-11.71-5-17.9-17.18-.49-1-3.95-8.16-7.12-11.93,5.44,0,11.9.48,15.47,1.45,4.37,1.18,14.67,3.78,14.29,3.81a14.32,14.32,0,0,0,7.58-.18c10.16,12.44,26,24.53,32,29A6,6,0,0,0,237.47,144.62Z"/><path class="cls-4" d="M254.87,188.4v0h0c0,.05-.12.22-.22.43a.05.05,0,0,1,0,0l-.23.43a1.34,1.34,0,0,1-.06.12.67.67,0,0,0-.06.12.09.09,0,0,0,0,.05.43.43,0,0,1,0,.07s0,0,0,0l0,.06"/><path class="cls-3" d="M238.35,157.72c-2.17-2.35-4.61-4.95-6.37-6.8h0a2.46,2.46,0,0,0,.07-.29c.31-1.64,2.91-4.4,3.51-4.81.44-.3,1.31-.23,1.71-.61A85.26,85.26,0,0,1,238.35,157.72Z"/><path class="cls-11" d="M255.07,188.05l-.2.37h0a25.72,25.72,0,0,0-5.07,7.81s-18.73,1.6-19.26,2.4-37.29-13.39-48.93-7.7a.58.58,0,0,1-.23.08,10.37,10.37,0,0,1,1.79-3.94,36.11,36.11,0,0,0,3.51-6.12l.2.06a11,11,0,0,0,1.49-4v0c.07-.22.13-.42.17-.6a9.94,9.94,0,0,0,.18-1.8,45.06,45.06,0,0,0,.19-5.7l-.94-.42a7.16,7.16,0,0,0-.91-2.07c3.75.84,12.56,2.78,13.32,2.66a.8.8,0,0,0,.2-.06c-3.35-3-11.26-10.47-13.09-15.9,0,0-2.33-5.17-3.55-8.88-12.56-3.56-33.67-9.82-42.76-14-8.78.16-24.64.58-26.73,1.63a11.25,11.25,0,0,1-6.52.93,27.8,27.8,0,0,0-6.79,1.51c-1.52.64-11.51,1.07-13.16.75s-9,0-11.63.11-13.05.08-14.34,1.31c.65-1.38-3-12.57-1.43-15.34a8.79,8.79,0,0,0,.76-3.1,76.13,76.13,0,0,0-.2-11.91,20.76,20.76,0,0,0-.89-3.77,8.64,8.64,0,0,1-.52-1.92l.1,0a7.91,7.91,0,0,0,3.75.14,20.72,20.72,0,0,1,8.5-.49c3.21.62,37.77.35,38.91-.14s6.75-.46,9.07-.72,6.17,2.58,7.31,2.1a9.24,9.24,0,0,1,1.23-.34h0a31.18,31.18,0,0,0,4.2,2.63l0,0,1.4,1.59a6.29,6.29,0,0,1,2.66-3.41,31.4,31.4,0,0,1,4-2,38.31,38.31,0,0,0,5.71.61c2.29-.09,9.13-1.07,11.08-2.11,1-.56,3.2-.55,4.92-.42.51,2.1.23,3.79.91,4a4,4,0,0,1,1,.8,91.55,91.55,0,0,1,21.69,1.25c5.27,1,12.15,4.27,16.66,3.93L202,106.6c.3.44.59.88.87,1.31a6.37,6.37,0,0,0,1.33-.22,8.66,8.66,0,0,0,1.1-.44,7.2,7.2,0,0,1-1.12.46,6.26,6.26,0,0,1-1.33.22c-4.51.35-11.39-2.9-16.65-3.93a92.68,92.68,0,0,0-21.69-1.25c-4.37.24-7.19.66-7.2.68l2.91,6.45c0-1,4.23-1.48,9.38-1.5,3.17,3.77,6.63,11,7.12,11.93,6.19,12.18,18,17.36,17.9,17.18,2.23-.1,17.32,5.27,22,8.23s7.54,14.35,7.54,14.35c.38-2.66,3.61-5.31,4.69-6.27s2.67-1.46,3.13-2.88c1.76,1.85,4.2,4.45,6.37,6.8a50.79,50.79,0,0,1,4.88,5.7c.31,1.09,2.86,1.19,3.77,3.18a60.87,60.87,0,0,0,3.72,6.26C251.32,173.76,257.06,184.3,255.07,188.05Z"/><path class="cls-4" d="M254.87,188.42l-.23.43a.05.05,0,0,1,0,0c-.09.18-.16.32-.23.43a1.34,1.34,0,0,1-.06.12.67.67,0,0,0-.06.12.09.09,0,0,0,0,.05.43.43,0,0,1,0,.07l0,0,0,.06h0v0"/><path class="cls-2" d="M186.67,181a36.11,36.11,0,0,1-3.51,6.12,10.37,10.37,0,0,0-1.79,3.94c-.16,0-.28-.06-.42-.43a40.54,40.54,0,0,1-2-11.3c0-.32.07-.32.07-.32s1.62.3,3.59.75h0C184.37,180.24,185.92,180.72,186.67,181Z"/><path class="cls-4" d="M186.75,180.78a1.3,1.3,0,0,0-.08.17c-.75-.23-2.3-.71-4.06-1.23C184,180,185.47,180.4,186.75,180.78Z"/><path class="cls-2" d="M188,168.48a10.55,10.55,0,0,0-2.6-.91,21.14,21.14,0,0,1-2.33,0c.79-1.08,2.11-2.41,3.35-1.79a1.87,1.87,0,0,1,.67.63A7.16,7.16,0,0,1,188,168.48Z"/><path class="cls-4" d="M188,168.48a23.25,23.25,0,0,1,.75,6.12"/><path class="cls-4" d="M188.36,177a34.71,34.71,0,0,1-1.61,3.76"/><path class="cls-4" d="M183,167.57h0"/><path class="cls-4" d="M241.54,175.72s-16.93-2.2-19.33-3.43S222,168,218,168.75s-17.17-.55-17.17-.55.47.6-.21.81"/><path class="cls-2" d="M61.15,118.67a4,4,0,0,1-.53,2.14c-1.54,2.77,2.18,14.09,1.53,15.46h0a.76.76,0,0,0-.08.11s-11.18-10.93-12.61-20"/><path class="cls-2" d="M60.24,102.32l-9.09.73c5.25-3.84,8.31-2.8,8.67-2.65v0l-.1,0A8.64,8.64,0,0,0,60.24,102.32Z"/><path class="cls-4" d="M59.86,100.42l0,0"/><path class="cls-4" d="M141.17,130.2a19.08,19.08,0,0,1-3.58-2"/><path class="cls-4" d="M193.82,147s-4-1.08-9.89-2.75"/><g id="Hand_2" data-name="Hand 2"><path class="cls-4" d="M100.9,84.72c.48-.56.9-.85,1.27-1.34s1.23.33,1.36.63a6,6,0,0,1,0,2.68,12.41,12.41,0,0,1-3.6,2.47,1.35,1.35,0,0,1-.41,0"/><path class="cls-4" d="M99.88,88.14c-.2.09-.34.48-.41,1"/></g><path class="cls-5" d="M99.19,89A33.47,33.47,0,0,0,102,86.34c1.44-1.78.52-2.18.34-2.53s-1.41-.66-1.41-.66"/><g id="Belt-2" data-name="Belt"><path class="cls-2" d="M213.63,107.47h0c-.1.18-.24.4-.39.65h0a16.82,16.82,0,0,1-2.46,3.33,11.41,11.41,0,0,1-3.8,2c-1.18-1.46-2.29-2.9-3.29-4.35-.27-.38-.54-.78-.8-1.18a6.26,6.26,0,0,0,1.33-.22,7.2,7.2,0,0,0,1.12-.46,3.49,3.49,0,0,0,.39-.19h0l.4-.22.45-.27c.21-.12.42-.26.62-.4a7.7,7.7,0,0,0,2.06-1.89.67.67,0,0,0,.09-.14,1.45,1.45,0,0,0,.16-.4h.17l.09,0s0,0,.06,0l.11,0c.21.1.77.37,1.43.77h0l1.88,1.59A9.24,9.24,0,0,0,213.63,107.47Z"/><path class="cls-2" d="M209.53,103.73a1.45,1.45,0,0,1-.16.4,1.37,1.37,0,0,0,.14-.4Z"/><path class="cls-2" d="M213.9,107s-.09.17-.27.45a9.24,9.24,0,0,1-.36-1.34l-1.88-1.59a8,8,0,0,1,2,1.54A2.64,2.64,0,0,1,213.9,107Z"/><path class="cls-4" d="M209.51,103.73a.49.49,0,0,0,0-.12"/><path class="cls-2" d="M207,113.46a14.32,14.32,0,0,1-7.58.18c.38,0-9.92-2.63-14.29-3.81-3.57-1-10-1.47-15.47-1.45-5.15,0-9.4.5-9.38,1.5l-2.91-6.45s2.83-.44,7.2-.68A92.68,92.68,0,0,1,186.24,104c5.26,1,12.14,4.28,16.65,3.93.26.4.53.8.8,1.18C204.69,110.56,205.8,112,207,113.46Z"/><path class="cls-2" d="M241.48,144.21s-.92-.64-2.48-1.78c-6.05-4.44-21.86-16.53-32-29a11.41,11.41,0,0,0,3.8-2,16.82,16.82,0,0,0,2.46-3.33l1.44,1.67C220.89,121.15,244,138,244,137.32c0-.08.11-.19.3-.33.29.1.57.19.85.26C245.17,137.25,241.28,143.17,241.48,144.21Z"/><path class="cls-3" d="M198.26,99.77a.93.93,0,0,0,.05.1h0s0,0,0,0h0l-.22,0-.13,0a3,3,0,0,1-1.21-.6,6.1,6.1,0,0,0-2.54-1.49,7.84,7.84,0,0,0,2.52-.48"/><path class="cls-4" d="M198.79,100.16l-.48-.28"/><polygon class="cls-2" points="174.01 60.69 173.95 60.72 173.95 60.71 174.01 60.69"/><path class="cls-2" d="M198.1,100.1a.56.56,0,0,1-.09-.17h0Z"/><polygon class="cls-2" points="174.01 60.69 173.95 60.72 173.95 60.71 174.01 60.69"/><path class="cls-2" d="M204.23,96.37h0a2.22,2.22,0,0,1-.15-.23l-.12.07-.31-.61h0l.1-.17Z"/></g><path class="cls-2" d="M61.36,117.71,61.11,119"/></g><g id="Ninja_3-4" data-name="Ninja 3"><g id="Sleeve_right-3" data-name="Sleeve right"><path class="cls-2" d="M206.17,60.75,202.65,72h0a2.11,2.11,0,0,1-.26-.52C201.69,69.48,206.17,60.75,206.17,60.75Z"/><path class="cls-2" d="M125.85,102.27a30.56,30.56,0,0,1-4.2-2.63c-1.93-1.48-3.76-3.38-4.18-5.51a67.8,67.8,0,0,0-2-8.18s1.5-.56,2.9-1.16h0a22.51,22.51,0,0,1,1.2,4.91,7.28,7.28,0,0,0,.15,1A19.87,19.87,0,0,0,121,94.21c.19.41.39.84.6,1.26s.44.89.67,1.31.45.82.68,1.23l.08.1A42.84,42.84,0,0,0,125.85,102.27Z"/><path class="cls-2" d="M125.89,102.29l0,0A42.84,42.84,0,0,1,123,98.11Z"/><path class="cls-2" d="M125.89,102.29l0,0A42.84,42.84,0,0,1,123,98.11Z"/><path class="cls-3" d="M182.83,81.53c-2.82.68-17.6,5.84-19.72,6.38s-3.63,0-7.29,1.58c-2.82,1.23-15.2,6.05-21.85,9a30.7,30.7,0,0,0-4,2,6.29,6.29,0,0,0-2.67,3.41l-1.39-1.59,0,0,0,0L123,98.11l-.08-.1c-.23-.41-.46-.81-.68-1.23s-.45-.86-.67-1.31-.41-.85-.6-1.26a19.87,19.87,0,0,1-1.23-3.55,7.28,7.28,0,0,1-.15-1,22.51,22.51,0,0,0-1.2-4.91h0c0-.06-.32-1-.67-1.91h0c-.06-.14-.11-.29-.17-.43l-.08-.21h0a1.07,1.07,0,0,1-.07-.19c-.63-1.65-1.25-3.16-1.67-4.14l-.12-.29a.78.78,0,0,1,0-.14h0c-.21-.49-.34-.77-.34-.77,2.33-1.59,8.23-.72,13.52-3.26s4.85-1.61,8.06-2.52a120.87,120.87,0,0,0,13.39-5.32c2.17-1.12,6.71-1.77,9.31-2.05l-6.78,4.78c2.75-1,6-4,6.81-4.79h0l.07-.08.1-.1c.86-.89,4-2.45,7.07-3.86a7.61,7.61,0,0,0,.43.86c.54.91,6.66,6.14,8.11,7.8l7.53,13.38.24,0"/><path class="cls-2" d="M159.47,63.54h0c-.79.76-4.06,3.8-6.81,4.79Z"/><path class="cls-2" d="M119.56,89.71a22.51,22.51,0,0,0-1.2-4.91h0"/><path class="cls-4" d="M118.36,84.78l-.06-.2c0-.13-.1-.27-.14-.4s-.18-.54-.3-.84-.12-.32-.17-.47-.11-.3-.16-.44a1.8,1.8,0,0,1-.08-.21"/><path class="cls-4" d="M115.59,77.59a1.39,1.39,0,0,1-.06-.13"/></g><g id="foot_2-3" data-name="foot 2"><path class="cls-5" d="M181.41,175.67v0a11,11,0,0,1-1.48,4l-.2-.06c-.76-.23-2.3-.71-4.07-1.23h0a84.37,84.37,0,0,0-8.46-2.21c-.93,0-4.16-2.06-4.92-2.21s-6.35-1.9-7.91-2-8.39-2.29-10.16-2.83a17,17,0,0,1-3.74-.16c-1.13-.32-2.09-2.3-3.58-2.72a15.79,15.79,0,0,1-2.69-1.58c-.36-.18-.57-1.52-.84-1.67s-2.37-1-3-2.62-1.81-5.45-1.66-6.26c.06-.35,3.74-1.2,5.24-.65,1.34.5,2.7.85,3.33,1.17s3.48-.13,4.57.37a27.93,27.93,0,0,1,4.2,2.29c3.13,3,11.15,2.85,13,3s4.9-2.91,8.14-2.48c4.72.63,6.21,5.92,6.54,8.36l2.38.1h0a19,19,0,0,0,2.34,0,10.39,10.39,0,0,1,2.59.92l.95.42a49.06,49.06,0,0,1-.19,5.69C181.67,174.08,181.56,174.9,181.41,175.67Z"/></g><path id="Foot_1" data-name="Foot 1" class="cls-12" d="M54.9,100.76s-11.08.79-13.7,1.31a75.51,75.51,0,0,1-8.56,1.33c-1.72,0-3.45.42-4.34-.29a49.07,49.07,0,0,0-5.44-3.49,23.11,23.11,0,0,0-3.92-1.45,53.72,53.72,0,0,0-5.4-3.32c-.91-.26-1-.1-3.06-.49a62.32,62.32,0,0,1-6.75-2.17c-.58-.2-2.11-1.76-2.89-.86a2.45,2.45,0,0,0-.31,2.53c.19.83,1,2.92,1.89,3.43s7.45,5.3,8.56,7.43c1,1.85,1.65,1.89,2.41,5.28.91,4.07,1.79,7.19,3.28,8.09s5.16,1.34,8.85-2S45,115.42,45,115.42l11,2.53Z"/><path class="cls-3" d="M265.69,45.6s-.28.43-.78,1.15h0c-1.76,2.55-6.12,8.71-9.08,11.63A7.78,7.78,0,0,1,254,59.84a8.13,8.13,0,0,1-1.66.45,58.89,58.89,0,0,1-16.45,0l-.19,0v0A38.4,38.4,0,0,0,254,48.71a41.46,41.46,0,0,0,7-11.06h0c.33-.75.65-1.53.95-2.34,0,0,.89,3.47,1.89,6.39C264.48,43.58,265.18,45.24,265.69,45.6Z"/><path class="cls-2" d="M235.67,60.28l-.13,0,.13,0Z"/><path class="cls-3" d="M235.29,38.74l-11,5.56h0c-1-1.85-1.65-3.21-1.65-3.21s-1.63-.8-1.88-1.54c-.07-.2.83-2.28,1.51-4.28.09-.26.17-.52.25-.78l2.77,0h0c3,1,2.38,1.51,4.8,1.48a36,36,0,0,0,4.68-.61Z"/><path class="cls-5" d="M233,22.1c-7.12-1.51-12.67,3.95-12.67,3.95s2.07,4.37,2.63,5.68a4.7,4.7,0,0,1-.3,2.5,5.39,5.39,0,0,1,2.69.24h0l9.35-.09Zm-.63,8.06c-.4.4-3.69,3.46-4.44,3.24s-1.61-2.07-1.91-2.68a3.57,3.57,0,0,1,2.52-1,9.46,9.46,0,0,0,3.27-.42"/><path class="cls-6" d="M233.32,26.26l-5-.14L224.6,29l3.33-3.36A34.27,34.27,0,0,1,233.32,26.26Z"/><path class="cls-7" d="M233.32,26.26a18.07,18.07,0,0,0-2.28.18c-.85.1-1.79.17-2.7.19l.32-.11c-1.19,1-2.43,2-3.67,3a.66.66,0,0,1-.9-.11.64.64,0,0,1,.06-.84c1.11-1.12,2.24-2.22,3.41-3.28l.05,0a.47.47,0,0,1,.34-.11c.92.09,1.82.22,2.72.39A12.47,12.47,0,0,1,233.32,26.26Zm0,0c-.91-.09-1.81-.1-2.71-.1h-2.7l.39-.15c-1.05,1.18-2.14,2.32-3.25,3.44l-.84-1c1.26-.95,2.53-1.89,3.83-2.78l.05,0a.46.46,0,0,1,.28-.08c.74.07,1.45.19,2.26.34A17.56,17.56,0,0,0,233.32,26.26Z"/><path class="cls-2" d="M225.32,34.47l-2.77,0,.08-.26A5.39,5.39,0,0,1,225.32,34.47Z"/><path class="cls-2" d="M239.88,34.33c-.25.06-2.63.57-5.06,1a36,36,0,0,1-4.68.61c-2.42,0-1.76-.5-4.8-1.48l9.35-.09Z"/><path class="cls-3" d="M239.69,71.11c-2.27,1.85-4.55,3.65-6.79,5.38-1.17-2.67-6.7-16-5.58-26.89,1.41,2.31,2.86,4.31,3.88,4.89a5.91,5.91,0,0,0,3.08,0,47.6,47.6,0,0,0,1.39,5.76l-.13,0,.13,0A98.78,98.78,0,0,0,239.69,71.11Z"/><path class="cls-3" d="M254,48.71a38.4,38.4,0,0,1-18.3,11.55,47.6,47.6,0,0,1-1.39-5.76c.92-.14,2-.36,3.13-.64C243.14,52.48,251,49.75,254,48.71Z"/><path class="cls-2" d="M261,37.64c-.43-1.77-1.2-5.15-1.71-7.88Z"/><path class="cls-3" d="M261.91,23.93c-.74.74-1.69,3.08-2.62,5.83-1.77,5.18-5.17,18.05-5.21,18.3l-.18-20.42c1.48-1.82,3.24-14.94,3.24-14.94a12.06,12.06,0,0,0,.64,2.11C259.1,18.33,261.91,23.93,261.91,23.93Z"/><path class="cls-3" d="M224.17,10.73l1-3.61a30,30,0,0,1,5.34-2.51"/><path class="cls-3" d="M225.19,7.12a7.46,7.46,0,0,0-.53.61,20.35,20.35,0,0,0-3.28,5.48h0L217.09,17a36.29,36.29,0,0,1,2.85-5A16.5,16.5,0,0,1,225.19,7.12Z"/><path class="cls-3" d="M225.19,7.12l-1,3.61-2.79,2.48a20.35,20.35,0,0,1,3.28-5.48A7.46,7.46,0,0,1,225.19,7.12Z"/><path class="cls-2" d="M231.42,4.28l-.83.74-.06-.41Z"/><path class="cls-2" d="M217.09,17c-1,2.26-.57,2.78-.55,2.91"/><g id="Hand-3" data-name="Hand"><path class="cls-2" d="M245.1,123.65l-2.15-.16A12.6,12.6,0,0,1,245.1,123.65Z"/><path class="cls-2" d="M246.6,126.77l-2.86.14A7.86,7.86,0,0,1,246.6,126.77Z"/><path class="cls-2" d="M249.47,129.89a12.35,12.35,0,0,1-3.47-.1Z"/><path class="cls-13" d="M274,120.49a27.11,27.11,0,0,0-4.93-2.85c-1.38.38-3.27.89-5.15,1.35l-.21.05c-2,.48-3.91.92-5.21,1.1a1.76,1.76,0,0,1-.31,0h-.08a6.23,6.23,0,0,1-.67,0l-6.5-5.82a6.1,6.1,0,0,0-.61-.2c-1.28,0-6.3,3.3-6.75,3.29s.69,1.9,1.47,2a2.16,2.16,0,0,0,.76,0,5.13,5.13,0,0,0,.66-.13l.7-.2c.23-.08.46-.16.69-.26s.45-.19.67-.3l.25-.14a3.59,3.59,0,0,0,1.15.9l-2.79.06-.79,0a7.2,7.2,0,0,0-.8.07l-.17,0a.27.27,0,0,0-.09,0l-.2,0-.45,0-.5,0-.51,0-.48,0-1.07,0-1.1.73a.38.38,0,0,0-.17.28,3.71,3.71,0,0,0,.68,2.77l1.29,0h.05l-.65.67a.4.4,0,0,0-.1.33,12.25,12.25,0,0,0,.61,2.36c.07.1.31.11.65.08h.27a1,1,0,0,0,.13.78c.61,1,.72,1.67.93,1.87a3.77,3.77,0,0,0,1,.2l.19,0,3.46.1a12.28,12.28,0,0,1-3.46-.1.41.41,0,0,0,0,.12,4.25,4.25,0,0,0,.16,1.36.81.81,0,0,0,.21.2s0,0,.06,0c.86.61,3.46,1.76,4.61,1.56,1.32-.22,10.52-4.75,10.77-4.38a5.62,5.62,0,0,0,3.35.55c.53-.3,4.05-1.48,4.05-1.48l.29,0s4.21-.68,4.21-.68h0l3.72-.61C277,124.35,276.27,122.1,274,120.49ZM243.86,127h-.19a8.28,8.28,0,0,1,2.85-.14Z"/><path class="cls-7" d="M242.42,123.39a3.83,3.83,0,0,1,1.62-.22,3.42,3.42,0,0,1,1.53.42,3.79,3.79,0,0,1-1.61.21A3.61,3.61,0,0,1,242.42,123.39Z"/><path class="cls-6" d="M245.85,119.47a9.4,9.4,0,0,0,3.05-1,4.72,4.72,0,0,0,1.11.94"/><path class="cls-7" d="M245.85,119.47c.51-.25,1-.47,1.48-.67s1-.4,1.42-.61l.05,0a.25.25,0,0,1,.31.08,14.25,14.25,0,0,0,.9,1.12,2.84,2.84,0,0,1-1.32-.76l.37.05a4.59,4.59,0,0,1-1.55.7A4,4,0,0,1,245.85,119.47Z"/></g><path class="cls-2" d="M222.3,35.27a7.74,7.74,0,0,1-.56-.77c-2.54-4-5.23-14.6-5.23-14.6"/><path class="cls-3" d="M240.54,36.07l-5.25,2.67-.47-3.4c2.43-.44,4.81-1,5.06-1h0C240.14,34.94,240.36,35.53,240.54,36.07Z"/><path class="cls-3" d="M239.91,34.32h0l-5.19.05L233,22.1a11.08,11.08,0,0,1,1.42.38S238,29.32,239.91,34.32Z"/><path class="cls-2" d="M239.88,34.33c-.25.06-2.63.57-5.06,1l-.13-1Z"/><path class="cls-3" d="M233,22.1c-7.12-1.51-12.67,3.95-12.67,3.95l-.43-.12.31-1.11,4-14.09L230.59,5Z"/><path class="cls-3" d="M240.54,36.07c-.18-.54-.4-1.13-.63-1.75h0c-1.95-5-5.52-11.84-5.52-11.84A11.08,11.08,0,0,0,233,22.1L230.59,5s.24-.53-.06-.41c2.13-2.09,7.1-4.32,7.1-4.32a3.73,3.73,0,0,1,1.07.91c1.14,1.41,1.6,4,2.35,8.63.95,5.91-.4,14.3-.4,14.3C241.47,26.15,241.21,30.87,240.54,36.07Z"/><path class="cls-3" d="M261,37.64h0a41.46,41.46,0,0,1-7,11.06c-2.93,1-10.83,3.77-16.56,5.15.75-3.57,2.28-11.08,3.13-17.79.67-5.2.93-9.92.11-11.94,0,0,1.35-8.39.4-14.3-.75-4.66-1.21-7.22-2.35-8.63a19.56,19.56,0,0,1,2.78-.63s3.34.83,5.8,1.62,6,5.23,6.21,5.46a9,9,0,0,0,2.45,1.17c.61.11,2.91,3.1,2.62,3.3a10.07,10.07,0,0,0-.78,2.69,12.06,12.06,0,0,1-.64-2.11s-1.76,13.12-3.24,14.94L254,48.71c.05-.25,3.55-13.77,5.32-18.95C259.8,32.49,260.57,35.87,261,37.64Z"/><path class="cls-3" d="M237.41,53.86l-2.12-15.12,5.25-2.67C239.69,42.78,238.16,50.29,237.41,53.86Z"/><path class="cls-2" d="M225.32,34.47l-2.77,0h-.81l.24-.09a4.64,4.64,0,0,1,.65-.18A5.39,5.39,0,0,1,225.32,34.47Z"/><path class="cls-3" d="M239.88,34.33c-.25.06-2.63.57-5.06,1a36,36,0,0,1-4.68.61c-2.42,0-1.76-.5-4.8-1.48l9.35-.09Z"/><path class="cls-4" d="M206.32,104.8l.06,0"/><path class="cls-3" d="M204.43,103.21a13.29,13.29,0,0,0-1.42-.76l-.12,0h-.32v0H202s-3.09-4.68-4.77-7.33h0c-.15-.3.05-1-.12-1.32.57-.91.53-1.2.53-1.2A3,3,0,0,1,200,90.69a9,9,0,0,1,.24,1.73,10.09,10.09,0,0,0,.86,4l-.08,0,2.27,5.71Z"/><path class="cls-2" d="M202.58,102.38v0H202s-2.21-2.82-3.85-5.42c-.27-.41-.61-1-1-1.85,0-.08-.08-.16-.12-.25l-.32-.61h0l.11-.17.48.94h0c1.68,2.65,4.77,7.33,4.77,7.33h.54Z"/><path class="cls-3" d="M237.41,53.86c-1.16.28-2.21.5-3.13.64a5.91,5.91,0,0,1-3.08,0c-1-.58-2.47-2.58-3.88-4.89-1.1-1.77-2.16-3.72-3-5.3l11-5.56Z"/><path class="cls-3" d="M232.9,76.49C215.39,90,199.86,99.59,202,97.63a2.38,2.38,0,0,1-1-1.18,10.09,10.09,0,0,1-.86-4,9,9,0,0,0-.24-1.73c-.66-2.67-2.36-3.08-2.58-3.13.33.07,3.89.7,4.3-.13S202,84.26,202,82s3-2.27,4.89-3.12l.25-.13,0,0,.06,0,.3-.22s0,0,0,0a9.44,9.44,0,0,0,2.49-2.9l-2.51,2.84c-.94-2.32-4.33-5.81-4.87-6.34l3.52-11.28s-4.48,8.73-3.78,10.75a2.11,2.11,0,0,0,.26.52h0l.12.18c-1.23,1.49-3.64,4.33-4.53,4.85-.57.34-4.42,1.5-8.59,2.69-1.69-3.49-3.22-6.56-4.13-8.15-2.71-4.67-8-8.21-10.92-12.23a8.7,8.7,0,0,1-1.33-2.7l.62-.26s18.62-8.89,21.35-8.62,15.23-2.93,19.5-4.15c3.16-.89,7.52.09,9.58.66h0c.84,1.58,1.9,3.53,3,5.3C226.2,60.44,231.73,73.82,232.9,76.49Z"/><path class="cls-2" d="M206.17,60.75,202.65,72h0c-.12-.17-.33-.35-.26-.52C203.05,69.93,206.17,60.75,206.17,60.75Z"/><path class="cls-2" d="M210,75.53a9.44,9.44,0,0,1-2.49,2.9l0-.06Z"/><path class="cls-4" d="M202.65,72l-.07-.06"/><path class="cls-4" d="M197.37,87.56h0"/><path class="cls-2" d="M210,75.53a9.44,9.44,0,0,1-2.49,2.9l-.29.24.27-.3Z"/><path class="cls-2" d="M159.59,63.45l-.09.08c-.79.76-4.06,3.8-6.81,4.79l6.78-4.78Z"/><path class="cls-3" d="M219.07,26.7l-2.55-6.76h0l.55-2.91,4.29-3.81A35.33,35.33,0,0,0,219.07,26.7Z"/><path class="cls-3" d="M224.17,10.73l-4,14.09-.31,1.11-.47,1.63-.33-.86a35.33,35.33,0,0,1,2.31-13.49h0Z"/><path class="cls-3" d="M222.63,34.23a4.64,4.64,0,0,0-.65.18l-2.58-6.84h0l.47-1.63.43.12s2.07,4.37,2.63,5.68A4.7,4.7,0,0,1,222.63,34.23Z"/><path class="cls-2" d="M219.4,27.56h0l-.28,1c0-.58,0-1.2-.05-1.85Z"/><path class="cls-3" d="M225.19,7.12l-1,3.61-2.79,2.48a20.35,20.35,0,0,1,3.28-5.48A7.46,7.46,0,0,1,225.19,7.12Z"/><path class="cls-14" d="M241.28,11.88c-2.53-2.1-7.75-5-16.62-4.15a3.91,3.91,0,0,0-.48,0"/><path class="cls-9" d="M232.34,30.16c-.4.4-3.69,3.46-4.44,3.24s-1.61-2.07-1.91-2.68a3.57,3.57,0,0,1,2.52-1,9.46,9.46,0,0,0,3.27-.42"/><path class="cls-7" d="M232.39,30.2c-.5.56-1,1.09-1.56,1.61a15.45,15.45,0,0,1-1.72,1.49,5,5,0,0,1-.51.32,1.34,1.34,0,0,1-.32.13.92.92,0,0,1-.49,0,1.59,1.59,0,0,1-.65-.42,4.36,4.36,0,0,1-.41-.46A19.41,19.41,0,0,1,225.45,31l.15-.72a4.18,4.18,0,0,1,1.45-1,3,3,0,0,1,.9-.19,3.48,3.48,0,0,1,.85.06,20.37,20.37,0,0,0,3,.09l0,.12a6.38,6.38,0,0,1-3.05,1,2.6,2.6,0,0,0-.67,0,3,3,0,0,0-.57.16,4.84,4.84,0,0,0-1.13.62l.14-.72a12.66,12.66,0,0,0,1,1.91A2.24,2.24,0,0,0,228,33c-.07,0,.12,0,.26-.08a3.71,3.71,0,0,0,.45-.22,28.12,28.12,0,0,0,3.57-2.59Z"/><path class="cls-2" d="M290.84,65.91l-.6,1A1.75,1.75,0,0,1,290.84,65.91Z"/><path class="cls-3" d="M252.31,60.29C248.25,64,244,67.65,239.69,71.11a98.78,98.78,0,0,1-4-10.83l.19,0A58.89,58.89,0,0,0,252.31,60.29Z"/><path class="cls-3" d="M267,54.73a35.41,35.41,0,0,1-4,7.85c-2.29,2.86-54.5,40.66-56.6,42.17a8,8,0,0,0-1.94-1.54h0l-1.19-1L201,96.49l.08,0a2.38,2.38,0,0,0,1,1.18c-2.17,2,13.36-7.63,30.87-21.14,2.24-1.73,4.52-3.53,6.79-5.38,4.28-3.46,8.56-7.11,12.62-10.82a8.13,8.13,0,0,0,1.66-.45,7.78,7.78,0,0,0,1.86-1.46A64.75,64.75,0,0,0,267,54.73Z"/><path class="cls-3" d="M267,54.73h0a64.75,64.75,0,0,1-11.19,3.65c3-2.92,7.32-9.08,9.08-11.63.52,1,1.39,2.58,2.23,3.93a14.7,14.7,0,0,0,1.51,2.12C269.16,53.34,268.45,54,267,54.73Z"/><path class="cls-3" d="M277.65,126.41l-.19,0c-.42-2.16-5.35-7.59-8-8.88"/><path class="cls-3" d="M271.33,117c3.64-.19,6.32,9.43,6.32,9.43"/><path class="cls-3" d="M269.2,117.57l2.13-.59"/><path class="cls-10" d="M271.92,104.23l2.35-5.39a4.4,4.4,0,0,0,1.33,1.87C277.12,101.79,272.73,103.6,271.92,104.23Z"/><path class="cls-10" d="M270.43,111.49c-1.32,1.31-2.62,3.65-3.94,5.21l5.18-11.89C271.44,106.27,271.94,110,270.43,111.49Z"/><path class="cls-10" d="M275.83,95.26l-1.56,3.58a12.15,12.15,0,0,1-.73-2.55A11.07,11.07,0,0,0,275.83,95.26Z"/><path class="cls-15" d="M244.87,119.61a26,26,0,0,0-3.55.86.39.39,0,0,0-.16.28,4.34,4.34,0,0,0,.39,2.4.76.76,0,0,0,.67.37l.69,0h.26l-.57.51a.57.57,0,0,0-.16.53,7.05,7.05,0,0,0,.64,2.17.55.55,0,0,0,.4.22h.27s0,0,0,0l.19,0,.12,0c.1.26-.16.49,0,.77.61,1,.73,1.67.94,1.87a1.59,1.59,0,0,0,.55.13,1.06,1.06,0,0,1,.25.09.52.52,0,0,1,.19.14.76.76,0,0,1,.23.52,2.55,2.55,0,0,0,.14.83c0,.05.11.24.06.26-2.33,1-6.6,2.78-8.36,3.82-.31.17-.33.69-2.15.2l-21.62-17.73c-2.26-3.42-6.38-9.4-6.43-9.49-.4-.76-1.34-.83-1.58-1.52l.6-.67c.18-.28.27-.45.27-.45a1.44,1.44,0,0,0-.15-.36.82.82,0,0,1,.23-1c6.38-4.61,53.78-39,55.95-41.71a35.44,35.44,0,0,0,4.05-7.85h0c1.42-.71,2.13-1.38,1.62-1.93a15,15,0,0,1-1.5-2.12h0s7.2,5,12.73,6.28a.76.76,0,0,1,.36.2A10.86,10.86,0,0,0,283,59.11c1.12.45.74-.51,2,.86a20.58,20.58,0,0,1,2.46,2.73c.49.82,2.69.19,3.7.79s1.17,1,.81,1.68c-.22.39-.61.49-.95.78a1.74,1.74,0,0,0-.59,1l.59-1c.09,1.09.47,4.61,1.81,6.15,1.58,1.83,2.89,3.38,3.11,5.59s5.42,22.79,5.94,23.38l.56.59a.78.78,0,0,1,.21.45,8.83,8.83,0,0,0,.33,1.66c.13.27-1.47,2.12-2.26,3.56a.77.77,0,0,1-.69.41c-2,0-6.33.19-7.58,1.4a.79.79,0,0,0-.19.39l-.43,2.26a.92.92,0,0,0,0,.16,30.48,30.48,0,0,0,.63,5.7,10.18,10.18,0,0,0,.6,1.84.83.83,0,0,1-.45,1.09c-1.3.53-3.65,1.6-3.95,2.53-.4,1.3-2.4,9.3-1.09,11.72.42.79-.84,1.07-2.9.85a1.4,1.4,0,0,1-.29-.09l-.75-.4-.08,0-.05,0-.16-.09-.3-.18a18.65,18.65,0,0,1-1.79-1.2,9.89,9.89,0,0,1-.88-.72l-.21-.2a6.18,6.18,0,0,1-1.52-2,20.77,20.77,0,0,1-.95-4.08s0-.09,0-.15-7-9.21-8.26-8.87h0l-.17-.07c-.48-.2-.93-.37-1.35-.5a.82.82,0,0,1-.42-1.27,37.56,37.56,0,0,1,3.18-4.23c1.47-1.46,1-5,1.22-6.57a.36.36,0,0,1,0-.11s0-.08,0-.11l.11-.25a.86.86,0,0,1,.31-.37c1.16-.73,4.88-2.37,3.46-3.38a4,4,0,0,1-1.16-1.5.9.9,0,0,1,0-.7l1.41-3.25a2,2,0,0,0,.38-.31.52.52,0,0,0,.15-.53.79.79,0,0,1,.06-.5L282,81.53c-.57,1.24-3.7,8-4.93,10.29a3.74,3.74,0,0,0-.64,2.2.69.69,0,0,1-.06.45l-.26.61a.81.81,0,0,1-.31.35,8.8,8.8,0,0,1-1.43.68.81.81,0,0,0-.5.94,11.7,11.7,0,0,0,.46,1.52.86.86,0,0,1,0,.63l-2.22,5.08,0,0a1,1,0,0,0-.21.54l-5.17,11.89h0a3.28,3.28,0,0,0-1.24,0,.9.9,0,0,0-.39.25,4.37,4.37,0,0,0-1,2v0a54.55,54.55,0,0,1-5.42,1.12l-.31,0h-.07l-.11,0a.83.83,0,0,1-.59-.2l-6.5-5.75a.52.52,0,0,0-.43,0s-6,2.35-6.69,3.27c-.28.39.69,1.91,1.46,2.06"/><path class="cls-2" d="M271.87,104.27l.05,0-.25.58A1,1,0,0,1,271.87,104.27Z"/><path class="cls-2" d="M266.49,116.7l5.18-11.89c-.23,1.46.27,5.19-1.24,6.68C269.11,112.8,267.81,115.14,266.49,116.7Z"/><path class="cls-2" d="M273.54,96.29a11.07,11.07,0,0,0,2.29-1l-1.56,3.58A12.15,12.15,0,0,1,273.54,96.29Z"/><path class="cls-2" d="M275.83,95.26l.46-1.07c.08.3.18.45-.09.76A2,2,0,0,1,275.83,95.26Z"/><path class="cls-2" d="M271.92,104.23l2.35-5.39a4.4,4.4,0,0,0,1.33,1.87C277.12,101.79,272.73,103.6,271.92,104.23Z"/><path class="cls-2" d="M281.82,81.49l-5.53,12.7c-.1-.38-.17-1,.6-2.42C278.12,89.46,281.24,82.73,281.82,81.49Z"/><path class="cls-3" d="M300.12,108.53a10.39,10.39,0,0,0-1.95,7,28.52,28.52,0,0,0-5.9,2.11,29.33,29.33,0,0,1-.63-5.78l.48-2.57c1.09-1.48,6.51-1.57,8.21-1.56A2,2,0,0,0,300.12,108.53Z"/><path class="cls-2" d="M284.49,135.63c-4.31-.5-11.84-3-14.81-7.76"/><path class="cls-2" d="M269.48,127.83l4.23-.79h0l3.74-.46a21.78,21.78,0,0,0,1,4.09,6.11,6.11,0,0,0,1.51,2,1.37,1.37,0,0,0,.22.2c.28.26.58.5.88.73.6.45,1.22.85,1.78,1.19l.6.35"/><path class="cls-2" d="M269.2,117.56c-1.44.4-3.42.92-5.37,1.4a4.75,4.75,0,0,1,1.19-2.22,3,3,0,0,1,1.47,0h0A12.54,12.54,0,0,1,269.2,117.56Z"/><path class="cls-2" d="M271.87,104.27l.05,0-.25.58A1,1,0,0,1,271.87,104.27Z"/><path class="cls-2" d="M266.49,116.7l5.18-11.89c-.23,1.46.27,5.19-1.24,6.68C269.11,112.8,267.81,115.14,266.49,116.7Z"/><path class="cls-2" d="M275.83,95.26l-1.56,3.58a12.15,12.15,0,0,1-.73-2.55A11.07,11.07,0,0,0,275.83,95.26Z"/><path class="cls-2" d="M276.2,95a2,2,0,0,1-.37.31l.46-1.07C276.37,94.49,276.47,94.64,276.2,95Z"/><path class="cls-2" d="M271.92,104.23l2.35-5.39a4.4,4.4,0,0,0,1.33,1.87C277.12,101.79,272.73,103.6,271.92,104.23Z"/><path class="cls-2" d="M281.82,81.49l-5.53,12.7c-.1-.38-.17-1,.6-2.42C278.12,89.46,281.24,82.73,281.82,81.49Z"/><path class="cls-3" d="M195.9,106.53c-4.51.35-11.4-2.9-16.66-3.93a92.65,92.65,0,0,0-21.69-1.25,4.11,4.11,0,0,0-1-.79c-.68-.21-.39-1.9-.9-4a.64.64,0,0,0,0-.07,8.54,8.54,0,0,0-2.34-4.11s12.1,3.34,14.15,3.48,10.22-3.27,14.33-.92a7.51,7.51,0,0,0,4.14,1.2h.14l.13,0a9.53,9.53,0,0,1,3.59,1.75,2.89,2.89,0,0,0,1.22.6.12.12,0,0,0,0,.08h0l.09.18a.41.41,0,0,1,.05.09,70.35,70.35,0,0,0,3.9,6.4C195.36,105.7,195.62,106.11,195.9,106.53Z"/><path class="cls-2" d="M195.09,105.27a70.35,70.35,0,0,1-3.9-6.4.41.41,0,0,0-.05-.09l-.09-.18h0a.12.12,0,0,1,0-.08,2.89,2.89,0,0,1-1.22-.6,9.53,9.53,0,0,0-3.59-1.75l.23,0h0a6.5,6.5,0,0,1,3.32,1.66,3.08,3.08,0,0,0,1.22.6,1.17,1.17,0,0,0,.26,0h.08l0,0h0a0,0,0,0,0,0,0,1,1,0,0,1,.07.15C192.58,101,193.8,103.19,195.09,105.27Z"/><path class="cls-3" d="M230.52,143.29a.76.76,0,0,1-.2.6c-.41.37-1.28.3-1.71.6-.6.41-3.2,3.17-3.51,4.81a2.46,2.46,0,0,1-.07.29h0c-.45,1.41-2.09,2-3.12,2.87s-4.32,3.61-4.69,6.28c0,0-2.92-11.38-7.55-14.35s-19.72-8.33-21.95-8.23A39.26,39.26,0,0,1,169.81,119c-.5-1-4-8.16-7.12-11.93,5.44,0,11.9.48,15.46,1.45,4.38,1.18,14.68,3.79,14.29,3.81a14.31,14.31,0,0,0,7.58-.18c10.17,12.45,26,24.53,32,29A6,6,0,0,0,230.52,143.29Z"/><path class="cls-4" d="M247.92,187.08h0s-.12.22-.22.43l0,0-.23.43-.06.11a.67.67,0,0,1-.06.12s0,0,0,.06l0,.06s0,0,0,.05a.15.15,0,0,0,0,.06"/><path class="cls-3" d="M231.4,156.4c-2.17-2.36-4.62-5-6.38-6.8h0a2.46,2.46,0,0,0,.07-.29c.31-1.64,2.91-4.4,3.51-4.81.43-.3,1.3-.23,1.71-.6A85,85,0,0,1,231.4,156.4Z"/><path class="cls-11" d="M248.11,186.72c-.07.13-.13.26-.2.38h0a25.76,25.76,0,0,0-5.08,7.81s-18.72,1.6-19.26,2.4-37.28-13.39-48.92-7.7a.57.57,0,0,1-.24.08,10.31,10.31,0,0,1,1.8-3.93,37.06,37.06,0,0,0,3.51-6.13,14.33,14.33,0,0,0,1.68-3.93v0c.07-.22.13-.42.17-.59a10.17,10.17,0,0,0,.18-1.81,19,19,0,0,0-.76-6.11,6.86,6.86,0,0,0-.9-2.08c3.75.84,13.46,2.63,13.52,2.61-3.36-3-11.26-10.48-13.1-15.91,0,0-2.33-5.17-3.55-8.88-12.55-3.56-33.66-9.82-42.75-14-8.78.16-24.64.59-26.73,1.64a11.34,11.34,0,0,1-6.52.93,27.75,27.75,0,0,0-6.79,1.5c-1.52.64-11.51,1.07-13.16.75s-9,0-11.63.12-13.06.08-14.35,1.3c.66-1.38-3-12.57-1.43-15.33a8.69,8.69,0,0,0,.76-3.11,76.13,76.13,0,0,0-.2-11.91,20.88,20.88,0,0,0-.88-3.77,8,8,0,0,1-.52-1.92.29.29,0,0,0,.1,0,7.91,7.91,0,0,0,3.75.14,20.57,20.57,0,0,1,8.5-.48c3.2.61,37.76.35,38.9-.14s6.75-.47,9.08-.73,6.17,2.58,7.31,2.1a8.8,8.8,0,0,1,1.23-.34h0a30.56,30.56,0,0,0,4.2,2.63l0,0,1.39,1.59a6.29,6.29,0,0,1,2.67-3.41,30.7,30.7,0,0,1,4-2,38.2,38.2,0,0,0,5.7.61C142,99,148.81,98,150.76,97c1.05-.55,3.19-.55,4.92-.42.51,2.1.22,3.79.9,4a4.11,4.11,0,0,1,1,.79,92.65,92.65,0,0,1,21.69,1.25c5.26,1,12.15,4.28,16.66,3.93-.28-.42-.54-.83-.81-1.26.3.44.59.88.87,1.31a6.37,6.37,0,0,0,1.33-.22,9.07,9.07,0,0,0,1.1-.43,7.13,7.13,0,0,1-1.13.45,6.17,6.17,0,0,1-1.32.22c-4.51.35-11.39-2.9-16.66-3.92a91.55,91.55,0,0,0-21.69-1.25,70.75,70.75,0,0,0-7.19.67l2.91,6.45c0-1,4.22-1.48,9.38-1.5,3.16,3.77,6.62,11,7.12,11.93a39.26,39.26,0,0,0,17.9,17.19c2.23-.1,17.32,5.26,21.95,8.23s7.55,14.35,7.55,14.35c.37-2.67,3.6-5.32,4.69-6.28s2.67-1.46,3.12-2.87c1.76,1.84,4.21,4.44,6.38,6.8a50.5,50.5,0,0,1,4.87,5.69c.31,1.1,2.87,1.19,3.78,3.18a61.37,61.37,0,0,0,3.71,6.27C244.37,172.43,250.11,183,248.11,186.72Z"/><path class="cls-4" d="M247.91,187.1l-.22.42,0,0c-.09.17-.16.31-.23.43l-.06.11a.67.67,0,0,1-.06.12s0,0,0,.06l0,.06s0,0,0,.05a.15.15,0,0,0,0,.06h0"/><path class="cls-2" d="M179.72,179.62a37.06,37.06,0,0,1-3.51,6.13,10.31,10.31,0,0,0-1.8,3.93c-.15,0-.27-.06-.41-.43A40.52,40.52,0,0,1,172,178c0-.33.06-.33.06-.33s1.62.3,3.59.75h0C177.42,178.91,179,179.39,179.72,179.62Z"/><path class="cls-4" d="M179.79,179.46s0,.1-.07.16c-.76-.23-2.3-.71-4.07-1.23C177,178.7,178.52,179.07,179.79,179.46Z"/><path class="cls-2" d="M181,167.16a10.39,10.39,0,0,0-2.59-.92,19,19,0,0,1-2.34,0c.8-1.07,2.11-2.4,3.35-1.79a1.91,1.91,0,0,1,.68.63A6.86,6.86,0,0,1,181,167.16Z"/><path class="cls-4" d="M181,167.16a23.14,23.14,0,0,1,.76,6.11"/><path class="cls-4" d="M181.4,175.69a33.62,33.62,0,0,1-1.61,3.77"/><path class="cls-4" d="M176.07,166.24h0"/><path class="cls-4" d="M234.59,174.4s-16.93-2.21-19.34-3.43-.2-4.32-4.26-3.55-17.16-.54-17.16-.54.46.59-.21.81"/><path class="cls-2" d="M54.2,117.35a4.17,4.17,0,0,1-.53,2.14c-1.54,2.76,2.18,14.08,1.52,15.46h0a.38.38,0,0,0-.08.11s-11.18-10.93-12.62-20"/><path class="cls-2" d="M53.29,101l-9.09.73c5.25-3.84,8.3-2.79,8.67-2.65v0a.29.29,0,0,1-.1,0A8,8,0,0,0,53.29,101Z"/><path class="cls-4" d="M52.91,99.09l0,0"/><path class="cls-4" d="M134.22,128.87a18.53,18.53,0,0,1-3.58-2"/><path class="cls-4" d="M186.87,145.66s-4-1.09-9.9-2.76"/><g id="Hand_2-2" data-name="Hand 2"><path class="cls-4" d="M94,83.39c.48-.56.9-.85,1.27-1.34s1.22.33,1.35.63a5.94,5.94,0,0,1,0,2.68,12.35,12.35,0,0,1-3.6,2.47,1.6,1.6,0,0,1-.41,0"/><path class="cls-4" d="M92.93,86.81c-.2.09-.34.48-.41,1"/><path class="cls-5" d="M118.36,84.78h0c-2.21.8-7.49,2.73-7.94,2.86s-2.27-.24-3.22.41a9.19,9.19,0,0,1-3,1.65c-.86.12-6.74-.54-7.28-.09s-1,1.21-1.57,1.46-2.52.17-2.76-.52a8,8,0,0,1-.08-2.75l-.24,0a9.27,9.27,0,0,1-2.82-1.14c-.55-.48-.13-1.23,0-1.68a59.09,59.09,0,0,1,4.9-6.85,3.28,3.28,0,0,1,2.44-1.2c.94-.1,12.42,2.64,12.71,2.14s4.11-1.18,6.07-1.56h0a.78.78,0,0,0,0,.14l.12.29c.5,1.26,1.1,2.76,1.67,4.14a1.07,1.07,0,0,0,.07.19h0l.08.21c.06.14.11.29.17.43s.11.32.16.48.22.59.3.84.09.27.14.4Z"/></g><path class="cls-5" d="M92.24,87.65A32.78,32.78,0,0,0,95.05,85c1.45-1.77.52-2.17.35-2.53S94,81.83,94,81.83"/><g id="Belt-3" data-name="Belt"><path class="cls-2" d="M206.68,106.14h0c-.11.18-.24.4-.4.64h0a17,17,0,0,1-2.45,3.33,11.6,11.6,0,0,1-3.81,2c-1.18-1.45-2.28-2.9-3.28-4.34-.27-.39-.54-.79-.8-1.19a6.17,6.17,0,0,0,1.32-.22,7.13,7.13,0,0,0,1.13-.45,3.48,3.48,0,0,0,.38-.2h0l.4-.22.44-.26c.22-.13.43-.27.63-.41a7.85,7.85,0,0,0,2.06-1.89.64.64,0,0,0,.08-.14,1,1,0,0,0,.16-.39h.32l.12,0a13.29,13.29,0,0,1,1.42.76h0l1.88,1.59A8.12,8.12,0,0,0,206.68,106.14Z"/><path class="cls-2" d="M202.57,102.41a1,1,0,0,1-.16.39,1.41,1.41,0,0,0,.15-.4Z"/><path class="cls-2" d="M207,105.69s-.1.18-.27.45a8.12,8.12,0,0,1-.36-1.34l-1.88-1.59a8,8,0,0,1,1.94,1.54A2.76,2.76,0,0,1,207,105.69Z"/><path class="cls-4" d="M202.56,102.4a.45.45,0,0,0,0-.12"/><path class="cls-2" d="M200,112.13a14.31,14.31,0,0,1-7.58.18c-.39-.16-9.91-2.63-14.29-3.81-3.56-1-10-1.47-15.46-1.45-5.16,0-9.4.5-9.38,1.5l-2.91-6.45a70.75,70.75,0,0,1,7.19-.67,91.55,91.55,0,0,1,21.69,1.25c5.27,1,12.15,4.27,16.66,3.92.26.4.53.8.8,1.19C197.74,109.23,198.84,110.68,200,112.13Z"/><path class="cls-2" d="M234.52,142.88s-.91-.63-2.47-1.78c-6.05-4.44-21.86-16.52-32-29a11.6,11.6,0,0,0,3.81-2,17,17,0,0,0,2.45-3.33l1.45,1.66c6.21,11.36,28.6,27.65,29.28,27.5a11.23,11.23,0,0,0,1.07-.56S234.33,141.84,234.52,142.88Z"/><path class="cls-3" d="M191.3,98.44l.06.11h0s0,0,0,0h0a.76.76,0,0,1-.21,0l-.13,0a2.89,2.89,0,0,1-1.22-.6,6.27,6.27,0,0,0-2.54-1.49,7.25,7.25,0,0,0,2.52-.48"/><path class="cls-4" d="M191.84,98.83c-.11-.06-.48-.27-.48-.28"/><polygon class="cls-2" points="167.06 59.36 167 59.39 167 59.38 167.06 59.36"/><path class="cls-2" d="M202.58,102.38v0a1,1,0,0,1-.16.39.64.64,0,0,1-.08.14,7.85,7.85,0,0,1-2.06,1.89c-.2.14-.41.28-.63.41l-.44.26-.4.22h0l-.38.2a9.07,9.07,0,0,1-1.1.43,6.37,6.37,0,0,1-1.33.22c-.28-.43-.57-.87-.87-1.31a70.35,70.35,0,0,1-3.9-6.4.41.41,0,0,0-.05-.09l-.08-.17h0l-1.34-2.78c-.35-.71-.68-1.43-1-2.15l0,0c-1.93-4.16-3.75-8.32-5.6-12h0c0-.14-3.42-7-5.42-9.43-1.28-1.54-8.11-9.68-10.19-11.86-.21-.22-.7-.8-.7-.8l0,0c-1.36-3-3.14-9.62-2.24-10.61l8.21,2.32a12.8,12.8,0,0,0,.3,5.58l0,0c.09,0,0,0,0,0a8.54,8.54,0,0,0,1.32,2.65c3,4,8.21,7.57,10.91,12.24.9,1.54,2.36,4.5,4,7.88,0,.09.09.17.13.27,2.24,4.62,5.49,10.57,7.42,14.29a4.23,4.23,0,0,0,.32.71l.15.23c1.68,2.65,4.77,7.33,4.77,7.33h.54Z"/><path class="cls-2" d="M191.14,98.78l-.09-.18h0Z"/></g><path class="cls-2" d="M54.4,116.38l-.25,1.32"/></g></g></g></g></svg>