<svg xmlns="http://www.w3.org/2000/svg" xmlns:xlink="http://www.w3.org/1999/xlink" viewBox="0 0 220.15 208.38"><defs><style>.cls-1{fill:url(#Stick_Gradient_GMAU);}.cls-2{fill:url(#Stick_Gradient_GMAU-2);}.cls-13,.cls-3{fill:none;}.cls-10,.cls-11,.cls-3,.cls-4,.cls-5,.cls-7,.cls-8,.cls-9{stroke:#1a1a1a;}.cls-10,.cls-12,.cls-13,.cls-16,.cls-3,.cls-7,.cls-8{stroke-miterlimit:10;}.cls-10,.cls-11,.cls-12,.cls-13,.cls-14,.cls-16,.cls-3,.cls-4,.cls-5,.cls-7,.cls-8,.cls-9{stroke-width:0.5px;}.cls-12,.cls-14,.cls-15,.cls-16,.cls-4,.cls-5,.cls-7,.cls-9{fill:#111;}.cls-4{stroke-linejoin:bevel;}.cls-11,.cls-14,.cls-5,.cls-9{stroke-linejoin:round;}.cls-6{fill:#1a1a1a;}.cls-11,.cls-8{fill:#fff;}.cls-9{stroke-linecap:round;}.cls-10{fill:#757575;}.cls-12,.cls-13,.cls-14{stroke:#111;}.cls-16{stroke:#011111;}</style><linearGradient id="Stick_Gradient_GMAU" x1="479.26" y1="-65.75" x2="483.8" y2="-65.75" gradientTransform="matrix(-0.57, 0, 0, -1, 475.77, -25.79)" gradientUnits="userSpaceOnUse"><stop offset="0.1" stop-color="#727272"/><stop offset="0.43" stop-color="#c9c9c9"/><stop offset="1"/></linearGradient><linearGradient id="Stick_Gradient_GMAU-2" x1="9.54" y1="289.24" x2="14.08" y2="289.24" gradientTransform="matrix(0, 0.57, -1, 0, 331.09, 115.17)" xlink:href="#Stick_Gradient_GMAU"/></defs><g id="Layer_2" data-name="Layer 2"><g id="Layer_1-2" data-name="Layer 1"><rect id="Stick2" class="cls-1" x="200.33" y="-3.67" width="2.56" height="87.41" rx="1.28" transform="translate(1.11 85.32) rotate(-23.96)"/><rect id="Stick_1" data-name="Stick 1" class="cls-2" x="-1.86" y="120.69" width="87.41" height="2.56" rx="1.28" transform="translate(-33.81 17.55) rotate(-16.99)"/><g id="Ninja"><line class="cls-3" x1="63.81" y1="113.75" x2="63.75" y2="113.77"/><path class="cls-3" d="M59.72,117.61a1.3,1.3,0,0,0,.53.33l.85-.25"/><line class="cls-3" x1="63.05" y1="117.09" x2="62.46" y2="117.27"/><path class="cls-4" d="M143.61,100.82c-1,1.85-2,3.68-3,5.48a31.27,31.27,0,0,0-8.22-14.94c-.62-.62-1.26-1.22-1.94-1.79l-.3-.25a6.6,6.6,0,0,0,5.38-3.63,5.84,5.84,0,0,0,.43-1.07h0l.11.05A51.16,51.16,0,0,1,143.61,100.82Z"/><path class="cls-3" d="M136,84.53s0,.06,0,.09"/><path class="cls-5" d="M140.63,106.3A158.32,158.32,0,0,1,128,125.18l-1.13-.29c-1.66-.43-3.31-.86-5-1.27l-2.14-.53a7.54,7.54,0,0,0,4.7-4.48c.32-.85.49-1.74.73-2.6a14.14,14.14,0,0,1-1.85.11c-3,.09-6.15.83-9.09.51l-1.29.44c-4.68,1.66-9.61,3.6-14.46,2.51-.75-.17-1.5-.41-2.25-.63l-3,1.19a10.09,10.09,0,0,1-2.06.66,16.46,16.46,0,0,1-2.33.11,16.48,16.48,0,0,0-8.78,2.77,21.82,21.82,0,0,0,.49-8,28,28,0,0,0-.66-3.68,20.05,20.05,0,0,0-.91-2.85c-.11-.28-.23-.54-.35-.81a10.22,10.22,0,0,0-3.15-4c5.81-1.89,12.24-.34,18.2-1.73,2.54-.59,4.93-1.71,7.43-2.45a14.19,14.19,0,0,1,5.73-.65,76.24,76.24,0,0,1,8.74-3.69,53.41,53.41,0,0,0,9-3.53,12.53,12.53,0,0,1,3-1.49,30.16,30.16,0,0,0,2.9-1.23c.68.57,1.32,1.17,1.94,1.79A31.27,31.27,0,0,1,140.63,106.3Z"/><path class="cls-6" d="M106.87,99.54c-1.07.6-2.16,1.16-3.2,1.81a14.55,14.55,0,0,0-2.88,2.24,12,12,0,0,1-2.93,2.31,15.23,15.23,0,0,1-3.48,1.3v0c1.1-.56,2.22-1.05,3.25-1.68a16.87,16.87,0,0,0,2.9-2.17,14.59,14.59,0,0,1,3-2.16c1.08-.6,2.2-1.1,3.31-1.65Z"/><path class="cls-7" d="M78.65,108.36a17.45,17.45,0,0,1-4.09-.48,7.07,7.07,0,0,1,.86-3.51l.08,0A10.22,10.22,0,0,1,78.65,108.36Z"/><path class="cls-8" d="M61.49,117.56,57,118.93a2.79,2.79,0,0,0,.58.77,4.09,4.09,0,0,0,1.14.62,6.16,6.16,0,0,0,2.83-.34,1.91,1.91,0,0,0,.93-.47c.39-.39.45-.93-.21-1.49a7.24,7.24,0,0,0-.74-.45l1-.3a.82.82,0,0,1,.59-.18h0l1.73-.52h.66c1,0,2.34,1.31,2.23,2-.54,0-1.36,0-1.89,0a4,4,0,0,0-2.27-1.46"/><path class="cls-8" d="M81.07,115.5c-.55-.14-1.1-.28-1.56-.37-1.36-.28-2.71-.56-4.06-.81h-.1L74,114.08l-.71-.11c-.93-.13-1.85-.24-2.82-.39-1,1-10.46,4.29-10.46,4.29-1-.74.85-2.83,2.43-3.75l1.82-.54h.12l-.06,0a2.83,2.83,0,0,0-1.88.56L57,115.76a8,8,0,0,1,.86-2.06c.37-.82.31-2.16.93-2.76,1-1,3.76-.75,5.12-1.3,1.66-.67,3.33-1.1,5.09-1.74a12.59,12.59,0,0,1,5.71-.28l.37.07a18.08,18.08,0,0,0,4.09.47c.13.27.25.54.36.82a19.93,19.93,0,0,1,.91,2.84A28.35,28.35,0,0,1,81.07,115.5Z"/><path class="cls-7" d="M80.08,123.68c-.11.42-.24.83-.38,1.25a6.28,6.28,0,0,0-.59-.56c-.26-.24-.52-.46-.77-.68-2.34-2.16-3-6-3.4-9.12v0c1.35.24,2.7.52,4.06.8.46.1,1,.24,1.56.38A21.82,21.82,0,0,1,80.08,123.68Z"/><path class="cls-6" d="M104.82,115.6c-1.63.74-3.33,1.33-5,2l-2.48,1a20.22,20.22,0,0,0-2.45,1l0,0a8,8,0,0,1,2.29-1.46,20.7,20.7,0,0,1,2.54-.9c1.7-.55,3.43-1,5.11-1.62Z"/><path class="cls-6" d="M124.49,114.21a53.49,53.49,0,0,0-5.36,1.07c-.89.23-1.76.5-2.64.72s-1.77.43-2.68.59v0a16.65,16.65,0,0,1,2.56-1,24.26,24.26,0,0,1,2.68-.63,41.72,41.72,0,0,1,5.45-.73Z"/><path class="cls-6" d="M123.27,116h1a1.26,1.26,0,0,0,.9-.17,18.34,18.34,0,0,0,1.49-1.14,15,15,0,0,0,1.36-1.27,10.21,10.21,0,0,0,1-1.53,37.63,37.63,0,0,0,3.46-6.74h0a35.26,35.26,0,0,1-3.12,7l-.46.84a3.53,3.53,0,0,1-.58.81,10.29,10.29,0,0,1-1.49,1.25,8.4,8.4,0,0,1-1.68.94,2.26,2.26,0,0,1-1,.1h-1Z"/><line class="cls-3" x1="125.22" y1="116.01" x2="125.21" y2="116.01"/><path class="cls-9" d="M132.17,160.76a25.24,25.24,0,0,1-1.77,3.93,8.65,8.65,0,0,1-5.27-6.72A31.88,31.88,0,0,1,132.17,160.76Z"/><line class="cls-3" x1="141.17" y1="168.05" x2="141.17" y2="168.05"/><path class="cls-3" d="M157.54,132.2a1.54,1.54,0,0,1-.08-.19"/><path class="cls-7" d="M126.65,130.23c-3.6,2.67-3.72,8.48-7.2,11.38-1.57,1.3-3.6,1.83-5.47,2.63l-.45.19a41.94,41.94,0,0,0-8.39,5.64,22.44,22.44,0,0,0,4.33-6.69q3.41-6.9,6.78-13.81a4.17,4.17,0,0,1,2-2c.67-.38,1.71-.24,1.43,0a30.42,30.42,0,0,0,6.7,2.7Z"/><path class="cls-3" d="M155.07,129.42s0,0,0,0"/><path class="cls-3" d="M157.6,132.23l-.06,0"/><path class="cls-7" d="M155.08,143.25l-.41,1.41A7.83,7.83,0,0,1,155.08,143.25Z"/><path class="cls-7" d="M125,191.07c-1.47.49-2.94,1-4.4,1.51-.85-2.73-.65-8.29-.64-8.29h0c.34.2.7.37,1,.58C123.15,186.2,124.27,188.59,125,191.07Z"/><path class="cls-8" d="M126.53,200.1a13.14,13.14,0,0,0-4.55.19s-5.36.36-6.1.33c-2.21-.08-4,1.69-5.65,3.11-3.16,2.66-10.93,4.56-10.69,4.39a4.91,4.91,0,0,1,1.63-3.41c1.07-1.07,2.4-1.85,3.43-3,1.59-1.71,2.32-4,3.53-6s3.31-3.84,5.62-3.47a2.56,2.56,0,0,1,1.51.75,1.68,1.68,0,0,1,.54,1.28c1.59-.66,3.16-1.13,4.8-1.7,1.46-.53,2.93-1,4.4-1.51.2.65.38,1.32.53,2A28.24,28.24,0,0,1,126.53,200.1Z"/><line class="cls-3" x1="126.55" y1="206.46" x2="126.55" y2="206.45"/><path class="cls-7" d="M126.55,206.45a8.74,8.74,0,0,1-2.3-2.39c-.4-.53-.79-1.05-1.16-1.59a7.37,7.37,0,0,1-1.11-2.18,13.14,13.14,0,0,1,4.55-.19c0,.12,0,.24,0,.37C126.43,202.47,126,204.55,126.55,206.45Z"/><path class="cls-5" d="M164.07,172a8.2,8.2,0,0,1-1.24,6.1,20.68,20.68,0,0,1-5.57,5.3,28,28,0,0,0-5.86,5,15.18,15.18,0,0,1-2.87,3.3,14,14,0,0,1-3.76,1.44,29.75,29.75,0,0,0-8.09,4.7c-1.75,1.29-3.51,2.58-5.21,4a36.87,36.87,0,0,0-4.91,4.68h0c-.6-1.9-.12-4,0-6,0-.13,0-.25,0-.37a28.24,28.24,0,0,0-1-7.06c-.15-.65-.33-1.32-.53-2-.73-2.48-1.85-4.87-4-6.2-.34-.21-.7-.38-1-.58,1.06-.22,2.1-.48,3.14-.77a44.43,44.43,0,0,0,7.41-2.8,4,4,0,0,1,1.4-.48l.2,0a1.21,1.21,0,0,0,0-.38c0-.37-.23-.72-.27-1.08-.11-1.19,1.19-2,2.29-2.42l.65-.27c2-.87,4-1.92,5.1-3.81a7.21,7.21,0,0,0,.81-3.39,3.09,3.09,0,0,0,.7-.5,11.26,11.26,0,0,0,2.22-3.66c2.49-5.26,6.52-9.62,9.7-14.49a6.87,6.87,0,0,0,1.16-2.48,17.26,17.26,0,0,0,.09-2.16,6,6,0,0,1,.12-1c.47,1,1.16,1.94,1.65,2.91,1.28,2.58,1.16,5.66,2.32,8.3.75,1.72,2,3.17,2.82,4.85,1.57,3.17,1.52,7,3.22,10.09C164.47,171.19,164.27,171.58,164.07,172Z"/><path class="cls-3" d="M164.07,172a5.66,5.66,0,0,0-.45-1.25"/><line class="cls-3" x1="126.55" y1="206.46" x2="126.55" y2="206.45"/><path class="cls-3" d="M161.54,115.71a36.35,36.35,0,0,1-3.69,5.49c-.07.09-.14.22-.07.32s.25-.07.14-.11"/><path class="cls-5" d="M158.61,135.73a12.07,12.07,0,0,1-1.22,3.07h0l-.56,1a24.53,24.53,0,0,0-1.75,3.42,7.83,7.83,0,0,0-.41,1.41,6,6,0,0,0-.12,1,17.26,17.26,0,0,1-.09,2.16,6.87,6.87,0,0,1-1.16,2.48c-3.18,4.87-7.21,9.23-9.7,14.49a11.26,11.26,0,0,1-2.22,3.66,3.09,3.09,0,0,1-.7.5,13.91,13.91,0,0,0,0-1.44c-.33-.37-.67-.73-1-1.08a31.52,31.52,0,0,0-14.5-8.42s3.72-4.07,4.14-6.69c-.78.66-1.2,1.53-2,2.15a7.21,7.21,0,0,1-4.29,1.48,6.07,6.07,0,0,1-2.45-.78c-1-.51-4.22-1.69-5.21-4.18-.64-1.61-2-3-1.77-5.52l.45-.19c1.87-.8,3.9-1.33,5.47-2.63,3.48-2.9,3.6-8.71,7.2-11.38L127,130c2.63-1.71,6.17-1.23,9-2.66l.17-.09a5.72,5.72,0,0,1,1.5-.66,8.39,8.39,0,0,1,2.95.41c2.27.34,4.47-.93,6.76-1.08,2.64-.18,5.17,1.14,7.26,2.76.2.15.41.32.6.49a17.59,17.59,0,0,1,2.26,2.85l.11.16h0C157.63,132.38,158.82,134.73,158.61,135.73Z"/><path class="cls-6" d="M128.72,152.93c.32-1.2.58-2.38.83-3.58s.43-2.35.73-3.65a1.42,1.42,0,0,1,.79-.69c.3-.12.61-.21.89-.3a6.56,6.56,0,0,0,1.62-.79,28.07,28.07,0,0,0,2.91-2.23l0,0a25.75,25.75,0,0,1-2.79,2.42,7.12,7.12,0,0,1-1.65.9c-.56.2-1.23.39-1.4.82-.06.19-.08.58-.13.86l-.15.91c-.12.61-.23,1.22-.4,1.81a18.79,18.79,0,0,1-1.23,3.49Z"/><path class="cls-6" d="M135.15,142.89c-.22-.61-.56-1.15-.8-1.77a2.1,2.1,0,0,1,.14-2,18.13,18.13,0,0,1,2.84-2.71c2-1.62,4.12-3.1,6.19-4.64l0,0-3,2.45c-1,.8-2,1.61-3,2.46a28.46,28.46,0,0,0-2.69,2.69,1.74,1.74,0,0,0-.22,1.64,15.55,15.55,0,0,1,.52,1.87Z"/><path class="cls-6" d="M132.26,179.83a1.62,1.62,0,0,1-.11,1.24,2.18,2.18,0,0,1-.81,1,6.11,6.11,0,0,1-2.24.87l0,0a7.25,7.25,0,0,0,2-1.17,5.57,5.57,0,0,0,.67-.85,2.93,2.93,0,0,0,.47-1Z"/><path class="cls-3" d="M162.55,113.79h-.2"/><path class="cls-3" d="M179.79,64.06c-2,.81-3.12,3-4.89,4.34a26.29,26.29,0,0,1-2.65,1.47c-.29.16-.57.33-.85.52"/><path class="cls-7" d="M200.91,62.19c-1.7.92-2.87,2.74-4,4.4A66.22,66.22,0,0,1,185.4,79.87c-2.68,2.36-5.58,4.53-7.72,7.38a73.34,73.34,0,0,0-4.24,7.22,38.46,38.46,0,0,1-8.81,10.29l-1.13.91a10.42,10.42,0,0,0-.37,1.83c-.18,1.59-.11,3.22-.39,4.79a12.06,12.06,0,0,1-.39,1.49,13.58,13.58,0,0,1-.81,1.93,12.12,12.12,0,0,1-1.49,6.24c-1.4,2.54-3.75,4.65-4.89,7.23-.19-.17-.4-.34-.6-.49-2.09-1.62-4.62-2.94-7.26-2.76-2.29.15-4.49,1.42-6.76,1.08a8.39,8.39,0,0,0-2.95-.41,5.72,5.72,0,0,0-1.5.66l-2.53-.65q1.83-2.25,3.55-4.59a119.37,119.37,0,0,0,19.32-40.59c.79-.7,1.59-1.38,2.41-2l.75-.61,1-.76c1.58-1.31,2.25-.61,2.45,0,2.17-1.86,5.11-6.3,5.42-4.78a12.08,12.08,0,0,1,3-2.86c4.62-7.5,12-13.24,17-20.54.36-.5.29,0,.61-.54-.16.55.27.11.43.64a7.58,7.58,0,0,0,1.69,2.71c1.11,1.27,2.27,2.52,3.46,3.73A82.27,82.27,0,0,0,200.91,62.19Z"/><path class="cls-6" d="M162.65,77.7a12.64,12.64,0,0,0,1.43,2,8.89,8.89,0,0,1,1.25,2.21,4.26,4.26,0,0,1,.07,2.57,12.76,12.76,0,0,1-.94,2.33l0,0a13.24,13.24,0,0,0,.73-2.37,3.91,3.91,0,0,0-.2-2.35c-.35-.73-.84-1.39-1.25-2.11-.21-.36-.43-.72-.62-1.1a3.75,3.75,0,0,1-.48-1.17Z"/><path class="cls-6" d="M168.63,72.73a7.54,7.54,0,0,1,.06,1.71,13.72,13.72,0,0,1-.29,1.68c-.23,1.11-.5,2.21-.82,3.29h-.05c.18-1.11.34-2.23.47-3.35.07-.56.09-1.12.19-1.67s.21-1.1.39-1.66Z"/><path class="cls-6" d="M158,112.3a10.49,10.49,0,0,1,2.63-4.41,15.81,15.81,0,0,1,1.84-1.82,15.48,15.48,0,0,1,2.12-1.48l0,0c-.58.64-1.21,1.21-1.82,1.81s-1.28,1.12-1.88,1.72a16.79,16.79,0,0,0-1.67,1.91,7.34,7.34,0,0,0-1.2,2.24Z"/><path class="cls-7" d="M201.47,61.93a5.69,5.69,0,0,0-.56.26,82.27,82.27,0,0,1-6.3-5.8,44,44,0,0,0,2.3-4.48l2.94,3.2a7.39,7.39,0,0,1,1.33,1.78C201.9,58.43,201.46,60.21,201.47,61.93Z"/><path class="cls-3" d="M201.47,61.93a6.62,6.62,0,0,0,0,.77l-.6-.51"/><path class="cls-7" d="M191.22,47.37,189.46,50c-.16-.53-.59-.09-.43-.64-.32.52-.25,0-.61.54l-.07-.05a2.84,2.84,0,0,1,1.85-2.28A2.69,2.69,0,0,1,191.22,47.37Z"/><path class="cls-5" d="M135.72,84.18c1.15.56,2.75,1.44,3.91,2l.42.2.27.14c.29.15.56.3.83.47l.4.24c.16.11.32.21.48.33l.3.22c.24.17.47.35.7.54l.41.35c.25.22.49.46.73.7s.19.19.29.29.15.16.22.25.26.28.38.43l.3.37.23.31a5.92,5.92,0,0,1,.35.48c.16.23.32.47.46.71.27.45.53.92.76,1.4.19-.41.38-.83.56-1.25.34-.77.69-1.54,1-2.33.21-.47.4-.94.6-1.42,0,0,0,0,0,0,.15-.37.31-.73.45-1.1l-1.25-.55A142.73,142.73,0,0,0,158.79,69.6l.28-.57c.05-.1.11-.2.16-.31a3.06,3.06,0,0,0,.34-1,3.11,3.11,0,0,0-.39-1.62c-1.18-2.67-1.77-5.52-4-7.36A16.48,16.48,0,0,0,152,57.35a17.16,17.16,0,0,0-17.28,1.73,36.53,36.53,0,0,0-1.5,9.08c0,.43,0,.86,0,1.3,0,.05,0,.1,0,.14,0,.39.07.77.12,1.16a2.68,2.68,0,0,1,.07-.27l0-.15a27.09,27.09,0,0,1,1.53-4.44A18.56,18.56,0,0,0,147.6,66l.06,0a1,1,0,0,0,0,.17c.12,2.09.22,4.18.22,6.27a7.8,7.8,0,0,1-6.82.55c-1-.41-2.1-1.07-3.16-.74a3.62,3.62,0,0,0-1.43,1,3.93,3.93,0,0,1-1.42,1,1.37,1.37,0,0,1-.43,0h-.11a2.69,2.69,0,0,1-.45,0h0c.68,3.19,1.56,6.35,1.6,9.51a8.41,8.41,0,0,1-.09,1.87"/><path class="cls-7" d="M159.59,78.78l-.75.61c-.82.66-1.62,1.34-2.41,2l-.94.85-.69.63-.8.76-.59.58c-.21.21-.43.42-.64.64l-.78.79c-.61.64-1.22,1.29-1.81,1.95l-.84,1c-.15.37-.31.74-.47,1.11,0,.1-.08.21-.13.31-.32.76-.66,1.51-1,2.27l-.59,1.31c-.23-.48-.49-1-.76-1.4-.11-.18-.22-.36-.34-.53l-.12-.18-.35-.48-.23-.31c3.86-5.6,10.17-14.86,13.28-20.8.15-.29.29-.58.43-.86a5.64,5.64,0,0,1,.26,1.22c.07.7,0,1.42.11,2.13s.42,1.59.55,2.39A9.78,9.78,0,0,1,159.59,78.78Z"/><path class="cls-3" d="M145.36,90.69l.23.31"/><path class="cls-3" d="M130.14,165.12a21.25,21.25,0,0,1-1.4,2.14"/><path class="cls-3" d="M130.4,164.69a.75.75,0,0,0-.07.12"/><path class="cls-8" d="M139.63,166.39a17.92,17.92,0,0,1-.83,3h0a20.79,20.79,0,0,1-4,6.75l-.65.27c-1.1.46-2.4,1.23-2.29,2.42,0,.36.22.71.27,1.08a1.21,1.21,0,0,1,0,.38l-.2,0a4,4,0,0,0-1.4.48,44.43,44.43,0,0,1-7.41,2.8,3.22,3.22,0,0,1,.06-1.74,13,13,0,0,1,1-2.24,13.86,13.86,0,0,0,1.47-5.78c0-1.4-.12-2.8,0-4.19a5.81,5.81,0,0,1,1.51-3.81,2.77,2.77,0,0,1,3-.64s.1-.19.23-.44c.42-.82,1.27-2.55,1.7-3.65l.1-.27A31.61,31.61,0,0,1,139.63,166.39Z"/><path class="cls-6" d="M139.56,58.82a29,29,0,0,0-2.36,3.47c-.35.6-.65,1.23-1,1.83s-.7,1.21-1.11,1.79l-.05,0a9.93,9.93,0,0,1,.72-2,14.74,14.74,0,0,1,1.11-1.82,24,24,0,0,1,2.66-3.28Z"/><path class="cls-6" d="M144.55,60.47A5.42,5.42,0,0,1,145.72,62c.32.55.65,1.09,1,1.61l2.14,3.18a19,19,0,0,1,1.77,3.44,9.3,9.3,0,0,1,.59,3.8,12,12,0,0,0-.95-3.66,20.93,20.93,0,0,0-1.83-3.31c-.66-1.09-1.4-2.13-2-3.24-.33-.56-.63-1.13-.91-1.7A6,6,0,0,0,144.55,60.47Z"/><path class="cls-3" d="M147.89,72.43c0,3.68-1.7,14.25-3.7,17.73"/><path class="cls-7" d="M134.52,74.36a2.69,2.69,0,0,1-.45,0h0c-.26-1.07-.31-2.23-.61-3.55a2.68,2.68,0,0,1,.07-.27A31.71,31.71,0,0,0,134.52,74.36Z"/><path class="cls-6" d="M139.85,85.25A17.13,17.13,0,0,1,136,80.31a18.24,18.24,0,0,1-1.23-2.92,15.38,15.38,0,0,1-.67-3.08h0c.31,1,.64,2,1,3s.82,1.9,1.31,2.81A32.12,32.12,0,0,0,139.85,85.25Z"/><path class="cls-3" d="M200.82,34.68l-.15.13"/><path class="cls-8" d="M204.65,36l-.25.14,0,0-.49.24a2.83,2.83,0,0,1-.54.23,2.09,2.09,0,0,1-.86.08,5.25,5.25,0,0,1-.87-.14l-.14,0a7.91,7.91,0,0,0-1.19,1.83h0a1.48,1.48,0,0,0-.54.57.54.54,0,0,0-.08.35.77.77,0,0,0,.19.31,1.19,1.19,0,0,0,.83.53.45.45,0,0,0,.16,0l-.07.09a1.45,1.45,0,0,0-.26.43,1,1,0,0,0,.06.92.71.71,0,0,0,.49.28.86.86,0,0,0-.34.47l0,.06c-.19,1,.37,1.14.56,1.24h0a.7.7,0,0,0-.13,1,.68.68,0,0,0,.63.27l.26.64a11.82,11.82,0,0,1-1.34.76c-.6.3-1.21.58-1.84.84-.28.59-.5,1.22-.72,1.83-.36,1-.76,2-1.2,3a44,44,0,0,1-2.3,4.48c-1.19-1.21-2.35-2.46-3.46-3.73A7.58,7.58,0,0,1,189.46,50l1.76-2.58,3.87-5.69a6.14,6.14,0,0,0,1.39-3.24,3.52,3.52,0,0,1,.08-1.3,1.9,1.9,0,0,1,1.41-1l.2-.05a5.15,5.15,0,0,0,1.54-.45,5.71,5.71,0,0,0,1-.82h0l.17-.08a2.81,2.81,0,0,1,1.22-.41c.72,0,1.42.59,2.11.37.32-.1.63-.38,1-.28A1.8,1.8,0,0,1,204.65,36Z"/><path class="cls-8" d="M206.05,41.14a1.63,1.63,0,0,1-.79.67l-.07,0-1.19.58-1.28.62a5,5,0,0,0-1.47.55h0c-.19-.1-.75-.26-.56-1.24l0-.06a.86.86,0,0,1,.34-.47.5.5,0,0,0,.36-.09,3.27,3.27,0,0,1,.45-.1A3.82,3.82,0,0,0,203.2,41l.15-.11a14.79,14.79,0,0,0,1.58-1.26l.2-.2a2.83,2.83,0,0,1,.74.68A1.11,1.11,0,0,1,206.05,41.14Z"/><path class="cls-8" d="M205.25,37.38l-.35.34a9.34,9.34,0,0,1-2.21,1.52,7.07,7.07,0,0,1-.79.36,1.34,1.34,0,0,0-.27.13s-.82.4-.8.37a.45.45,0,0,1-.16,0,1.19,1.19,0,0,1-.83-.53.77.77,0,0,1-.19-.31.54.54,0,0,1,.08-.35,1.48,1.48,0,0,1,.54-.57h0c.35-.22,1.25-.6,1.3-.65s.22-.26.34-.38h0c.19-.2.37-.41.56-.62a2.09,2.09,0,0,0,.86-.08,2.83,2.83,0,0,0,.54-.23l.49-.24,0,0a1.81,1.81,0,0,1,.84.24.59.59,0,0,1,.29.35A.71.71,0,0,1,205.25,37.38Z"/><path class="cls-8" d="M205.54,38.44a1.16,1.16,0,0,1-.41,1l-.2.2a14.79,14.79,0,0,1-1.58,1.26l-.15.11a3.82,3.82,0,0,1-1.34.66,6.71,6.71,0,0,1-.81.19.6.6,0,0,1-.49-.28c-.57-1.2,1.05-1.79,1.07-1.81a1.34,1.34,0,0,1,.27-.13,7.07,7.07,0,0,0,.79-.36,9.34,9.34,0,0,0,2.21-1.52A1,1,0,0,1,205.54,38.44Z"/><path class="cls-8" d="M205.61,42.8a1.87,1.87,0,0,1-1,1.13l-.14.08a7.92,7.92,0,0,1-1.43.62,4.09,4.09,0,0,1-1.2.21h-.08a.68.68,0,0,1-.63-.27.7.7,0,0,1,.13-1,5,5,0,0,1,1.47-.55l1.28-.62,1.19-.58.07,0A1.07,1.07,0,0,1,205.61,42.8Z"/><path class="cls-3" d="M202.72,43.05a2.63,2.63,0,0,1-1.14.36"/><path class="cls-6" d="M199.5,46.84a1.75,1.75,0,0,1-.54.45,2.4,2.4,0,0,1-.66.19c-.43.12-.87.23-1.32.32v0c.39-.22.79-.44,1.19-.64a2.8,2.8,0,0,1,.61-.28,1.86,1.86,0,0,1,.71,0Z"/><path class="cls-3" d="M203,44.63a8,8,0,0,1-.95.8l-.07,0"/><path class="cls-5" d="M147.16,93.59q-1.68,3.66-3.55,7.23a51.16,51.16,0,0,0-7.51-16.14c1.15.56,2.37.94,3.53,1.48a15.54,15.54,0,0,1,5.73,4.53l.23.31a13.84,13.84,0,0,1,.81,1.19C146.67,92.64,146.93,93.11,147.16,93.59Z"/><path class="cls-10" d="M136.09,127.26l-.17.09c-2.79,1.43-6.33,1-9,2.66l-.31.22-.23,0a30.42,30.42,0,0,1-6.7-2.7c.28-.19.56-.39.83-.6a3.1,3.1,0,0,0,1-1.22,12.65,12.65,0,0,0,.38-2c1.65.41,3.3.84,5,1.27l1.13.29,4,1,1.54.4Z"/><path class="cls-7" d="M156.43,81.43A119.37,119.37,0,0,1,137.11,122q-1.73,2.34-3.55,4.59l-1.54-.4-4-1a158.32,158.32,0,0,0,12.62-18.88c1-1.8,2-3.63,3-5.48h0c1.25-2.38,2.43-4.78,3.55-7.22h0l.59-1.31c.33-.75.67-1.51,1-2.27,0-.1.09-.21.13-.31.17-.37.32-.74.47-1.11l.84-1c.59-.66,1.2-1.31,1.81-1.95l.78-.79c.21-.22.43-.43.64-.64l.59-.58.8-.76.69-.63Z"/><path class="cls-10" d="M181.41,116.89c-.54,2.79-2.7,5-5.12,6.51s-5.14,2.41-7.69,3.67-5,3-6.34,5.49c-.79,1.51-1.12,3.26-2.13,4.64a4,4,0,0,1-2.74,1.6,12.07,12.07,0,0,0,1.22-3.07c.22-1-1.07-3.53-1.07-3.53a1.8,1.8,0,0,1-.12-.17l0,0a9.58,9.58,0,0,1,2.84-4.5,24.76,24.76,0,0,1,6.83-4,26.75,26.75,0,0,0,6.9-3.89,13.24,13.24,0,0,0,4-6.27A5.55,5.55,0,0,0,181.41,116.89Z"/><path class="cls-10" d="M177.37,161.37a4.77,4.77,0,0,1-6.2-1.44c.27,1.41-1.46,2.55-2.85,2.23a5.51,5.51,0,0,1-3.16-2.74c-1.85-2.94-3-6.25-4.6-9.34a18,18,0,0,0-5.48-6.83,24.53,24.53,0,0,1,1.75-3.42c2.75.71,5.14,3,6.65,5.52,2,3.24,3,7,4.87,10.21S173.61,161.67,177.37,161.37Z"/><path class="cls-6" d="M72,111.1a4.94,4.94,0,0,1-.91,1.78,3.28,3.28,0,0,1-.68.76,2.89,2.89,0,0,1-.91.46l0,0a4.13,4.13,0,0,1,.61-.79c.22-.24.48-.43.71-.65a5.88,5.88,0,0,0,1.16-1.54Z"/><path class="cls-8" d="M61.93,117.86a1.27,1.27,0,0,1,.31.16c.66.56.6,1.1.21,1.49,1.48.1,3.15.18,3.39-.18a.67.67,0,0,0,0-.72,4,4,0,0,0-2.27-1.46h0"/><path class="cls-3" d="M63.55,117.15a2,2,0,0,0-.46-.06h0"/><path class="cls-3" d="M62.46,117.27a.39.39,0,0,0-.08.1"/><path class="cls-11" d="M147.89,72.43a7.8,7.8,0,0,1-6.82.55c-1-.41-2.1-1.07-3.16-.74a3.62,3.62,0,0,0-1.43,1,3.93,3.93,0,0,1-1.42,1,1.37,1.37,0,0,1-.43,0l-1.1-4a27.09,27.09,0,0,1,1.53-4.44A18.56,18.56,0,0,0,147.6,66l.06,0a1,1,0,0,0,0,.17C147.79,68.25,147.89,70.34,147.89,72.43Z"/><path class="cls-5" d="M134.63,74.36s0,.17-.11,0a31.71,31.71,0,0,1-1-3.87c-.08-.36-.15-.67-.19-.89s0-.14,0-.14h0l.24.88Z"/><g id="Eyes"><path class="cls-12" d="M147.18,68.74a8.37,8.37,0,0,1-2.11-.51,3,3,0,0,0-1.38.2L140,69.57a1.34,1.34,0,0,1,.07-.18,2.31,2.31,0,0,1,1.58-1,23.61,23.61,0,0,1,3.08-.55A14.13,14.13,0,0,1,147.18,68.74Z"/><path class="cls-13" d="M146.74,70.13a3.4,3.4,0,0,1-1.34-.1"/><path class="cls-14" d="M145.4,70a6.63,6.63,0,0,0-2.92.73c-.29.23-.42.44-.78.47-.25-.66-.18-1.27.5-1.49a4.67,4.67,0,0,1,2.43.08C144.89,69.89,145.14,70,145.4,70Z"/><path class="cls-15" d="M145.31,70.91a1.72,1.72,0,0,1-2.63.67A5.39,5.39,0,0,0,145.31,70.91Z"/><path class="cls-15" d="M138.21,69.74c-1.82-1.47-3.6-.77-3.48-1a4.94,4.94,0,0,1,1.49-.5,3.73,3.73,0,0,1,2,1C138.29,69.32,138.18,69.62,138.21,69.74Z"/><path class="cls-15" d="M138.23,69.76a7.16,7.16,0,0,0-.83-.47,4,4,0,0,0-.87-.28,4.6,4.6,0,0,0-.91-.09,3.4,3.4,0,0,0-.45,0l-.24,0h-.13l-.11,0a.23.23,0,0,1-.13-.1.19.19,0,0,1,0-.2.11.11,0,0,1,.06-.07l0,0a7.34,7.34,0,0,1,1-.46,1.62,1.62,0,0,1,.61-.12,1.88,1.88,0,0,1,.61.15,4,4,0,0,1,1,.59,2.59,2.59,0,0,1,.39.42.3.3,0,0,1,0,.32C138.27,69.58,138.25,69.62,138.23,69.76Zm0,0c-.07-.13,0-.43-.08-.44s-.29-.19-.45-.27a5.73,5.73,0,0,0-1-.4,1.3,1.3,0,0,0-.91,0,6.15,6.15,0,0,0-1,.35l.09-.09s0,0,0-.14-.08-.07-.08-.07,0,0,0,0h.82a5.12,5.12,0,0,1,1,.17,4.33,4.33,0,0,1,.88.38A3.06,3.06,0,0,1,138.2,69.72Z"/><path class="cls-15" d="M137.72,68.74a1.48,1.48,0,0,1,.83,1.13,1.93,1.93,0,0,1,0,.72,1.42,1.42,0,0,1-.31.64c-.06-.47-.08-.88-.15-1.28,0-.2-.08-.38-.13-.58S137.79,69,137.72,68.74Z"/><path class="cls-16" d="M137.71,71.68c0-.14-.18-.54-1-1a2.43,2.43,0,0,0-2,0s0-1,.5-1h1.49C137.33,69.74,137.71,71.47,137.71,71.68Z"/><path class="cls-15" d="M134.73,71.73a7.73,7.73,0,0,1,1.26,0c.4,0,.76,0,1.23,0a1.56,1.56,0,0,1-1.25.47A2,2,0,0,1,134.73,71.73Z"/></g></g></g></g></svg>